<?xml version="1.0" standalone="no"?>
<!DOCTYPE svg PUBLIC "-//W3C//DTD SVG 1.1//EN" "http://www.w3.org/Graphics/SVG/1.1/DTD/svg11.dtd" >
<svg xmlns="http://www.w3.org/2000/svg" xmlns:xlink="http://www.w3.org/1999/xlink" version="1.1">
<metadata>
Created by FontForge 20170731 at Wed Dec 29 18:43:44 2021
 By Aleksey,,,
(c) Rian Hughes 2020. A Device font. All rights reserved. e-mail: rian@rianhughes.com. Web: www.devicefonts.co.uk.
</metadata>
<defs>
<font id="Urbane-Light" horiz-adv-x="0" >
  <font-face 
    font-family="Urbane Light"
    font-weight="300"
    font-stretch="normal"
    units-per-em="2048"
    panose-1="0 0 4 0 0 0 0 0 0 0"
    ascent="1638"
    descent="-410"
    x-height="1171"
    cap-height="1483"
    bbox="-1362 -590 3164 2058"
    underline-thickness="102"
    underline-position="-409"
    unicode-range="U+0020-FB02"
  />
<missing-glyph horiz-adv-x="966" 
d="M793 1552v-1931h-613v1931h613zM643 1423h-319v-63h127v-72h-129v-63h321v63h-127v72h127v63zM516 1174h-194v-201h321v65h-127v136zM451 1108v-70h-64v70h64zM643 922h-321v-64h129v-72h-129v-63h194v135h127v64zM643 805h-63v-127h-258v-66h321v193zM643 569h-192v-108
h65v45h64v-90h-193v153h-65v-219h321v219zM643 236h-321v-220h321v220zM580 172v-92h-193v92h193zM643 -27h-321v-63h135l-135 -92v-64h321v64h-197l136 92h61v63z" />
    <glyph glyph-name=".notdef" horiz-adv-x="966" 
d="M793 1552v-1931h-613v1931h613zM643 1423h-319v-63h127v-72h-129v-63h321v63h-127v72h127v63zM516 1174h-194v-201h321v65h-127v136zM451 1108v-70h-64v70h64zM643 922h-321v-64h129v-72h-129v-63h194v135h127v64zM643 805h-63v-127h-258v-66h321v193zM643 569h-192v-108
h65v45h64v-90h-193v153h-65v-219h321v219zM643 236h-321v-220h321v220zM580 172v-92h-193v92h193zM643 -27h-321v-63h135l-135 -92v-64h321v64h-197l136 92h61v63z" />
    <glyph glyph-name=".null" 
 />
    <glyph glyph-name="nonmarkingreturn" horiz-adv-x="682" 
 />
    <glyph glyph-name="space" unicode=" " horiz-adv-x="577" 
 />
    <glyph glyph-name="exclam" unicode="!" horiz-adv-x="458" 
d="M172 336l-37 1147h189l-35 -1147h-117zM229 -16q-42 0 -70 27t-28 69t28 68t70 26t71.5 -26t29.5 -68t-29.5 -69t-71.5 -27z" />
    <glyph glyph-name="quotedbl" unicode="&#x22;" horiz-adv-x="663" 
d="M94 815l-14 668h164l-15 -668h-135zM434 815l-14 668h164l-17 -668h-133z" />
    <glyph glyph-name="numbersign" unicode="#" horiz-adv-x="1710" 
d="M219 0l158 444h-311l51 129h305l125 357h-311l49 129h309l147 424h158l-147 -424h430l147 424h158l-146 -424h301l-49 -129h-299l-123 -357h310l-49 -129h-306l-153 -444h-162l154 444h-430l-154 -444h-162zM582 573h430l125 357h-432z" />
    <glyph glyph-name="dollar" unicode="$" horiz-adv-x="1263" 
d="M1202 397q0 -180 -137 -293t-363 -124l19 -277h-170l20 281q-190 19 -324.5 113.5t-191.5 250.5l150 39q54 -124 174.5 -192t282.5 -68q174 0 278 73.5t104 198.5q0 66 -32 113.5t-85.5 76t-123 49t-147 37t-154.5 35.5t-146.5 49t-123 72t-85.5 111t-32 160
q0 168 127.5 278.5t328.5 122.5l-20 283h170l-19 -285q181 -17 304.5 -104t181.5 -240l-148 -37q-111 236 -419 236q-157 0 -254 -69.5t-97 -184.5q0 -67 32 -115.5t86 -77t123.5 -48.5t147 -36t155 -34t147 -47.5t123.5 -71.5t86 -112t32 -163z" />
    <glyph glyph-name="percent" unicode="%" horiz-adv-x="2228" 
d="M545 668q-92 0 -170.5 24t-141.5 72.5t-99 130t-36 188.5q0 105 36.5 186.5t99.5 130.5t142 74t171 25q89 0 167 -25t141 -74t99.5 -130.5t36.5 -186.5q0 -107 -36 -188.5t-99 -130t-141.5 -72.5t-169.5 -24zM629 0l805 1483h161l-800 -1481zM545 803q143 0 221 72.5
t78 207.5q0 132 -79.5 206.5t-217.5 74.5q-143 0 -224 -74t-81 -207q0 -134 80 -207t223 -73zM1686 -23q-92 0 -170.5 24t-141.5 72.5t-99 130.5t-36 189q0 105 36.5 186.5t99.5 130.5t142 74t171 25q89 0 167 -25t141 -74t99.5 -130.5t36.5 -186.5q0 -107 -36 -189
t-99 -130.5t-141.5 -72.5t-169.5 -24zM1686 113q143 0 221 72.5t78 207.5q0 132 -79.5 206.5t-217.5 74.5q-143 0 -224.5 -74t-81.5 -207q0 -134 80 -207t224 -73z" />
    <glyph glyph-name="ampersand" unicode="&#x26;" horiz-adv-x="1536" 
d="M709 -27q-275 0 -441 114.5t-166 311.5q0 154 83.5 243t256.5 118q-146 35 -221.5 120t-75.5 214q0 193 151 300t423 107q218 0 367.5 -96.5t193.5 -265.5l-152 -31q-39 117 -145.5 179.5t-261.5 62.5q-200 0 -304 -69t-104 -202q0 -250 418 -250h121v-147h-147
q-232 0 -334.5 -61t-102.5 -205q0 -138 119 -212.5t324 -74.5q214 0 339.5 101t125.5 286v309h299v-143h-136v-178q0 -251 -171 -391t-459 -140z" />
    <glyph glyph-name="quotesingle" unicode="'" horiz-adv-x="344" 
d="M104 815l-14 668h164l-14 -668h-136z" />
    <glyph glyph-name="parenleft" unicode="(" horiz-adv-x="708" 
d="M528 -379q-205 216 -309 468.5t-104 520.5q0 263 102 513t303 468h176q-208 -201 -318 -455.5t-110 -525.5q0 -276 111.5 -531.5t325.5 -457.5h-177z" />
    <glyph glyph-name="parenright" unicode=")" horiz-adv-x="708" 
d="M4 -379q214 202 325 457t111 532q0 271 -109.5 525.5t-316.5 455.5h174q200 -219 303 -469t103 -512q0 -266 -105.5 -518.5t-310.5 -470.5h-174z" />
    <glyph glyph-name="asterisk" unicode="*" horiz-adv-x="921" 
d="M397 623l11 333l-287 -178l-64 109l299 164l-299 166l64 106l287 -178l-11 338h129l-8 -336l281 178l63 -108l-295 -166l295 -164l-61 -109l-283 178l8 -333h-129z" />
    <glyph glyph-name="plus" unicode="+" horiz-adv-x="1273" 
d="M567 178v502h-475v147h475v478h144v-478h469v-147h-469v-502h-144z" />
    <glyph glyph-name="comma" unicode="," horiz-adv-x="440" 
d="M-55 -248l291 666h165l-317 -666h-139z" />
    <glyph glyph-name="hyphen" unicode="-" horiz-adv-x="823" 
d="M96 549v149h641v-149h-641z" />
    <glyph glyph-name="period" unicode="." horiz-adv-x="364" 
d="M182 -16q-43 0 -71.5 27t-28.5 69t28.5 68t71.5 26q42 0 71.5 -26t29.5 -68t-29.5 -69t-71.5 -27z" />
    <glyph glyph-name="slash" unicode="/" horiz-adv-x="946" 
d="M20 0l742 1483h164l-744 -1483h-162z" />
    <glyph glyph-name="zero" unicode="0" horiz-adv-x="1503" 
d="M750 -23q-103 0 -195 27t-173.5 86.5t-140 147t-92.5 216t-34 285.5q0 191 52 340t142 239t203 135.5t242 45.5q128 0 239.5 -45.5t200.5 -135.5t140.5 -239t51.5 -340q0 -157 -34 -285.5t-92.5 -216t-139.5 -147t-173.5 -86.5t-196.5 -27zM750 131q222 0 347.5 159.5
t125.5 448.5q0 283 -126.5 445t-344.5 162q-219 0 -346 -162t-127 -445q0 -289 125 -448.5t346 -159.5z" />
    <glyph glyph-name="one" unicode="1" horiz-adv-x="600" 
d="M274 0v1329h-233v154h399v-1483h-166z" />
    <glyph glyph-name="two" unicode="2" horiz-adv-x="1312" 
d="M88 0v145q220 140 367 237.5t259.5 182.5t174.5 143t100.5 117.5t50 107.5t11.5 111q0 145 -107 224.5t-282 79.5q-167 0 -275.5 -73.5t-140.5 -213.5l-156 20q38 199 189 308.5t383 109.5q254 0 406.5 -116t152.5 -328q0 -74 -15.5 -134.5t-57 -126.5t-103.5 -128.5
t-165.5 -143t-232.5 -166.5t-315 -202h878v-154h-1122z" />
    <glyph glyph-name="three" unicode="3" horiz-adv-x="1353" 
d="M674 -27q-232 0 -386.5 103t-211.5 293l157 28q102 -272 439 -272q198 0 308 79.5t110 215.5q0 142 -94.5 204t-321.5 62h-109v139h82q199 0 299.5 64.5t100.5 189.5q0 133 -97 203t-286 70q-282 0 -388 -236l-155 29q61 174 203 265t344 91q259 0 402.5 -108.5
t143.5 -298.5q0 -136 -78 -222t-229 -114q172 -15 260 -105.5t88 -246.5q0 -195 -157.5 -314t-423.5 -119z" />
    <glyph glyph-name="four" unicode="4" horiz-adv-x="1368" 
d="M938 0v350h-877v135l873 998h170v-987h219v-146h-219v-350h-166zM256 496h682v772z" />
    <glyph glyph-name="five" unicode="5" horiz-adv-x="1363" 
d="M680 -23q-224 0 -374 102t-197 290l149 20q41 -129 147.5 -195.5t268.5 -66.5q199 0 317.5 110t118.5 295q0 178 -119 282.5t-321 98.5q-248 -6 -387 -211l-146 35l133 746h908v-152h-779l-88 -446q73 73 172 112.5t211 42.5q258 7 417 -135.5t159 -378.5
q0 -246 -162.5 -397.5t-427.5 -151.5z" />
    <glyph glyph-name="six" unicode="6" horiz-adv-x="1392" 
d="M698 -25q-95 0 -181.5 20.5t-163 65t-133 109t-89.5 158.5t-33 207q0 117 39 232t119 233t183.5 232t250.5 251h225q-142 -104 -274 -243t-213 -263q130 88 297 88q113 0 213.5 -33t181 -97t127.5 -168.5t47 -236.5q0 -113 -33 -206.5t-89 -157.5t-132.5 -107.5
t-162 -63.5t-179.5 -20zM698 125q200 0 316 108t116 295q0 185 -117 292.5t-319 107.5q-201 0 -317.5 -107.5t-116.5 -292.5q0 -188 117 -295.5t321 -107.5z" />
    <glyph glyph-name="seven" unicode="7" horiz-adv-x="1189" 
d="M219 0l731 1329h-901v154h1079v-148l-725 -1335h-184z" />
    <glyph glyph-name="eight" unicode="8" horiz-adv-x="1398" 
d="M698 -25q-265 0 -432.5 111.5t-167.5 302.5q0 138 93 229t262 125q-155 36 -240.5 127t-85.5 228q0 124 75 216t205 138.5t298 46.5t297 -46.5t203.5 -138.5t74.5 -216q0 -138 -86.5 -229t-245.5 -128q169 -33 260.5 -123.5t91.5 -228.5q0 -128 -78 -223t-213.5 -143
t-310.5 -48zM700 809q188 0 302 75t114 201q0 125 -112 198t-299 73q-190 0 -303 -73t-113 -198t112.5 -200.5t298.5 -75.5zM698 117q200 0 319.5 76.5t119.5 205.5q0 126 -120 202.5t-317 76.5q-198 0 -319 -76t-121 -203q0 -129 119.5 -205.5t318.5 -76.5z" />
    <glyph glyph-name="nine" unicode="9" horiz-adv-x="1392" 
d="M477 0q143 105 276.5 244t211.5 262q-130 -88 -297 -88q-91 0 -173.5 20t-155.5 63t-126 105t-84 151.5t-31 196.5q0 113 33 206t89.5 156.5t133 107t162 63.5t178.5 20q120 0 225.5 -33.5t190.5 -99.5t134.5 -175.5t49.5 -250.5q0 -117 -39 -232t-118.5 -233
t-182.5 -232t-249 -251h-228zM698 555q201 0 318 107.5t117 291.5q0 188 -117.5 296t-321.5 108q-200 0 -316 -108.5t-116 -295.5q0 -184 117.5 -291.5t318.5 -107.5z" />
    <glyph glyph-name="colon" unicode=":" horiz-adv-x="364" 
d="M182 997q-43 0 -71.5 27t-28.5 68q0 42 28.5 68t71.5 26q42 0 71.5 -26t29.5 -68q0 -41 -29.5 -68t-71.5 -27zM182 -16q-43 0 -71.5 27t-28.5 69t28.5 68t71.5 26q42 0 71.5 -26t29.5 -68t-29.5 -69t-71.5 -27z" />
    <glyph glyph-name="semicolon" unicode=";" horiz-adv-x="458" 
d="M250 1001q-43 0 -71.5 26.5t-28.5 68.5t28.5 68t71.5 26q42 0 71 -26t29 -68t-29 -68.5t-71 -26.5zM-55 -248l291 666h165l-317 -666h-139z" />
    <glyph glyph-name="less" unicode="&#x3c;" horiz-adv-x="1114" 
d="M1012 121l-910 493v185l910 493v-159l-766 -426l766 -426v-160z" />
    <glyph glyph-name="equal" unicode="=" horiz-adv-x="1271" 
d="M92 909v150h1088v-150h-1088zM92 420v149h1088v-149h-1088z" />
    <glyph glyph-name="greater" unicode="&#x3e;" horiz-adv-x="1114" 
d="M102 137v160l764 426l-764 426v160l910 -492v-188z" />
    <glyph glyph-name="question" unicode="?" horiz-adv-x="1345" 
d="M575 336l-18 346q267 -6 418 82.5t151 251.5q0 161 -123 249.5t-348 88.5q-177 0 -292.5 -75.5t-155.5 -215.5l-150 22q44 198 203.5 308t401.5 110q292 0 459 -128.5t167 -352.5q0 -196 -154.5 -320t-420.5 -141l-19 -225h-119zM629 -16q-42 0 -70.5 27t-28.5 69
t28.5 68t70.5 26t72 -26t30 -68t-30 -69t-72 -27z" />
    <glyph glyph-name="at" unicode="@" horiz-adv-x="1679" 
d="M854 -23q-159 0 -293 49.5t-234 144t-156 240t-56 328.5q0 180 55.5 325.5t153 239.5t228 144.5t282.5 50.5q154 0 286 -41.5t231.5 -121.5t156.5 -205.5t57 -284.5q0 -236 -106.5 -366t-317.5 -130h-58l-4 121q-36 -78 -101 -112.5t-169 -34.5q-163 0 -265 113t-102 296
t102 295.5t267 112.5q193 0 268 -170v151h131v-639q110 0 161.5 89.5t51.5 267.5q0 246 -159.5 384t-432.5 138q-265 0 -420 -168t-155 -455q0 -290 158 -457t438 -167q252 0 410 131l98 -103q-203 -166 -506 -166zM825 457q59 0 102 12t78.5 42t53.5 85.5t18 136.5
q0 133 -72 207t-180 74q-106 0 -178 -75t-72 -206t71.5 -203.5t178.5 -72.5z" />
    <glyph glyph-name="A" unicode="A" horiz-adv-x="1411" 
d="M1255 0l-139 330h-819l-139 -330h-178l645 1483h161l646 -1483h-177zM356 469h701l-352 827z" />
    <glyph glyph-name="B" unicode="B" horiz-adv-x="1376" 
d="M160 0v1483h434q242 0 381.5 -40.5t196.5 -120t57 -212.5q0 -152 -74.5 -236t-234.5 -112q190 -22 276 -106t86 -250q0 -207 -155.5 -306.5t-512.5 -99.5h-454zM324 825h276q239 0 348 63t109 208q0 93 -43 143t-141.5 72t-280.5 22h-268v-508zM324 147h288
q264 0 381 63.5t117 203.5q0 154 -107.5 213t-384.5 59h-294v-539z" />
    <glyph glyph-name="C" unicode="C" horiz-adv-x="1546" 
d="M807 -25q-108 0 -207 27t-188.5 86t-154.5 146.5t-103.5 216.5t-38.5 286q0 153 38.5 281t104 216t154 149t188 89.5t207.5 28.5q81 0 157.5 -15.5t153 -52.5t139 -92t114 -139.5t79.5 -189.5l-162 -33q-50 177 -177 272t-304 95q-237 0 -379.5 -165t-142.5 -444
q0 -282 140 -444t382 -162q180 0 307 99t176 282l162 -33q-27 -108 -77.5 -195t-113.5 -144t-140.5 -95t-154.5 -54t-159 -16z" />
    <glyph glyph-name="D" unicode="D" horiz-adv-x="1480" 
d="M160 0v1483h354q450 0 651 -177.5t201 -564.5q0 -384 -201.5 -562.5t-650.5 -178.5h-354zM326 154h192q361 0 521.5 138.5t160.5 450.5q0 311 -161 449.5t-523 138.5h-190v-1177z" />
    <glyph glyph-name="E" unicode="E" horiz-adv-x="1216" 
d="M160 0v1483h954v-154h-788v-502h751v-147h-751v-526h788v-154h-954z" />
    <glyph glyph-name="F" unicode="F" horiz-adv-x="1122" 
d="M160 0v1483h893v-152h-727v-534h690v-148h-690v-649h-166z" />
    <glyph glyph-name="G" unicode="G" horiz-adv-x="1609" 
d="M803 -16q-314 0 -501 207t-187 554q0 339 192.5 549.5t501.5 210.5q443 0 606 -350l-160 -39q-67 123 -176 181.5t-268 58.5q-238 0 -384 -168t-146 -445q0 -282 142.5 -447t385.5 -165q237 0 372 134t144 384h-512v148h682v-95q0 -333 -186 -525.5t-506 -192.5z" />
    <glyph glyph-name="H" unicode="H" horiz-adv-x="1466" 
d="M160 0v1483h166v-656h813v656h166v-1483h-166v680h-813v-680h-166z" />
    <glyph glyph-name="I" unicode="I" horiz-adv-x="485" 
d="M160 0v1483h166v-1483h-166z" />
    <glyph glyph-name="J" unicode="J" horiz-adv-x="782" 
d="M211 -12q-78 0 -170 18l22 146q54 -11 127 -11q159 0 223 96t64 306v940h166v-957q0 -278 -102.5 -408t-329.5 -130z" />
    <glyph glyph-name="K" unicode="K" horiz-adv-x="1286" 
d="M160 0v1483h166v-658l737 658h231l-800 -703l813 -780h-226l-755 737v-737h-166z" />
    <glyph glyph-name="L" unicode="L" horiz-adv-x="1073" 
d="M160 0v1483h166v-1329h690v-154h-856z" />
    <glyph glyph-name="M" unicode="M" horiz-adv-x="2007" 
d="M53 0l289 1483h199l463 -1307l462 1307h199l289 -1483h-168l-246 1253l-448 -1253h-177l-448 1253l-246 -1253h-168z" />
    <glyph glyph-name="N" unicode="N" horiz-adv-x="1536" 
d="M160 0v1483h174l876 -1235v1235h164v-1483h-168l-880 1241v-1241h-166z" />
    <glyph glyph-name="O" unicode="O" horiz-adv-x="1622" 
d="M809 -23q-113 0 -214 27t-189.5 86.5t-152.5 147t-101 216t-37 285.5q0 154 37.5 281t102 215t153.5 148t190.5 88t214.5 28q139 0 261.5 -45.5t220.5 -135.5t155 -239t57 -340q0 -157 -37.5 -285.5t-102 -216t-153.5 -147t-190.5 -86.5t-214.5 -27zM809 131
q250 0 391 159.5t141 448.5q0 283 -142 445t-386 162q-248 0 -391 -161t-143 -446q0 -289 140 -448.5t390 -159.5z" />
    <glyph glyph-name="P" unicode="P" horiz-adv-x="1300" 
d="M160 0v1483h377q178 0 302 -23.5t214 -79.5t133 -152t43 -237t-42.5 -236.5t-133 -151t-214.5 -78.5t-302 -23h-211v-502h-166zM326 655h229q103 0 178 8.5t139.5 31t104.5 60.5t62 97t22 141q0 83 -22 142.5t-62 97t-105 59.5t-139.5 30.5t-177.5 8.5h-229v-676z" />
    <glyph glyph-name="Q" unicode="Q" horiz-adv-x="1622" 
d="M1507 739q0 -167 -41 -300t-114.5 -222.5t-167.5 -144.5t-209 -78l207 -273h-221l-160 256q-113 1 -212.5 29t-187 87.5t-150.5 147t-99.5 215t-36.5 283.5q0 154 37.5 281t102 215t153.5 148t190.5 88t214.5 28q139 0 261.5 -45.5t220.5 -135.5t155 -239t57 -340z
M809 131q250 0 391 159.5t141 448.5q0 283 -142 445t-386 162q-248 0 -391 -161t-143 -446q0 -289 140 -448.5t390 -159.5z" />
    <glyph glyph-name="R" unicode="R" horiz-adv-x="1353" 
d="M1268 0h-201l-381 537q-97 -5 -125 -5h-235v-532h-166v1483h403q173 0 295.5 -23.5t212 -77t133 -146t43.5 -226.5q0 -195 -97 -303.5t-290 -147.5zM326 676h247q131 0 218 13t156 48t101.5 100.5t32.5 166.5t-32.5 167t-101.5 101.5t-156.5 49t-217.5 13.5h-247v-659z
" />
    <glyph glyph-name="S" unicode="S" horiz-adv-x="1292" 
d="M678 -20q-228 0 -393.5 97t-229.5 271l154 39q55 -124 178 -192t289 -68q179 0 286 73.5t107 198.5q0 66 -32.5 113.5t-87.5 76t-126.5 49t-150.5 37t-158 35.5t-150.5 49t-126.5 72t-87.5 111t-32.5 160q0 178 145 290.5t369 112.5q218 0 367.5 -89t215.5 -259l-149 -37
q-114 236 -432 236q-160 0 -258.5 -69.5t-98.5 -184.5q0 -47 12.5 -84t51.5 -66t61 -45.5t93 -36.5t92.5 -25.5t110.5 -23.5q103 -22 157 -35t138.5 -46.5t127.5 -73.5t77 -109.5t34 -159.5q0 -188 -153 -302.5t-400 -114.5z" />
    <glyph glyph-name="T" unicode="T" horiz-adv-x="1155" 
d="M496 0v1329h-435v154h1033v-154h-432v-1329h-166z" />
    <glyph glyph-name="U" unicode="U" horiz-adv-x="1490" 
d="M745 -20q-303 0 -454.5 175.5t-151.5 540.5v787h166v-787q0 -298 106 -430.5t334 -132.5q227 0 334 133t107 430v787h166v-787q0 -716 -607 -716z" />
    <glyph glyph-name="V" unicode="V" horiz-adv-x="1394" 
d="M606 0l-626 1483h182l534 -1293l537 1293h182l-631 -1483h-178z" />
    <glyph glyph-name="W" unicode="W" horiz-adv-x="2066" 
d="M492 0l-512 1481h178l417 -1243l381 1243h148l385 -1243l420 1243h178l-514 -1481h-160l-383 1241l-379 -1241h-159z" />
    <glyph glyph-name="X" unicode="X" horiz-adv-x="1341" 
d="M-8 0l581 784l-522 699h203l418 -561l415 561h199l-520 -697l584 -786h-201l-479 647l-480 -647h-198z" />
    <glyph glyph-name="Y" unicode="Y" horiz-adv-x="1372" 
d="M600 0v424l-620 1059h190l512 -887l518 887h193l-627 -1059v-424h-166z" />
    <glyph glyph-name="Z" unicode="Z" horiz-adv-x="1243" 
d="M86 0v147l868 1182h-868v154h1061v-146l-868 -1183h868v-154h-1061z" />
    <glyph glyph-name="bracketleft" unicode="[" horiz-adv-x="655" 
d="M160 -379v1938h471v-138h-324v-1665h324v-135h-471z" />
    <glyph glyph-name="backslash" unicode="\" horiz-adv-x="937" 
d="M762 0l-742 1483h162l744 -1483h-164z" />
    <glyph glyph-name="bracketright" unicode="]" horiz-adv-x="657" 
d="M25 -379v135h323v1665h-323v138h471v-1938h-471z" />
    <glyph glyph-name="asciicircum" unicode="^" horiz-adv-x="968" 
d="M86 362l309 566h178l310 -566h-138l-262 443l-260 -443h-137z" />
    <glyph glyph-name="underscore" unicode="_" horiz-adv-x="1501" 
d="M-39 -590v119h1579v-119h-1579z" />
    <glyph glyph-name="grave" unicode="`" horiz-adv-x="878" 
d="M434 1317l-192 346h157l170 -346h-135z" />
    <glyph glyph-name="a" unicode="a" horiz-adv-x="1413" 
d="M651 -27q-89 0 -169.5 23.5t-151 73t-122 120.5t-81 173t-29.5 223q0 150 45 268t122.5 191t175 111t208.5 38q154 0 274.5 -75.5t174.5 -217.5v270h162v-1169h-162v262q-53 -141 -173 -216t-274 -75zM682 117q190 0 305 127t115 342q0 214 -116 339.5t-308 125.5
q-191 0 -305.5 -125t-114.5 -340q0 -217 115.5 -343t308.5 -126z" />
    <glyph glyph-name="b" unicode="b" horiz-adv-x="1398" 
d="M750 -27q-155 0 -276 75t-175 216v-262h-160v1550h160v-649q54 141 174.5 216t274.5 75q110 0 207.5 -38t175.5 -110.5t123.5 -191.5t45.5 -268q0 -121 -29.5 -223t-81 -173t-121.5 -120.5t-150.5 -73t-167.5 -23.5zM721 117q190 0 304 126.5t114 342.5q0 214 -115 339.5
t-307 125.5q-191 0 -305.5 -125t-114.5 -340q0 -217 115.5 -343t308.5 -126z" />
    <glyph glyph-name="c" unicode="c" horiz-adv-x="1302" 
d="M670 -23q-250 0 -411 171.5t-161 437.5t161 437t411 171q404 0 534 -373l-141 -35q-105 265 -389 265q-183 0 -299.5 -130t-116.5 -335t116.5 -335t299.5 -130q137 0 237.5 68.5t149.5 195.5l141 -35q-59 -178 -197 -275.5t-335 -97.5z" />
    <glyph glyph-name="d" unicode="d" horiz-adv-x="1413" 
d="M651 -27q-89 0 -169.5 23.5t-151 73t-122 120.5t-81 173t-29.5 223q0 150 45 268t122.5 191t175 111t208.5 38q154 0 275.5 -75.5t173.5 -217.5v651h162v-1550h-162v262q-53 -141 -173 -216t-274 -75zM682 117q191 0 305.5 126.5t114.5 342.5q0 214 -115.5 339.5
t-308.5 125.5q-191 0 -305.5 -125t-114.5 -340q0 -217 115.5 -343t308.5 -126z" />
    <glyph glyph-name="e" unicode="e" horiz-adv-x="1343" 
d="M692 -23q-270 0 -432 166.5t-162 442.5q0 270 162.5 439t421.5 169q271 0 425.5 -176.5t135.5 -462.5h-985q4 -204 121 -320t315 -116q268 0 381 203l148 -33q-154 -312 -531 -312zM264 690h826q-11 170 -119 269.5t-287 99.5q-173 0 -285.5 -98.5t-134.5 -270.5z" />
    <glyph glyph-name="f" unicode="f" horiz-adv-x="745" 
d="M205 0v1040h-164v131h164v52q0 360 377 360q99 0 184 -16l-27 -131q-61 12 -133 12q-237 0 -237 -229v-48h344v-131h-344v-1040h-164z" />
    <glyph glyph-name="g" unicode="g" horiz-adv-x="1413" 
d="M676 -424q-192 0 -337.5 82.5t-209.5 228.5l152 43q53 -101 158 -160t237 -59q208 0 315 111t107 356v111q-52 -145 -171 -216t-276 -71q-89 0 -169.5 22.5t-151 70.5t-122 117.5t-81 168t-29.5 217.5q0 146 45 262t122.5 187t175 108t208.5 37q158 0 277.5 -70.5
t171.5 -216.5v266h162v-972q0 -320 -148.5 -471.5t-435.5 -151.5zM682 135q191 0 305.5 124.5t114.5 338.5t-115.5 338.5t-308.5 124.5q-191 0 -305.5 -124.5t-114.5 -338.5q0 -215 115 -339t309 -124z" />
    <glyph glyph-name="h" unicode="h" horiz-adv-x="1298" 
d="M139 0v1552h160v-630q39 123 141 196.5t260 73.5q488 0 488 -565v-627h-160v616q0 220 -89 325.5t-277 105.5q-363 0 -363 -465v-582h-160z" />
    <glyph glyph-name="i" unicode="i" horiz-adv-x="450" 
d="M223 1352q-42 0 -70 26t-28 68t28 68t70 26q43 0 73 -26t30 -68t-30 -68t-73 -26zM143 0v1171h158v-1171h-158z" />
    <glyph glyph-name="j" unicode="j" horiz-adv-x="442" 
d="M217 1352q-42 0 -70 26t-28 68t28 68t70 26t72 -26t30 -68t-30 -68t-72 -26zM2 -387q-44 0 -82 10l17 127q23 -4 40 -4q85 0 122.5 52.5t37.5 166.5v1206h160v-1202q0 -176 -69.5 -266t-225.5 -90z" />
    <glyph glyph-name="k" unicode="k" horiz-adv-x="1191" 
d="M1178 0h-232l-631 586v-586h-161v1552h161v-921l609 540h229l-655 -563z" />
    <glyph glyph-name="l" unicode="l" horiz-adv-x="440" 
d="M139 0v1552h162v-1552h-162z" />
    <glyph glyph-name="m" unicode="m" horiz-adv-x="2007" 
d="M139 0v1171h160v-260q31 129 129 205t242 76q157 0 243 -73t131 -236q38 151 149.5 231t281.5 80q226 0 323.5 -148t97.5 -468v-578h-161v567q0 253 -72.5 367.5t-243.5 114.5q-175 0 -252 -115t-77 -367v-567h-160v563q0 259 -66 371.5t-233 112.5q-173 0 -252.5 -123.5
t-79.5 -378.5v-545h-160z" />
    <glyph glyph-name="n" unicode="n" horiz-adv-x="1298" 
d="M139 0v1171h160v-249q41 125 143.5 197.5t257.5 72.5q488 0 488 -565v-627h-160v616q0 219 -89 325t-277 106q-363 0 -363 -465v-582h-160z" />
    <glyph glyph-name="o" unicode="o" horiz-adv-x="1359" 
d="M682 -27q-91 0 -175 22.5t-159 71t-130 119t-87.5 173.5t-32.5 227q0 123 32.5 225t87.5 172t129.5 118t157.5 70.5t173 22.5t174 -22.5t159 -70.5t130.5 -118t88 -172t32.5 -225q0 -124 -32.5 -227t-87.5 -173.5t-129.5 -119t-157.5 -71t-173 -22.5zM682 117
q190 0 305 127t115 342q0 214 -116 339.5t-308 125.5q-191 0 -305.5 -125t-114.5 -340q0 -217 115.5 -343t308.5 -126z" />
    <glyph glyph-name="p" unicode="p" horiz-adv-x="1398" 
d="M139 -379v1550h160v-262q53 139 173 214t278 75q85 0 164 -22.5t150 -71t123 -118.5t82.5 -172.5t30.5 -225.5t-30.5 -224.5t-83 -171.5t-123.5 -118t-150 -70t-165 -22q-157 0 -276.5 74.5t-172.5 213.5v-649h-160zM717 123q192 0 307 125.5t115 339.5q0 216 -114 342.5
t-304 126.5q-193 0 -308.5 -126t-115.5 -343q0 -215 114.5 -340t305.5 -125z" />
    <glyph glyph-name="q" unicode="q" horiz-adv-x="1398" 
d="M1098 -381v649q-52 -137 -171.5 -212.5t-275.5 -75.5q-86 0 -165.5 22t-150.5 70t-123.5 118t-83 171.5t-30.5 224.5t30.5 225.5t82.5 173t122.5 118.5t150 70.5t165.5 22.5q158 0 277.5 -75t171.5 -214v262h162v-1550h-162zM682 121q191 0 305.5 125t114.5 340
q0 217 -115.5 343t-308.5 126q-190 0 -305 -127t-115 -342q0 -214 116 -339.5t308 -125.5z" />
    <glyph glyph-name="r" unicode="r" horiz-adv-x="743" 
d="M139 0v1171h160v-213q19 55 51.5 98t85.5 77.5t123 44.5t166 -2l-20 -158q-207 38 -306.5 -71.5t-99.5 -340.5v-606h-160z" />
    <glyph glyph-name="s" unicode="s" horiz-adv-x="1161" 
d="M604 -20q-190 0 -337 79t-210 213l146 47q54 -94 158 -145t243 -51q159 0 247.5 55t88.5 154q0 49 -28 83.5t-75.5 54.5t-109 33.5t-129.5 25t-135.5 24.5t-129 36.5t-109 57.5t-75.5 90t-28 131q0 144 132.5 234t336.5 90q155 0 288 -69t193 -179l-139 -51
q-50 74 -140.5 117t-199.5 43q-145 0 -228 -50.5t-83 -138.5q0 -49 28 -83.5t75.5 -54t109 -33t130 -24t136.5 -23.5t129.5 -36t109 -56.5t75.5 -89.5t28 -130q0 -161 -135.5 -257.5t-362.5 -96.5z" />
    <glyph glyph-name="t" unicode="t" horiz-adv-x="786" 
d="M616 -16q-219 0 -315 113t-96 380v563h-174v131h174v220l164 34v-254h366v-131h-366v-548q0 -209 58.5 -291t207.5 -82q35 0 94 10l23 -131q-75 -14 -136 -14z" />
    <glyph glyph-name="u" unicode="u" horiz-adv-x="1310" 
d="M598 -20q-487 0 -487 563v628h159v-618q0 -218 88 -323t277 -105q362 0 362 465v581h160v-1171h-160v250q-40 -124 -142.5 -197t-256.5 -73z" />
    <glyph glyph-name="v" unicode="v" horiz-adv-x="1245" 
d="M543 -2l-531 1173h178l431 -989l434 989h178l-533 -1173h-157z" />
    <glyph glyph-name="w" unicode="w" horiz-adv-x="1916" 
d="M465 0l-453 1171h174l367 -981l338 981h133l338 -981l369 981h174l-457 -1171h-170l-320 938l-319 -938h-174z" />
    <glyph glyph-name="x" unicode="x" horiz-adv-x="1179" 
d="M-4 0l498 616l-441 555h195l344 -438l342 438h199l-443 -555l494 -616h-193l-397 506l-404 -506h-194z" />
    <glyph glyph-name="y" unicode="y" horiz-adv-x="1245" 
d="M360 -379l177 389l-525 1161h178l433 -987l432 987h178l-698 -1550h-175z" />
    <glyph glyph-name="z" unicode="z" horiz-adv-x="1171" 
d="M102 0v143l762 889h-749v139h944v-143l-762 -889h750v-139h-945z" />
    <glyph glyph-name="braceleft" unicode="{" horiz-adv-x="706" 
d="M227 -379v662q0 136 -38.5 189t-143.5 71v135q72 12 109 36t55 76.5t18 147.5v621h455v-138h-311v-516q0 -122 -32 -192t-108 -103q75 -36 107.5 -106.5t32.5 -188.5v-559h311v-135h-455z" />
    <glyph glyph-name="bar" unicode="|" horiz-adv-x="466" 
d="M160 -379v1931h147v-1931h-147z" />
    <glyph glyph-name="braceright" unicode="}" horiz-adv-x="706" 
d="M25 -379v137h311v555q0 119 32 189t107 106q-76 34 -107.5 104t-31.5 191v520h-311v136h452v-621q0 -140 39 -192.5t146 -67.5v-137q-105 -15 -145 -69t-40 -191v-660h-452z" />
    <glyph glyph-name="asciitilde" unicode="~" horiz-adv-x="964" 
d="M166 532l-84 97q89 92 211 92q64 0 187.5 -37t178.5 -37q87 0 140 58l84 -99q-96 -96 -226 -96q-69 0 -191.5 38t-172.5 38q-73 0 -127 -54z" />
    <glyph glyph-name="uni00A0" unicode="&#xa0;" horiz-adv-x="577" 
 />
    <glyph glyph-name="exclamdown" unicode="&#xa1;" horiz-adv-x="458" 
d="M229 1499q42 0 71.5 -27t29.5 -69t-29.5 -68t-71.5 -26t-70 26t-28 68t28 69t70 27zM172 1147h117l35 -1147h-189z" />
    <glyph glyph-name="cent" unicode="&#xa2;" horiz-adv-x="1282" 
d="M662 121q134 0 231.5 68.5t144.5 195.5l138 -35q-51 -160 -166 -254.5t-279 -113.5l19 -279h-170l18 277q-222 22 -361 189t-139 417q0 248 139 416t361 190l-18 258h170l-19 -260q335 -35 447 -369l-138 -35q-102 265 -378 265q-180 0 -293 -129.5t-113 -335.5
t113 -335.5t293 -129.5z" />
    <glyph glyph-name="sterling" unicode="&#xa3;" horiz-adv-x="1394" 
d="M434 635q19 -57 28.5 -107t8 -106t-18.5 -102.5t-57.5 -91t-103.5 -76.5h1022v-152h-1235v152q65 28 112 58.5t75.5 60t43 66t18 68t-4 73.5t-18 75.5t-28.5 81.5h-210v141h155q-49 142 -49 246q0 230 152 353.5t432 123.5q228 0 370.5 -89t188.5 -263l-154 -35
q-74 240 -405 240q-208 0 -315 -87.5t-107 -252.5q0 -86 57 -236h621v-141h-578z" />
    <glyph glyph-name="yen" unicode="&#xa5;" horiz-adv-x="1372" 
d="M1393 1483l-572 -955h363v-137h-418v-391h-166v391h-410v137h355l-565 955h190l512 -877l518 877h193z" />
    <glyph glyph-name="brokenbar" unicode="&#xa6;" horiz-adv-x="466" 
d="M160 707v843h147v-843h-147zM160 -379v844h147v-844h-147z" />
    <glyph glyph-name="section" unicode="&#xa7;" horiz-adv-x="1058" 
d="M532 -12q-156 0 -281.5 57t-191.5 166l148 51q51 -66 135 -100.5t190 -34.5q149 0 227.5 41.5t78.5 120.5q0 50 -33 83.5t-87 49t-123 28.5t-141 20.5t-141.5 26t-123.5 45t-87.5 78t-33.5 123.5q-1 90 58 153t165 85q-99 29 -151 87.5t-52 139.5q0 138 116 212.5
t318 74.5q152 0 272.5 -58t176.5 -165l-144 -45q-43 62 -122.5 97.5t-180.5 35.5q-131 0 -203.5 -38t-72.5 -108q0 -55 41 -89.5t106.5 -50t145 -26.5t159 -27t145 -41.5t107 -79.5t41.5 -134q1 -89 -57 -152t-164 -88q106 -22 164.5 -83t58.5 -150q0 -148 -120 -226.5
t-343 -78.5zM532 598q150 0 228 40.5t78 115.5q0 155 -306 155q-309 0 -309 -155q0 -75 79 -115.5t230 -40.5z" />
    <glyph glyph-name="dieresis" unicode="&#xa8;" horiz-adv-x="1155" 
d="M391 1343q-35 0 -59.5 26.5t-24.5 62.5q0 37 24.5 62.5t59.5 25.5t59.5 -25.5t24.5 -62.5q0 -36 -24.5 -62.5t-59.5 -26.5zM727 1343q-36 0 -61 26.5t-25 62.5q0 37 24.5 62.5t61.5 25.5q34 0 59 -26t25 -62q0 -35 -25 -62t-59 -27z" />
    <glyph glyph-name="copyright" unicode="&#xa9;" horiz-adv-x="1660" 
d="M829 -23q-113 0 -216 27t-194.5 86.5t-158.5 147t-106 216t-39 285.5q0 154 39.5 281.5t107 215t160 147.5t196 88t216.5 28q111 0 213 -28t193.5 -88t159 -147.5t107 -215t39.5 -281.5q0 -157 -39.5 -285.5t-106.5 -216t-159.5 -147t-195.5 -86.5t-216 -27zM829 115
q264 0 418 165.5t154 458.5q0 288 -155 455.5t-415 167.5q-263 0 -419 -166.5t-156 -456.5q0 -294 153.5 -459t419.5 -165zM825 315q-167 0 -276 119.5t-109 306.5t109.5 307.5t275.5 120.5q133 0 224 -59t129 -172l-123 -45q-56 139 -228 139q-107 0 -178 -81t-71 -210
t71 -210.5t178 -81.5q85 0 143.5 37t84.5 108l127 -41q-38 -115 -130 -176.5t-227 -61.5z" />
    <glyph glyph-name="ordfeminine" unicode="&#xaa;" horiz-adv-x="1349" 
d="M621 369q-106 0 -198.5 35t-166 103t-116 179.5t-42.5 253.5q0 141 42.5 252t115.5 178.5t165 102t197 34.5q145 0 256.5 -66t161.5 -200v244h162v-1094h-162v244q-50 -135 -159.5 -200.5t-255.5 -65.5zM651 512q177 0 283 114t106 314q0 197 -107 310.5t-286 113.5
q-177 0 -283 -113t-106 -311q0 -202 106 -315t287 -113z" />
    <glyph glyph-name="guillemotleft" unicode="&#xab;" horiz-adv-x="1239" 
d="M557 92l-477 483l477 482h160l-447 -482l449 -483h-162zM999 92l-477 483l477 482h160l-446 -482l448 -483h-162z" />
    <glyph glyph-name="registered" unicode="&#xae;" horiz-adv-x="1662" 
d="M829 -23q-113 0 -216 27t-194.5 86.5t-158.5 147t-106 216t-39 285.5q0 154 39.5 281.5t107 215t160 147.5t196 88t216.5 28q111 0 213 -28t193.5 -88t159 -147.5t107 -215t39.5 -281.5q0 -157 -39.5 -285.5t-106.5 -216t-159.5 -147t-195.5 -86.5t-216 -27zM829 115
q264 0 419 165.5t155 458.5q0 288 -156 455.5t-416 167.5q-263 0 -419 -166.5t-156 -456.5q0 -294 153.5 -459t419.5 -165zM551 360v773h246q186 0 275 -64t89 -205q0 -208 -229 -250l223 -254h-176l-199 242h-92v-242h-137zM688 725h111q123 0 174 32.5t51 104.5
q0 78 -47 111t-176 33h-113v-281z" />
    <glyph glyph-name="macron" unicode="&#xaf;" horiz-adv-x="1038" 
d="M203 1339v123h631v-123h-631z" />
    <glyph glyph-name="degree" unicode="&#xb0;" horiz-adv-x="798" 
d="M401 887q-136 0 -225.5 82t-89.5 223q0 139 89.5 220t225.5 81q135 0 223.5 -81t88.5 -220q0 -141 -88.5 -223t-223.5 -82zM401 1016q82 0 130.5 47.5t48.5 128.5t-48.5 127.5t-130.5 46.5q-83 0 -131.5 -47t-48.5 -127q0 -82 48.5 -129t131.5 -47z" />
    <glyph glyph-name="uni00B2" unicode="&#xb2;" horiz-adv-x="1071" 
d="M109 410v127q112 66 187 111t153 94.5t126 83.5t95.5 72t73 67t46.5 62t29 63.5t8 64.5q0 106 -77.5 161.5t-223.5 55.5q-118 0 -194.5 -50.5t-102.5 -145.5l-129 26q32 145 141.5 222t284.5 77q209 0 325 -87.5t116 -250.5q0 -67 -25.5 -128t-70 -115t-127 -117.5
t-173.5 -122t-233 -141.5h612v-129h-841z" />
    <glyph glyph-name="uni00B3" unicode="&#xb3;" horiz-adv-x="1044" 
d="M514 393q-179 0 -295 79.5t-141 217.5l133 25q17 -93 95 -142t206 -49q295 0 295 195q0 102 -65 141t-226 39h-74v123h56q141 0 210.5 40.5t69.5 127.5q0 97 -64 138.5t-208 41.5q-107 0 -178.5 -44t-94.5 -126l-127 25q29 129 136.5 201.5t267.5 72.5q405 0 405 -299
q0 -87 -48.5 -150t-131.5 -83q211 -41 211 -260q0 -149 -114 -231.5t-318 -82.5z" />
    <glyph glyph-name="acute" unicode="&#xb4;" horiz-adv-x="878" 
d="M287 1317l170 346h157l-190 -346h-137z" />
    <glyph glyph-name="paragraph" unicode="&#xb6;" horiz-adv-x="589" 
d="M283 2v1116h-15q-65 0 -107 14t-62 41t-26.5 55.5t-6.5 69.5q0 86 46 135.5t169 49.5h149v-1481h-147z" />
    <glyph glyph-name="periodcentered" unicode="&#xb7;" horiz-adv-x="364" 
d="M182 532q-43 0 -71.5 27t-28.5 68q0 42 28.5 68t71.5 26q42 0 71.5 -26t29.5 -68q0 -41 -29.5 -68t-71.5 -27z" />
    <glyph glyph-name="cedilla" unicode="&#xb8;" horiz-adv-x="933" 
d="M213 -279l215 312h131l-178 -312h-168z" />
    <glyph glyph-name="uni00B9" unicode="&#xb9;" horiz-adv-x="485" 
d="M221 410v944h-180v129h317v-1073h-137z" />
    <glyph glyph-name="ordmasculine" unicode="&#xba;" horiz-adv-x="1298" 
d="M651 365q-87 0 -166.5 20.5t-150.5 65t-123 110t-82.5 162t-30.5 213.5q0 116 30.5 211.5t82.5 160.5t122.5 109.5t149 65t164.5 20.5t165 -20t150 -65t123.5 -110t83.5 -160.5t31 -211.5q0 -145 -46.5 -258t-125 -179.5t-174.5 -100t-203 -33.5zM651 508q177 0 282 114
t105 314q0 199 -106 311.5t-285 112.5t-284 -112.5t-105 -311.5q0 -201 106 -314.5t287 -113.5z" />
    <glyph glyph-name="guillemotright" unicode="&#xbb;" horiz-adv-x="1239" 
d="M78 92l450 483l-448 482h160l477 -482l-477 -483h-162zM518 92l451 483l-449 482h160l479 -482l-479 -483h-162z" />
    <glyph glyph-name="onequarter" unicode="&#xbc;" horiz-adv-x="1970" 
d="M217 410v944h-174v129h309v-1073h-135zM301 0l973 1483h147l-975 -1483h-145zM1655 0v223h-621v129l598 725h160v-729h129v-125h-129v-223h-137zM1178 348h477v572z" />
    <glyph glyph-name="onehalf" unicode="&#xbd;" horiz-adv-x="2234" 
d="M215 410v944h-174v129h311v-1073h-137zM309 0l973 1483h148l-973 -1483h-148zM1284 0v127q127 77 206 126t162 103.5t130 91.5t91.5 78t65.5 74.5t33.5 69.5t12.5 75q0 106 -75.5 162t-217.5 56q-114 0 -188.5 -51t-100.5 -146l-127 27q31 145 138.5 222t277.5 77
q204 0 317 -87.5t113 -250.5q0 -56 -15 -106t-50.5 -100t-81.5 -95t-120 -99.5t-152 -105t-192 -119.5h596v-129h-823z" />
    <glyph glyph-name="threequarters" unicode="&#xbe;" horiz-adv-x="2379" 
d="M508 393q-177 0 -291 79.5t-139 217.5l131 25q17 -93 94.5 -142t204.5 -49q289 0 289 195q0 102 -64 141t-223 39h-74v123h58q138 0 206 40.5t68 127.5q0 97 -63 138.5t-203 41.5q-107 0 -177 -44t-92 -126l-127 25q28 129 133.5 201.5t264.5 72.5q401 0 401 -299
q0 -86 -48 -149.5t-130 -83.5q207 -41 207 -260q0 -149 -112 -231.5t-314 -82.5zM752 0l972 1483h148l-973 -1483h-147zM2064 0v223h-620v129l598 725h160v-729h129v-125h-129v-223h-138zM1587 348h477v572z" />
    <glyph glyph-name="questiondown" unicode="&#xbf;" horiz-adv-x="1327" 
d="M715 1503q43 0 71.5 -27t28.5 -69t-28.5 -68t-71.5 -26q-42 0 -71.5 26t-29.5 68t29.5 69t71.5 27zM770 1151l18 -346q-267 6 -419 -82.5t-152 -251.5q0 -161 123 -249.5t348 -88.5q178 0 294.5 75.5t154.5 215.5l151 -23q-44 -198 -203 -307.5t-401 -109.5
q-292 0 -459.5 128.5t-167.5 352.5q0 196 155 320t421 141l18 225h119z" />
    <glyph glyph-name="Agrave" unicode="&#xc0;" horiz-adv-x="1411" 
d="M772 1612h-135l-193 346h158zM1255 0l-139 330h-819l-139 -330h-178l645 1483h161l646 -1483h-177zM356 469h701l-352 827z" />
    <glyph glyph-name="Aacute" unicode="&#xc1;" horiz-adv-x="1411" 
d="M965 1958l-191 -346h-137l170 346h158zM1255 0l-139 330h-819l-139 -330h-178l645 1483h161l646 -1483h-177zM356 469h701l-352 827z" />
    <glyph glyph-name="Acircumflex" unicode="&#xc2;" horiz-adv-x="1411" 
d="M707 1860l-246 -244h-154l314 340h170l315 -340h-156zM1255 0l-139 330h-819l-139 -330h-178l645 1483h161l646 -1483h-177zM356 469h701l-352 827z" />
    <glyph glyph-name="Atilde" unicode="&#xc3;" horiz-adv-x="1411" 
d="M1094 1720q-50 -56 -106.5 -82.5t-109 -27.5t-106.5 9t-105 23t-97.5 19.5t-90 -6.5t-76.5 -51l-86 88q46 54 99.5 79t105.5 24.5t105.5 -11t105.5 -23.5t100 -18.5t93.5 9.5t81.5 56zM1255 0l-139 330h-819l-139 -330h-178l645 1483h161l646 -1483h-177zM356 469h701
l-352 827z" />
    <glyph glyph-name="Adieresis" unicode="&#xc4;" horiz-adv-x="1411" 
d="M535 1638q-36 0 -61 26t-25 62q0 37 25 63t61 26q35 0 60.5 -26t25.5 -63q0 -35 -25.5 -61.5t-60.5 -26.5zM879 1638q-38 0 -63 26t-25 62q0 37 25 63t63 26q34 0 59 -26t25 -63q0 -35 -25 -61.5t-59 -26.5zM1255 0l-139 330h-819l-139 -330h-178l645 1483h161l646 -1483
h-177zM356 469h701l-352 827z" />
    <glyph glyph-name="Aring" unicode="&#xc5;" horiz-adv-x="1411" 
d="M707 1608q-101 0 -167.5 63t-66.5 164q0 99 66.5 161t167.5 62q102 0 166.5 -62t64.5 -161q0 -102 -64.5 -164.5t-166.5 -62.5zM707 1944q-53 0 -83 -29t-30 -80t31 -82t82 -31t80.5 31t29.5 82t-29.5 80t-80.5 29zM1255 0l-139 330h-819l-139 -330h-178l645 1483h161
l646 -1483h-177zM356 469h701l-352 827z" />
    <glyph glyph-name="AE" unicode="&#xc6;" horiz-adv-x="2033" 
d="M1931 1329h-772v-502h744v-147h-744v-526h772v-154h-938v330h-649l-229 -330h-185l1028 1483h973v-154zM440 469h553v799z" />
    <glyph glyph-name="Ccedilla" unicode="&#xc7;" horiz-adv-x="1546" 
d="M1452 479q-24 -98 -68 -178.5t-98.5 -135.5t-121.5 -95t-135.5 -61t-143.5 -29l-154 -259h-170l180 256q-101 8 -191 40t-170.5 93.5t-138.5 147t-92 208.5t-34 271q0 153 38.5 281t104 216t154 149t188 89.5t207.5 28.5q81 0 157.5 -15.5t153 -52.5t139 -92t114 -139.5
t79.5 -189.5l-162 -33q-50 177 -177 272t-304 95q-237 0 -379.5 -165t-142.5 -444q0 -282 140 -444t382 -162q180 0 307 99t176 282z" />
    <glyph glyph-name="Egrave" unicode="&#xc8;" horiz-adv-x="1216" 
d="M580 1604l-193 346h158l170 -346h-135zM160 0v1483h954v-154h-788v-502h751v-147h-751v-526h788v-154h-954z" />
    <glyph glyph-name="Eacute" unicode="&#xc9;" horiz-adv-x="1216" 
d="M582 1604l170 346h157l-190 -346h-137zM160 0v1483h954v-154h-788v-502h751v-147h-751v-526h788v-154h-954z" />
    <glyph glyph-name="Ecircumflex" unicode="&#xca;" horiz-adv-x="1216" 
d="M250 1610l313 340h170l316 -340h-156l-244 243l-246 -243h-153zM160 0v1483h954v-154h-788v-502h751v-147h-751v-526h788v-154h-954z" />
    <glyph glyph-name="Edieresis" unicode="&#xcb;" horiz-adv-x="1216" 
d="M477 1630q-36 0 -61 26t-25 62q0 37 24.5 62.5t61.5 25.5q35 0 60.5 -25.5t25.5 -62.5q0 -35 -25.5 -61.5t-60.5 -26.5zM821 1630q-38 0 -63 26t-25 62q0 37 25 62.5t63 25.5q34 0 59 -26t25 -62q0 -35 -25 -61.5t-59 -26.5zM160 0v1483h954v-154h-788v-502h751v-147
h-751v-526h788v-154h-954z" />
    <glyph glyph-name="Igrave" unicode="&#xcc;" horiz-adv-x="485" 
d="M174 1612l-192 346h157l170 -346h-135zM160 0v1483h166v-1483h-166z" />
    <glyph glyph-name="Iacute" unicode="&#xcd;" horiz-adv-x="485" 
d="M176 1612l170 346h158l-191 -346h-137zM160 0v1483h166v-1483h-166z" />
    <glyph glyph-name="Icircumflex" unicode="&#xce;" horiz-adv-x="485" 
d="M-156 1616l314 340h170l315 -340h-156l-243 244l-246 -244h-154zM160 0v1483h166v-1483h-166z" />
    <glyph glyph-name="Idieresis" unicode="&#xcf;" horiz-adv-x="485" 
d="M72 1638q-36 0 -61 26t-25 62q0 37 25 63t61 26q35 0 60.5 -26t25.5 -63q0 -35 -25.5 -61.5t-60.5 -26.5zM416 1638q-38 0 -63 26t-25 62q0 37 25 63t63 26q34 0 59 -26t25 -63q0 -35 -25 -61.5t-59 -26.5zM160 0v1483h166v-1483h-166z" />
    <glyph glyph-name="Eth" unicode="&#xd0;" horiz-adv-x="1523" 
d="M547 1483q450 0 651 -177.5t201 -564.5q0 -384 -201.5 -562.5t-650.5 -178.5h-354v690h-144v131h144v662h354zM551 154q361 0 521.5 138.5t160.5 450.5q0 311 -160.5 449.5t-521.5 138.5h-193v-510h355v-131h-355v-536h193z" />
    <glyph glyph-name="Ntilde" unicode="&#xd1;" horiz-adv-x="1536" 
d="M459 1597l-86 89q46 54 99.5 79t105 24.5t105.5 -11t106 -23.5t99.5 -18.5t93 9.5t81.5 56l86 -88q-50 -56 -106.5 -83t-109 -27.5t-106.5 9t-105 23t-97 19.5t-89.5 -7t-76.5 -51zM160 0v1483h174l876 -1235v1235h164v-1483h-168l-880 1241v-1241h-166z" />
    <glyph glyph-name="Ograve" unicode="&#xd2;" horiz-adv-x="1622" 
d="M741 1612l-192 346h158l170 -346h-136zM809 -23q-113 0 -214 27t-189.5 86.5t-152.5 147t-101 216t-37 285.5q0 154 37.5 281t102 215t153.5 148t190.5 88t214.5 28q139 0 261.5 -45.5t220.5 -135.5t155 -239t57 -340q0 -157 -37.5 -285.5t-102 -216t-153.5 -147
t-190.5 -86.5t-214.5 -27zM809 131q250 0 391 159.5t141 448.5q0 283 -142 445t-386 162q-248 0 -391 -161t-143 -446q0 -289 140 -448.5t390 -159.5z" />
    <glyph glyph-name="Oacute" unicode="&#xd3;" horiz-adv-x="1622" 
d="M743 1612l170 346h158l-190 -346h-138zM809 -23q-113 0 -214 27t-189.5 86.5t-152.5 147t-101 216t-37 285.5q0 154 37.5 281t102 215t153.5 148t190.5 88t214.5 28q139 0 261.5 -45.5t220.5 -135.5t155 -239t57 -340q0 -157 -37.5 -285.5t-102 -216t-153.5 -147
t-190.5 -86.5t-214.5 -27zM809 131q250 0 391 159.5t141 448.5q0 283 -142 445t-386 162q-248 0 -391 -161t-143 -446q0 -289 140 -448.5t390 -159.5z" />
    <glyph glyph-name="Ocircumflex" unicode="&#xd4;" horiz-adv-x="1622" 
d="M412 1616l313 340h170l315 -340h-155l-244 244l-246 -244h-153zM809 -23q-113 0 -214 27t-189.5 86.5t-152.5 147t-101 216t-37 285.5q0 154 37.5 281t102 215t153.5 148t190.5 88t214.5 28q139 0 261.5 -45.5t220.5 -135.5t155 -239t57 -340q0 -157 -37.5 -285.5
t-102 -216t-153.5 -147t-190.5 -86.5t-214.5 -27zM809 131q250 0 391 159.5t141 448.5q0 283 -142 445t-386 162q-248 0 -391 -161t-143 -446q0 -289 140 -448.5t390 -159.5z" />
    <glyph glyph-name="Otilde" unicode="&#xd5;" horiz-adv-x="1622" 
d="M508 1604l-86 88q46 54 99.5 79t105 24.5t105.5 -11t106 -23.5t99.5 -18.5t93 9.5t81.5 56l86 -88q-50 -56 -106.5 -82.5t-109 -27.5t-106.5 9t-105 23t-97 19.5t-89.5 -6.5t-76.5 -51zM809 -23q-113 0 -214 27t-189.5 86.5t-152.5 147t-101 216t-37 285.5
q0 154 37.5 281t102 215t153.5 148t190.5 88t214.5 28q139 0 261.5 -45.5t220.5 -135.5t155 -239t57 -340q0 -157 -37.5 -285.5t-102 -216t-153.5 -147t-190.5 -86.5t-214.5 -27zM809 131q250 0 391 159.5t141 448.5q0 283 -142 445t-386 162q-248 0 -391 -161t-143 -446
q0 -289 140 -448.5t390 -159.5z" />
    <glyph glyph-name="Odieresis" unicode="&#xd6;" horiz-adv-x="1622" 
d="M639 1638q-36 0 -61 26t-25 62q0 37 25 63t61 26q35 0 60.5 -26t25.5 -63q0 -35 -25.5 -61.5t-60.5 -26.5zM983 1638q-38 0 -63 26t-25 62q0 37 25 63t63 26q34 0 59 -26t25 -63q0 -35 -25 -61.5t-59 -26.5zM809 -23q-113 0 -214 27t-189.5 86.5t-152.5 147t-101 216
t-37 285.5q0 154 37.5 281t102 215t153.5 148t190.5 88t214.5 28q139 0 261.5 -45.5t220.5 -135.5t155 -239t57 -340q0 -157 -37.5 -285.5t-102 -216t-153.5 -147t-190.5 -86.5t-214.5 -27zM809 131q250 0 391 159.5t141 448.5q0 283 -142 445t-386 162q-248 0 -391 -161
t-143 -446q0 -289 140 -448.5t390 -159.5z" />
    <glyph glyph-name="multiply" unicode="&#xd7;" horiz-adv-x="1056" 
d="M172 281l-98 98l358 366l-358 367l98 98l356 -366l359 368l96 -98l-356 -369l356 -366l-96 -98l-359 366z" />
    <glyph glyph-name="Oslash" unicode="&#xd8;" horiz-adv-x="1622" 
d="M1233 1372q129 -95 201.5 -254t72.5 -379q0 -157 -37.5 -285.5t-102 -216t-153.5 -147t-190.5 -86.5t-214.5 -27q-161 0 -297 56l-84 -154h-164l121 225q-270 198 -270 635q0 154 37.5 281t102 215t153.5 148t190.5 88t214.5 28q161 0 293 -57l82 151h164zM279 739
q0 -333 184 -491l569 1057q-100 41 -219 41q-248 0 -391 -161t-143 -446zM809 131q250 0 391 159.5t141 448.5q0 327 -186 490l-569 -1057q100 -41 223 -41z" />
    <glyph glyph-name="Ugrave" unicode="&#xd9;" horiz-adv-x="1490" 
d="M678 1612l-193 346h158l170 -346h-135zM745 -20q-303 0 -454.5 175.5t-151.5 540.5v787h166v-787q0 -298 106 -430.5t334 -132.5q227 0 334 133t107 430v787h166v-787q0 -716 -607 -716z" />
    <glyph glyph-name="Uacute" unicode="&#xda;" horiz-adv-x="1490" 
d="M678 1612l170 346h158l-191 -346h-137zM745 -20q-303 0 -454.5 175.5t-151.5 540.5v787h166v-787q0 -298 106 -430.5t334 -132.5q227 0 334 133t107 430v787h166v-787q0 -716 -607 -716z" />
    <glyph glyph-name="Ucircumflex" unicode="&#xdb;" horiz-adv-x="1490" 
d="M346 1616l313 340h170l316 -340h-156l-244 244l-245 -244h-154zM745 -20q-303 0 -454.5 175.5t-151.5 540.5v787h166v-787q0 -298 106 -430.5t334 -132.5q227 0 334 133t107 430v787h166v-787q0 -716 -607 -716z" />
    <glyph glyph-name="Udieresis" unicode="&#xdc;" horiz-adv-x="1490" 
d="M575 1638q-36 0 -61 26t-25 62q0 37 25 63t61 26q35 0 61 -26t26 -63q0 -35 -26 -61.5t-61 -26.5zM920 1638q-38 0 -63.5 26t-25.5 62q0 37 25.5 63t63.5 26q34 0 59 -26t25 -63q0 -35 -25 -61.5t-59 -26.5zM745 -20q-303 0 -454.5 175.5t-151.5 540.5v787h166v-787
q0 -298 106 -430.5t334 -132.5q227 0 334 133t107 430v787h166v-787q0 -716 -607 -716z" />
    <glyph glyph-name="Yacute" unicode="&#xdd;" horiz-adv-x="1372" 
d="M621 1612l170 346h157l-190 -346h-137zM600 0v424l-620 1059h190l512 -887l518 887h193l-627 -1059v-424h-166z" />
    <glyph glyph-name="Thorn" unicode="&#xde;" horiz-adv-x="1341" 
d="M160 0v1483h166v-232h266q139 0 243.5 -14.5t188.5 -49.5t137 -92.5t81 -143t28 -201.5q0 -115 -28 -200.5t-81 -143t-137 -92t-188.5 -49.5t-243.5 -15h-266v-250h-166zM326 406h280q103 0 176 8.5t137 31t102 61t59.5 100t21.5 147.5q0 105 -31 174t-97.5 106
t-152.5 51.5t-215 14.5h-280v-694z" />
    <glyph glyph-name="germandbls" unicode="&#xdf;" horiz-adv-x="1357" 
d="M182 0v1036h-145v135h145q0 200 118 311t345 111q214 0 335.5 -77t121.5 -213q0 -93 -51.5 -154t-143.5 -76q169 -35 265 -168t96 -330q0 -269 -139.5 -426t-378.5 -157q-143 0 -267 28l31 138q92 -25 205 -25q182 -2 284.5 119t102.5 336q0 212 -130.5 320t-379.5 102
v135h94q132 0 194 36t62 111q0 80 -73.5 122t-215.5 42q-158 0 -234.5 -77.5t-76.5 -237.5v-1141h-164z" />
    <glyph glyph-name="agrave" unicode="&#xe0;" horiz-adv-x="1413" 
d="M629 1317l-193 346h158l170 -346h-135zM651 -27q-89 0 -169.5 23.5t-151 73t-122 120.5t-81 173t-29.5 223q0 150 45 268t122.5 191t175 111t208.5 38q154 0 274.5 -75.5t174.5 -217.5v270h162v-1169h-162v262q-53 -141 -173 -216t-274 -75zM682 117q190 0 305 127
t115 342q0 214 -116 339.5t-308 125.5q-191 0 -305.5 -125t-114.5 -340q0 -217 115.5 -343t308.5 -126z" />
    <glyph glyph-name="aacute" unicode="&#xe1;" horiz-adv-x="1413" 
d="M631 1317l170 346h157l-190 -346h-137zM651 -27q-89 0 -169.5 23.5t-151 73t-122 120.5t-81 173t-29.5 223q0 150 45 268t122.5 191t175 111t208.5 38q154 0 274.5 -75.5t174.5 -217.5v270h162v-1169h-162v262q-53 -141 -173 -216t-274 -75zM682 117q190 0 305 127
t115 342q0 214 -116 339.5t-308 125.5q-191 0 -305.5 -125t-114.5 -340q0 -217 115.5 -343t308.5 -126z" />
    <glyph glyph-name="acircumflex" unicode="&#xe2;" horiz-adv-x="1413" 
d="M299 1321l313 340h170l316 -340h-156l-244 244l-245 -244h-154zM651 -27q-89 0 -169.5 23.5t-151 73t-122 120.5t-81 173t-29.5 223q0 150 45 268t122.5 191t175 111t208.5 38q154 0 274.5 -75.5t174.5 -217.5v270h162v-1169h-162v262q-53 -141 -173 -216t-274 -75z
M682 117q190 0 305 127t115 342q0 214 -116 339.5t-308 125.5q-191 0 -305.5 -125t-114.5 -340q0 -217 115.5 -343t308.5 -126z" />
    <glyph glyph-name="atilde" unicode="&#xe3;" horiz-adv-x="1413" 
d="M395 1309l-86 88q46 54 99.5 79t105 24.5t105.5 -11t106 -23.5t99.5 -18.5t93 9.5t81.5 56l86 -88q-50 -56 -106.5 -82.5t-109 -27.5t-106.5 9t-105 23t-97 19.5t-89.5 -6.5t-76.5 -51zM651 -27q-89 0 -169.5 23.5t-151 73t-122 120.5t-81 173t-29.5 223q0 150 45 268
t122.5 191t175 111t208.5 38q154 0 274.5 -75.5t174.5 -217.5v270h162v-1169h-162v262q-53 -141 -173 -216t-274 -75zM682 117q190 0 305 127t115 342q0 214 -116 339.5t-308 125.5q-191 0 -305.5 -125t-114.5 -340q0 -217 115.5 -343t308.5 -126z" />
    <glyph glyph-name="adieresis" unicode="&#xe4;" horiz-adv-x="1413" 
d="M526 1343q-36 0 -61 26.5t-25 62.5q0 37 24.5 62.5t61.5 25.5q35 0 60.5 -25.5t25.5 -62.5q0 -36 -25.5 -62.5t-60.5 -26.5zM870 1343q-37 0 -62.5 26.5t-25.5 62.5q0 37 25 62.5t63 25.5q34 0 59 -26t25 -62q0 -35 -25 -62t-59 -27zM651 -27q-89 0 -169.5 23.5t-151 73
t-122 120.5t-81 173t-29.5 223q0 150 45 268t122.5 191t175 111t208.5 38q154 0 274.5 -75.5t174.5 -217.5v270h162v-1169h-162v262q-53 -141 -173 -216t-274 -75zM682 117q190 0 305 127t115 342q0 214 -116 339.5t-308 125.5q-191 0 -305.5 -125t-114.5 -340
q0 -217 115.5 -343t308.5 -126z" />
    <glyph glyph-name="aring" unicode="&#xe5;" horiz-adv-x="1413" 
d="M698 1313q-101 0 -167 63t-66 164q0 99 66 161t167 62q102 0 167 -62t65 -161q0 -102 -65 -164.5t-167 -62.5zM698 1427q51 0 81 31t30 82t-30 80t-81 29q-52 0 -82 -29t-30 -80t30.5 -82t81.5 -31zM651 -27q-89 0 -169.5 23.5t-151 73t-122 120.5t-81 173t-29.5 223
q0 150 45 268t122.5 191t175 111t208.5 38q154 0 274.5 -75.5t174.5 -217.5v270h162v-1169h-162v262q-53 -141 -173 -216t-274 -75zM682 117q190 0 305 127t115 342q0 214 -116 339.5t-308 125.5q-191 0 -305.5 -125t-114.5 -340q0 -217 115.5 -343t308.5 -126z" />
    <glyph glyph-name="ae" unicode="&#xe6;" horiz-adv-x="2347" 
d="M651 -27q-89 0 -169.5 23.5t-151 73t-122 120.5t-81 173t-29.5 223q0 150 45 268t122.5 191t175 111t208.5 38q154 0 274.5 -75.5t174.5 -217.5v270h162v-243q60 127 173 196.5t273 69.5q263 0 410.5 -175t130.5 -460h-985q3 -207 121 -323.5t315 -116.5q275 0 379 203
l149 -33q-146 -312 -508 -312q-166 0 -281 68.5t-177 194.5v-238h-162v262q-53 -141 -173 -216t-274 -75zM1268 690h823q-9 170 -117 269.5t-288 99.5q-171 0 -283.5 -98.5t-134.5 -270.5zM682 117q190 0 305 127t115 342q0 214 -116 339.5t-308 125.5q-191 0 -305.5 -125
t-114.5 -340q0 -217 115.5 -343t308.5 -126z" />
    <glyph glyph-name="ccedilla" unicode="&#xe7;" horiz-adv-x="1302" 
d="M674 121q137 0 237.5 68.5t149.5 195.5l141 -35q-54 -164 -176.5 -260.5t-296.5 -109.5l-154 -259h-169l184 261q-220 29 -356 195t-136 409q0 266 161 437t411 171q404 0 534 -373l-141 -35q-105 265 -389 265q-183 0 -299.5 -130t-116.5 -335t116.5 -335t299.5 -130z
" />
    <glyph glyph-name="egrave" unicode="&#xe8;" horiz-adv-x="1343" 
d="M604 1317l-192 346h157l170 -346h-135zM692 -23q-270 0 -432 166.5t-162 442.5q0 270 162.5 439t421.5 169q271 0 425.5 -176.5t135.5 -462.5h-985q4 -204 121 -320t315 -116q268 0 381 203l148 -33q-154 -312 -531 -312zM264 690h826q-11 170 -119 269.5t-287 99.5
q-173 0 -285.5 -98.5t-134.5 -270.5z" />
    <glyph glyph-name="eacute" unicode="&#xe9;" horiz-adv-x="1343" 
d="M606 1317l170 346h158l-191 -346h-137zM692 -23q-270 0 -432 166.5t-162 442.5q0 270 162.5 439t421.5 169q271 0 425.5 -176.5t135.5 -462.5h-985q4 -204 121 -320t315 -116q268 0 381 203l148 -33q-154 -312 -531 -312zM264 690h826q-11 170 -119 269.5t-287 99.5
q-173 0 -285.5 -98.5t-134.5 -270.5z" />
    <glyph glyph-name="ecircumflex" unicode="&#xea;" horiz-adv-x="1343" 
d="M274 1321l314 340h170l315 -340h-155l-244 244l-246 -244h-154zM692 -23q-270 0 -432 166.5t-162 442.5q0 270 162.5 439t421.5 169q271 0 425.5 -176.5t135.5 -462.5h-985q4 -204 121 -320t315 -116q268 0 381 203l148 -33q-154 -312 -531 -312zM264 690h826
q-11 170 -119 269.5t-287 99.5q-173 0 -285.5 -98.5t-134.5 -270.5z" />
    <glyph glyph-name="edieresis" unicode="&#xeb;" horiz-adv-x="1343" 
d="M502 1343q-36 0 -61 26.5t-25 62.5q0 37 24.5 62.5t61.5 25.5q35 0 60.5 -25.5t25.5 -62.5q0 -36 -25.5 -62.5t-60.5 -26.5zM846 1343q-37 0 -62.5 26.5t-25.5 62.5q0 37 25 62.5t63 25.5q34 0 59 -26t25 -62q0 -35 -25 -62t-59 -27zM692 -23q-270 0 -432 166.5
t-162 442.5q0 270 162.5 439t421.5 169q271 0 425.5 -176.5t135.5 -462.5h-985q4 -204 121 -320t315 -116q268 0 381 203l148 -33q-154 -312 -531 -312zM264 690h826q-11 170 -119 269.5t-287 99.5q-173 0 -285.5 -98.5t-134.5 -270.5z" />
    <glyph glyph-name="igrave" unicode="&#xec;" horiz-adv-x="430" 
d="M147 1317l-188 346h154l168 -346h-134zM135 0v1171h160v-1171h-160z" />
    <glyph glyph-name="iacute" unicode="&#xed;" horiz-adv-x="430" 
d="M150 1317l165 346h154l-186 -346h-133zM135 0v1171h160v-1171h-160z" />
    <glyph glyph-name="icircumflex" unicode="&#xee;" horiz-adv-x="430" 
d="M-174 1321l307 340h166l309 -340h-153l-238 244l-240 -244h-151zM135 0v1171h160v-1171h-160z" />
    <glyph glyph-name="idieresis" unicode="&#xef;" horiz-adv-x="430" 
d="M47 1343q-34 0 -59 27t-25 62q0 36 25 62t59 26q35 0 60.5 -25.5t25.5 -62.5q0 -36 -25.5 -62.5t-60.5 -26.5zM383 1343q-35 0 -60.5 26.5t-25.5 62.5q0 37 25.5 62.5t60.5 25.5t59.5 -25.5t24.5 -62.5q0 -36 -24.5 -62.5t-59.5 -26.5zM135 0v1171h160v-1171h-160z" />
    <glyph glyph-name="eth" unicode="&#xf0;" horiz-adv-x="1357" 
d="M883 1284q191 -186 284 -351t93 -347q0 -124 -32 -227t-87 -173.5t-129.5 -119t-158 -71t-173.5 -22.5q-91 0 -174.5 22.5t-158.5 71t-130 119t-87 173.5t-32 227t35 226t93.5 168.5t134.5 111.5t159 60.5t165.5 9t154.5 -35.5q-90 94 -156 158h-379v117h250
q-93 77 -203 151h228q93 -75 178 -151h323v-117h-198zM680 117q191 0 305.5 126.5t114.5 342.5q0 214 -115.5 339.5t-308.5 125.5q-189 0 -303.5 -125t-114.5 -340q0 -217 115 -343t307 -126z" />
    <glyph glyph-name="ntilde" unicode="&#xf1;" horiz-adv-x="1298" 
d="M346 1309l-86 88q46 54 99.5 79t105 24.5t105.5 -11t106 -23.5t99.5 -18.5t93 9.5t81.5 56l86 -88q-50 -56 -106.5 -82.5t-109 -27.5t-106.5 9t-105 23t-97 19.5t-89.5 -6.5t-76.5 -51zM139 0v1171h160v-249q41 125 143.5 197.5t257.5 72.5q488 0 488 -565v-627h-160v616
q0 219 -89 325t-277 106q-363 0 -363 -465v-582h-160z" />
    <glyph glyph-name="ograve" unicode="&#xf2;" horiz-adv-x="1359" 
d="M612 1317l-192 346h158l170 -346h-136zM682 -27q-91 0 -175 22.5t-159 71t-130 119t-87.5 173.5t-32.5 227q0 123 32.5 225t87.5 172t129.5 118t157.5 70.5t173 22.5t174 -22.5t159 -70.5t130.5 -118t88 -172t32.5 -225q0 -124 -32.5 -227t-87.5 -173.5t-129.5 -119
t-157.5 -71t-173 -22.5zM682 117q190 0 305 127t115 342q0 214 -116 339.5t-308 125.5q-191 0 -305.5 -125t-114.5 -340q0 -217 115.5 -343t308.5 -126z" />
    <glyph glyph-name="oacute" unicode="&#xf3;" horiz-adv-x="1359" 
d="M614 1317l170 346h158l-190 -346h-138zM682 -27q-91 0 -175 22.5t-159 71t-130 119t-87.5 173.5t-32.5 227q0 123 32.5 225t87.5 172t129.5 118t157.5 70.5t173 22.5t174 -22.5t159 -70.5t130.5 -118t88 -172t32.5 -225q0 -124 -32.5 -227t-87.5 -173.5t-129.5 -119
t-157.5 -71t-173 -22.5zM682 117q190 0 305 127t115 342q0 214 -116 339.5t-308 125.5q-191 0 -305.5 -125t-114.5 -340q0 -217 115.5 -343t308.5 -126z" />
    <glyph glyph-name="ocircumflex" unicode="&#xf4;" horiz-adv-x="1359" 
d="M283 1313l313 338h170l315 -338h-155l-244 241l-246 -241h-153zM682 -27q-91 0 -175 22.5t-159 71t-130 119t-87.5 173.5t-32.5 227q0 123 32.5 225t87.5 172t129.5 118t157.5 70.5t173 22.5t174 -22.5t159 -70.5t130.5 -118t88 -172t32.5 -225q0 -124 -32.5 -227
t-87.5 -173.5t-129.5 -119t-157.5 -71t-173 -22.5zM682 117q190 0 305 127t115 342q0 214 -116 339.5t-308 125.5q-191 0 -305.5 -125t-114.5 -340q0 -217 115.5 -343t308.5 -126z" />
    <glyph glyph-name="otilde" unicode="&#xf5;" horiz-adv-x="1359" 
d="M379 1309l-86 88q46 54 99.5 79t105 24.5t105.5 -11t106 -23.5t99.5 -18.5t93 9.5t81.5 56l86 -88q-50 -56 -106.5 -82.5t-109 -27.5t-106.5 9t-105 23t-97 19.5t-89.5 -6.5t-76.5 -51zM682 -27q-91 0 -175 22.5t-159 71t-130 119t-87.5 173.5t-32.5 227q0 123 32.5 225
t87.5 172t129.5 118t157.5 70.5t173 22.5t174 -22.5t159 -70.5t130.5 -118t88 -172t32.5 -225q0 -124 -32.5 -227t-87.5 -173.5t-129.5 -119t-157.5 -71t-173 -22.5zM682 117q190 0 305 127t115 342q0 214 -116 339.5t-308 125.5q-191 0 -305.5 -125t-114.5 -340
q0 -217 115.5 -343t308.5 -126z" />
    <glyph glyph-name="odieresis" unicode="&#xf6;" horiz-adv-x="1359" 
d="M510 1343q-36 0 -61 26.5t-25 62.5q0 37 24.5 62.5t61.5 25.5q35 0 60.5 -25.5t25.5 -62.5q0 -36 -25.5 -62.5t-60.5 -26.5zM854 1343q-37 0 -62.5 26.5t-25.5 62.5q0 37 25 62.5t63 25.5q34 0 59 -26t25 -62q0 -35 -25 -62t-59 -27zM682 -27q-91 0 -175 22.5t-159 71
t-130 119t-87.5 173.5t-32.5 227q0 123 32.5 225t87.5 172t129.5 118t157.5 70.5t173 22.5t174 -22.5t159 -70.5t130.5 -118t88 -172t32.5 -225q0 -124 -32.5 -227t-87.5 -173.5t-129.5 -119t-157.5 -71t-173 -22.5zM682 117q190 0 305 127t115 342q0 214 -116 339.5
t-308 125.5q-191 0 -305.5 -125t-114.5 -340q0 -217 115.5 -343t308.5 -126z" />
    <glyph glyph-name="divide" unicode="&#xf7;" horiz-adv-x="1273" 
d="M637 1059q-42 0 -70 26t-28 68t28 68t70 26t71 -26t29 -68t-29 -68t-71 -26zM92 682v145h1088v-145h-1088zM637 262q-42 0 -70 26t-28 68t28 68.5t70 26.5t71 -26.5t29 -68.5t-29 -68t-71 -26z" />
    <glyph glyph-name="oslash" unicode="&#xf8;" horiz-adv-x="1359" 
d="M1032 1087q230 -167 230 -501q0 -124 -32.5 -227t-87.5 -173.5t-129.5 -119t-157.5 -71t-173 -22.5q-127 0 -229 41l-76 -141h-164l113 209q-106 76 -167 203t-61 301q0 123 32.5 225t87.5 172t129.5 118t157.5 70.5t173 22.5q124 0 229 -41l66 123h162zM258 586
q0 -244 141 -369l437 807q-71 27 -158 27q-191 0 -305.5 -125t-114.5 -340zM682 117q190 0 305 127t115 342q0 236 -144 364l-436 -807q71 -26 160 -26z" />
    <glyph glyph-name="ugrave" unicode="&#xf9;" horiz-adv-x="1310" 
d="M588 1317l-193 346h158l170 -346h-135zM598 -20q-487 0 -487 563v628h159v-618q0 -218 88 -323t277 -105q362 0 362 465v581h160v-1171h-160v250q-40 -124 -142.5 -197t-256.5 -73z" />
    <glyph glyph-name="uacute" unicode="&#xfa;" horiz-adv-x="1310" 
d="M590 1317l170 346h158l-191 -346h-137zM598 -20q-487 0 -487 563v628h159v-618q0 -218 88 -323t277 -105q362 0 362 465v581h160v-1171h-160v250q-40 -124 -142.5 -197t-256.5 -73z" />
    <glyph glyph-name="ucircumflex" unicode="&#xfb;" horiz-adv-x="1310" 
d="M258 1321l313 340h170l316 -340h-156l-244 244l-245 -244h-154zM598 -20q-487 0 -487 563v628h159v-618q0 -218 88 -323t277 -105q362 0 362 465v581h160v-1171h-160v250q-40 -124 -142.5 -197t-256.5 -73z" />
    <glyph glyph-name="udieresis" unicode="&#xfc;" horiz-adv-x="1310" 
d="M485 1343q-36 0 -61 26.5t-25 62.5q0 37 24.5 62.5t61.5 25.5q35 0 60.5 -25.5t25.5 -62.5q0 -36 -25.5 -62.5t-60.5 -26.5zM829 1343q-37 0 -62.5 26.5t-25.5 62.5q0 37 25 62.5t63 25.5q34 0 59 -26t25 -62q0 -35 -25 -62t-59 -27zM598 -20q-487 0 -487 563v628h159
v-618q0 -218 88 -323t277 -105q362 0 362 465v581h160v-1171h-160v250q-40 -124 -142.5 -197t-256.5 -73z" />
    <glyph glyph-name="yacute" unicode="&#xfd;" horiz-adv-x="1245" 
d="M575 1317l170 346h158l-190 -346h-138zM360 -379l177 389l-525 1161h178l433 -987l432 987h178l-698 -1550h-175z" />
    <glyph glyph-name="thorn" unicode="&#xfe;" horiz-adv-x="1398" 
d="M139 -379v1931h160v-647q53 137 173 212t276 75q86 0 165 -22t150 -70t123.5 -118t83 -171.5t30.5 -224.5q0 -153 -46 -273t-124.5 -192t-175 -109t-204.5 -37q-158 0 -278 76t-173 215v-645h-160zM721 117q190 0 304 126.5t114 342.5q0 214 -115 339.5t-307 125.5
q-191 0 -305.5 -125t-114.5 -340q0 -217 115.5 -343t308.5 -126z" />
    <glyph glyph-name="ydieresis" unicode="&#xff;" horiz-adv-x="1245" 
d="M473 1343q-36 0 -61 26.5t-25 62.5q0 37 24.5 62.5t61.5 25.5q35 0 60.5 -25.5t25.5 -62.5q0 -36 -25.5 -62.5t-60.5 -26.5zM817 1343q-37 0 -62.5 26.5t-25.5 62.5q0 37 25 62.5t63 25.5q34 0 59 -26t25 -62q0 -35 -25 -62t-59 -27zM360 -379l177 389l-525 1161h178
l433 -987l432 987h178l-698 -1550h-175z" />
    <glyph glyph-name="Amacron" unicode="&#x100;" horiz-adv-x="1411" 
d="M1028 1759v-123h-645v123h645zM1255 0l-139 330h-819l-139 -330h-178l645 1483h161l646 -1483h-177zM356 469h701l-352 827z" />
    <glyph glyph-name="amacron" unicode="&#x101;" horiz-adv-x="1413" 
d="M375 1341v123h645v-123h-645zM651 -27q-89 0 -169.5 23.5t-151 73t-122 120.5t-81 173t-29.5 223q0 150 45 268t122.5 191t175 111t208.5 38q154 0 274.5 -75.5t174.5 -217.5v270h162v-1169h-162v262q-53 -141 -173 -216t-274 -75zM682 117q190 0 305 127t115 342
q0 214 -116 339.5t-308 125.5q-191 0 -305.5 -125t-114.5 -340q0 -217 115.5 -343t308.5 -126z" />
    <glyph glyph-name="Abreve" unicode="&#x102;" horiz-adv-x="1411" 
d="M709 1614q-168 0 -266.5 89.5t-98.5 248.5h129q0 -46 11.5 -83t37 -69t73.5 -49.5t114 -17.5q233 0 233 219h129q0 -159 -98 -248.5t-264 -89.5zM1255 0l-139 330h-819l-139 -330h-178l645 1483h161l646 -1483h-177zM356 469h701l-352 827z" />
    <glyph glyph-name="abreve" unicode="&#x103;" horiz-adv-x="1413" 
d="M700 1319q-168 0 -266 89.5t-98 248.5h129q0 -219 235 -219q234 0 234 219h129q0 -159 -98.5 -248.5t-264.5 -89.5zM651 -27q-89 0 -169.5 23.5t-151 73t-122 120.5t-81 173t-29.5 223q0 150 45 268t122.5 191t175 111t208.5 38q154 0 274.5 -75.5t174.5 -217.5v270h162
v-1169h-162v262q-53 -141 -173 -216t-274 -75zM682 117q190 0 305 127t115 342q0 214 -116 339.5t-308 125.5q-191 0 -305.5 -125t-114.5 -340q0 -217 115.5 -343t308.5 -126z" />
    <glyph glyph-name="Aogonek" unicode="&#x104;" horiz-adv-x="1411" 
d="M1270 -223q0 -79 54 -111t140 -16v-119q-48 -10 -78 -10q-116 0 -182.5 62.5t-66.5 164.5q0 59 35.5 127t109.5 125h-27l-139 330h-819l-139 -330h-178l645 1483h161l644 -1477l18 -6q-83 -39 -130.5 -100t-47.5 -123zM356 469h701l-352 827z" />
    <glyph glyph-name="aogonek" unicode="&#x105;" horiz-adv-x="1413" 
d="M1081 -221q0 -79 54.5 -111t140.5 -16v-119q-48 -10 -78 -10q-116 0 -183 62.5t-67 164.5q0 59 37 129t113 127v258q-53 -141 -173 -216t-274 -75q-89 0 -169.5 23.5t-151 73t-122 120.5t-81 173t-29.5 223q0 150 45 268t122.5 191t175 111t208.5 38q154 0 274.5 -75.5
t174.5 -217.5v270h162v-1169q-83 -39 -131 -100.5t-48 -122.5zM682 117q190 0 305 127t115 342q0 214 -116 339.5t-308 125.5q-191 0 -305.5 -125t-114.5 -340q0 -217 115.5 -343t308.5 -126z" />
    <glyph glyph-name="Cacute" unicode="&#x106;" horiz-adv-x="1546" 
d="M709 1612l170 346h157l-190 -346h-137zM807 -25q-108 0 -207 27t-188.5 86t-154.5 146.5t-103.5 216.5t-38.5 286q0 153 38.5 281t104 216t154 149t188 89.5t207.5 28.5q81 0 157.5 -15.5t153 -52.5t139 -92t114 -139.5t79.5 -189.5l-162 -33q-50 177 -177 272t-304 95
q-237 0 -379.5 -165t-142.5 -444q0 -282 140 -444t382 -162q180 0 307 99t176 282l162 -33q-27 -108 -77.5 -195t-113.5 -144t-140.5 -95t-154.5 -54t-159 -16z" />
    <glyph glyph-name="cacute" unicode="&#x107;" horiz-adv-x="1302" 
d="M604 1317l170 346h158l-191 -346h-137zM670 -23q-250 0 -411 171.5t-161 437.5t161 437t411 171q404 0 534 -373l-141 -35q-105 265 -389 265q-183 0 -299.5 -130t-116.5 -335t116.5 -335t299.5 -130q137 0 237.5 68.5t149.5 195.5l141 -35q-59 -178 -197 -275.5
t-335 -97.5z" />
    <glyph glyph-name="Cdotaccent" unicode="&#x10a;" horiz-adv-x="1546" 
d="M776 1638q-36 0 -62 26t-26 62q0 37 25.5 63t62.5 26q35 0 60.5 -26t25.5 -63q0 -35 -25.5 -61.5t-60.5 -26.5zM807 -25q-108 0 -207 27t-188.5 86t-154.5 146.5t-103.5 216.5t-38.5 286q0 153 38.5 281t104 216t154 149t188 89.5t207.5 28.5q81 0 157.5 -15.5t153 -52.5
t139 -92t114 -139.5t79.5 -189.5l-162 -33q-50 177 -177 272t-304 95q-237 0 -379.5 -165t-142.5 -444q0 -282 140 -444t382 -162q180 0 307 99t176 282l162 -33q-27 -108 -77.5 -195t-113.5 -144t-140.5 -95t-154.5 -54t-159 -16z" />
    <glyph glyph-name="cdotaccent" unicode="&#x10b;" horiz-adv-x="1302" 
d="M672 1343q-36 0 -62 26.5t-26 62.5q0 37 25.5 62.5t62.5 25.5q35 0 60.5 -25.5t25.5 -62.5q0 -36 -25.5 -62.5t-60.5 -26.5zM670 -23q-250 0 -411 171.5t-161 437.5t161 437t411 171q404 0 534 -373l-141 -35q-105 265 -389 265q-183 0 -299.5 -130t-116.5 -335
t116.5 -335t299.5 -130q137 0 237.5 68.5t149.5 195.5l141 -35q-59 -178 -197 -275.5t-335 -97.5z" />
    <glyph glyph-name="Ccaron" unicode="&#x10c;" horiz-adv-x="1546" 
d="M686 1602l-313 340h153l246 -242l244 242h155l-315 -340h-170zM807 -25q-108 0 -207 27t-188.5 86t-154.5 146.5t-103.5 216.5t-38.5 286q0 153 38.5 281t104 216t154 149t188 89.5t207.5 28.5q81 0 157.5 -15.5t153 -52.5t139 -92t114 -139.5t79.5 -189.5l-162 -33
q-50 177 -177 272t-304 95q-237 0 -379.5 -165t-142.5 -444q0 -282 140 -444t382 -162q180 0 307 99t176 282l162 -33q-27 -108 -77.5 -195t-113.5 -144t-140.5 -95t-154.5 -54t-159 -16z" />
    <glyph glyph-name="ccaron" unicode="&#x10d;" horiz-adv-x="1302" 
d="M582 1307l-314 340h154l246 -242l243 242h156l-315 -340h-170zM670 -23q-250 0 -411 171.5t-161 437.5t161 437t411 171q404 0 534 -373l-141 -35q-105 265 -389 265q-183 0 -299.5 -130t-116.5 -335t116.5 -335t299.5 -130q137 0 237.5 68.5t149.5 195.5l141 -35
q-59 -178 -197 -275.5t-335 -97.5z" />
    <glyph glyph-name="Dcaron" unicode="&#x10e;" horiz-adv-x="1445" 
d="M637 1602l-307 340h151l240 -242l237 242h154l-309 -340h-166zM156 0v1483h346q439 0 635 -177.5t196 -564.5q0 -385 -196 -563t-635 -178h-346zM317 154h189q353 0 509 138.5t156 450.5q0 311 -156 449.5t-509 138.5h-189v-1177z" />
    <glyph glyph-name="dcaron" unicode="&#x10f;" horiz-adv-x="1513" 
d="M651 -27q-89 0 -169.5 23.5t-151 73t-122 120.5t-81 173t-29.5 223q0 150 45 268t122.5 191t175 111t208.5 38q154 0 275.5 -75.5t173.5 -217.5v651h162v-1550h-162v262q-53 -141 -173 -216t-274 -75zM1352 1194l73 358h152l-98 -358h-127zM682 117q191 0 305.5 126.5
t114.5 342.5q0 214 -115.5 339.5t-308.5 125.5q-191 0 -305.5 -125t-114.5 -340q0 -217 115.5 -343t308.5 -126z" />
    <glyph glyph-name="Dcroat" unicode="&#x110;" horiz-adv-x="1488" 
d="M535 1483q439 0 635 -177.5t196 -564.5q0 -385 -196 -563t-635 -178h-347v690h-141v131h141v662h347zM539 154q353 0 509 138.5t156 450.5q0 311 -156.5 449.5t-510.5 138.5h-187v-510h346v-131h-346v-536h189z" />
    <glyph glyph-name="dcroat" unicode="&#x111;" horiz-adv-x="1380" 
d="M1372 1415v-123h-141v-1290h-158v262q-51 -141 -168.5 -216t-267.5 -75q-109 0 -205 38t-172 111.5t-120 193t-44 270.5q0 149 44 267.5t119.5 191.5t170.5 111t203 38q153 0 271 -75.5t169 -217.5v391h-459v123h459v137h158v-137h141zM668 117q186 0 297.5 126.5
t111.5 342.5q0 214 -113 339.5t-300 125.5t-298.5 -125t-111.5 -340q0 -217 112 -343t302 -126z" />
    <glyph glyph-name="Emacron" unicode="&#x112;" horiz-adv-x="1216" 
d="M326 1628v123h645v-123h-645zM160 0v1483h954v-154h-788v-502h751v-147h-751v-526h788v-154h-954z" />
    <glyph glyph-name="emacron" unicode="&#x113;" horiz-adv-x="1343" 
d="M350 1341v123h645v-123h-645zM692 -23q-270 0 -432 166.5t-162 442.5q0 270 162.5 439t421.5 169q271 0 425.5 -176.5t135.5 -462.5h-985q4 -204 121 -320t315 -116q268 0 381 203l148 -33q-154 -312 -531 -312zM264 690h826q-11 170 -119 269.5t-287 99.5
q-173 0 -285.5 -98.5t-134.5 -270.5z" />
    <glyph glyph-name="Edotaccent" unicode="&#x116;" horiz-adv-x="1216" 
d="M649 1630q-36 0 -62 26t-26 62q0 37 25.5 62.5t62.5 25.5q35 0 60.5 -25.5t25.5 -62.5q0 -35 -25.5 -61.5t-60.5 -26.5zM160 0v1483h954v-154h-788v-502h751v-147h-751v-526h788v-154h-954z" />
    <glyph glyph-name="edotaccent" unicode="&#x117;" horiz-adv-x="1343" 
d="M674 1343q-36 0 -62 26.5t-26 62.5q0 37 25.5 62.5t62.5 25.5q35 0 60.5 -25.5t25.5 -62.5q0 -36 -25.5 -62.5t-60.5 -26.5zM692 -23q-270 0 -432 166.5t-162 442.5q0 270 162.5 439t421.5 169q271 0 425.5 -176.5t135.5 -462.5h-985q4 -204 121 -320t315 -116
q268 0 381 203l148 -33q-154 -312 -531 -312zM264 690h826q-11 170 -119 269.5t-287 99.5q-173 0 -285.5 -98.5t-134.5 -270.5z" />
    <glyph glyph-name="Eogonek" unicode="&#x118;" horiz-adv-x="1216" 
d="M936 -223q0 -79 54 -111t140 -16v-119q-48 -10 -77 -10q-116 0 -183 62.5t-67 164.5q0 59 35.5 127t109.5 125h-788v1483h954v-154h-788v-502h751v-147h-751v-526h788v-154q-83 -39 -130.5 -100t-47.5 -123z" />
    <glyph glyph-name="eogonek" unicode="&#x119;" horiz-adv-x="1343" 
d="M682 1194q271 0 425.5 -176.5t135.5 -462.5h-985q4 -204 121 -320t315 -116q268 0 381 203l148 -33q-131 -265 -428 -305q-55 -39 -85 -89t-30 -98q0 -79 54 -111t140 -16v-119q-48 -10 -77 -10q-116 0 -183 63t-67 165q0 107 98 211q-250 15 -398.5 179t-148.5 427
q0 270 162.5 439t421.5 169zM264 690h826q-11 170 -119 269.5t-287 99.5q-173 0 -285.5 -98.5t-134.5 -270.5z" />
    <glyph glyph-name="Ecaron" unicode="&#x11a;" horiz-adv-x="1216" 
d="M559 1595l-313 340h153l246 -241l244 241h155l-315 -340h-170zM160 0v1483h954v-154h-788v-502h751v-147h-751v-526h788v-154h-954z" />
    <glyph glyph-name="ecaron" unicode="&#x11b;" horiz-adv-x="1343" 
d="M584 1307l-314 340h154l246 -242l243 242h156l-315 -340h-170zM692 -23q-270 0 -432 166.5t-162 442.5q0 270 162.5 439t421.5 169q271 0 425.5 -176.5t135.5 -462.5h-985q4 -204 121 -320t315 -116q268 0 381 203l148 -33q-154 -312 -531 -312zM264 690h826
q-11 170 -119 269.5t-287 99.5q-173 0 -285.5 -98.5t-134.5 -270.5z" />
    <glyph glyph-name="Gbreve" unicode="&#x11e;" horiz-adv-x="1609" 
d="M809 1630q-168 0 -266.5 89.5t-98.5 248.5h129q0 -46 11.5 -83t37 -69t73.5 -49.5t114 -17.5q233 0 233 219h129q0 -159 -98 -248.5t-264 -89.5zM803 -16q-314 0 -501 207t-187 554q0 339 192.5 549.5t501.5 210.5q443 0 606 -350l-160 -39q-67 123 -176 181.5t-268 58.5
q-238 0 -384 -168t-146 -445q0 -282 142.5 -447t385.5 -165q237 0 372 134t144 384h-512v148h682v-95q0 -333 -186 -525.5t-506 -192.5z" />
    <glyph glyph-name="gbreve" unicode="&#x11f;" horiz-adv-x="1413" 
d="M719 1319q-168 0 -266.5 89.5t-98.5 248.5h129q0 -46 11.5 -83t37 -69t73.5 -49.5t114 -17.5q233 0 233 219h129q0 -159 -98 -248.5t-264 -89.5zM676 -424q-192 0 -337.5 82.5t-209.5 228.5l152 43q53 -101 158 -160t237 -59q208 0 315 111t107 356v111
q-52 -145 -171 -216t-276 -71q-89 0 -169.5 22.5t-151 70.5t-122 117.5t-81 168t-29.5 217.5q0 146 45 262t122.5 187t175 108t208.5 37q158 0 277.5 -70.5t171.5 -216.5v266h162v-972q0 -320 -148.5 -471.5t-435.5 -151.5zM682 135q191 0 305.5 124.5t114.5 338.5
t-115.5 338.5t-308.5 124.5q-191 0 -305.5 -124.5t-114.5 -338.5q0 -215 115 -339t309 -124z" />
    <glyph glyph-name="Gdotaccent" unicode="&#x120;" horiz-adv-x="1609" 
d="M807 1655q-36 0 -62 26t-26 62q0 37 25.5 62.5t62.5 25.5q35 0 60.5 -25.5t25.5 -62.5q0 -35 -25.5 -61.5t-60.5 -26.5zM803 -16q-314 0 -501 207t-187 554q0 339 192.5 549.5t501.5 210.5q443 0 606 -350l-160 -39q-67 123 -176 181.5t-268 58.5q-238 0 -384 -168
t-146 -445q0 -282 142.5 -447t385.5 -165q237 0 372 134t144 384h-512v148h682v-95q0 -333 -186 -525.5t-506 -192.5z" />
    <glyph glyph-name="gdotaccent" unicode="&#x121;" horiz-adv-x="1413" 
d="M717 1343q-36 0 -62 26.5t-26 62.5q0 37 25.5 62.5t62.5 25.5q35 0 60.5 -25.5t25.5 -62.5q0 -36 -25.5 -62.5t-60.5 -26.5zM676 -424q-192 0 -337.5 82.5t-209.5 228.5l152 43q53 -101 158 -160t237 -59q208 0 315 111t107 356v111q-52 -145 -171 -216t-276 -71
q-89 0 -169.5 22.5t-151 70.5t-122 117.5t-81 168t-29.5 217.5q0 146 45 262t122.5 187t175 108t208.5 37q158 0 277.5 -70.5t171.5 -216.5v266h162v-972q0 -320 -148.5 -471.5t-435.5 -151.5zM682 135q191 0 305.5 124.5t114.5 338.5t-115.5 338.5t-308.5 124.5
q-191 0 -305.5 -124.5t-114.5 -338.5q0 -215 115 -339t309 -124z" />
    <glyph glyph-name="uni0122" unicode="&#x122;" horiz-adv-x="1609" 
d="M803 -16q-314 0 -501 207t-187 554q0 339 192.5 549.5t501.5 210.5q443 0 606 -350l-160 -39q-67 123 -176 181.5t-268 58.5q-238 0 -384 -168t-146 -445q0 -282 142.5 -447t385.5 -165q237 0 372 134t144 384h-512v148h682v-95q0 -333 -186 -525.5t-506 -192.5z
M627 -471l137 362h168l-166 -362h-139z" />
    <glyph glyph-name="uni0123" unicode="&#x123;" horiz-adv-x="1413" 
d="M578 1317l229 452h139l-198 -452h-170zM676 -424q-192 0 -337.5 82.5t-209.5 228.5l152 43q53 -101 158 -160t237 -59q208 0 315 111t107 356v111q-52 -145 -171 -216t-276 -71q-89 0 -169.5 22.5t-151 70.5t-122 117.5t-81 168t-29.5 217.5q0 146 45 262t122.5 187
t175 108t208.5 37q158 0 277.5 -70.5t171.5 -216.5v266h162v-972q0 -320 -148.5 -471.5t-435.5 -151.5zM682 135q191 0 305.5 124.5t114.5 338.5t-115.5 338.5t-308.5 124.5q-191 0 -305.5 -124.5t-114.5 -338.5q0 -215 115 -339t309 -124z" />
    <glyph glyph-name="Hbar" unicode="&#x126;" horiz-adv-x="1466" 
d="M1440 1198v-125h-135v-1073h-166v680h-813v-680h-166v1073h-97v125h97v285h166v-285h813v285h166v-285h135zM1139 827v246h-813v-246h813z" />
    <glyph glyph-name="hbar" unicode="&#x127;" horiz-adv-x="1298" 
d="M700 1192q488 0 488 -565v-627h-160v616q0 220 -89 325.5t-277 105.5q-363 0 -363 -465v-582h-160v1294h-119v123h119v135h160v-135h496v-123h-496v-372q39 123 141 196.5t260 73.5z" />
    <glyph glyph-name="Imacron" unicode="&#x12a;" horiz-adv-x="485" 
d="M-80 1636v123h645v-123h-645zM160 0v1483h166v-1483h-166z" />
    <glyph glyph-name="imacron" unicode="&#x12b;" horiz-adv-x="423" 
d="M-29 1339v123h498v-123h-498zM133 0v1171h160v-1171h-160z" />
    <glyph glyph-name="Iogonek" unicode="&#x12e;" horiz-adv-x="485" 
d="M147 -223q0 -79 54.5 -111t140.5 -16v-119q-48 -10 -78 -10q-116 0 -183 62.5t-67 164.5q0 58 36.5 126t109.5 126v1483h166v-1483q-83 -39 -131 -100.5t-48 -122.5z" />
    <glyph glyph-name="iogonek" unicode="&#x12f;" horiz-adv-x="432" 
d="M217 1343q-43 0 -71.5 27.5t-28.5 69.5t28.5 68t71.5 26q41 0 70.5 -26t29.5 -68t-29.5 -69.5t-70.5 -27.5zM119 -223q0 -73 55 -107.5t139 -19.5v-119q-45 -10 -77 -10q-114 0 -182 64.5t-68 162.5q0 156 151 266v1157h162v-1171q-85 -32 -132.5 -95.5t-47.5 -127.5z
" />
    <glyph glyph-name="Idotaccent" unicode="&#x130;" horiz-adv-x="485" 
d="M244 1638q-36 0 -62 26t-26 62q0 37 25.5 63t62.5 26q35 0 60.5 -26t25.5 -63q0 -35 -25.5 -61.5t-60.5 -26.5zM160 0v1483h166v-1483h-166z" />
    <glyph glyph-name="dotlessi" unicode="&#x131;" horiz-adv-x="440" 
d="M139 0v1171h162v-1171h-162z" />
    <glyph glyph-name="uni0136" unicode="&#x136;" horiz-adv-x="1286" 
d="M160 0v1483h166v-658l737 658h231l-800 -703l813 -780h-226l-755 737v-737h-166zM508 -471l137 362h168l-166 -362h-139z" />
    <glyph glyph-name="uni0137" unicode="&#x137;" horiz-adv-x="1191" 
d="M498 608l680 -608h-232l-631 586v-586h-161v1552h161v-921l609 540h229zM430 -471l137 362h168l-166 -362h-139z" />
    <glyph glyph-name="Lacute" unicode="&#x139;" horiz-adv-x="1073" 
d="M178 1595l170 347h158l-191 -347h-137zM160 0v1483h166v-1329h690v-154h-856z" />
    <glyph glyph-name="lacute" unicode="&#x13a;" horiz-adv-x="430" 
d="M154 1628l165 346h154l-186 -346h-133zM135 0v1552h160v-1552h-160z" />
    <glyph glyph-name="uni013B" unicode="&#x13b;" horiz-adv-x="1073" 
d="M160 0v1483h166v-1329h690v-154h-856zM410 -471l137 362h168l-166 -362h-139z" />
    <glyph glyph-name="uni013C" unicode="&#x13c;" horiz-adv-x="430" 
d="M135 0v1552h160v-1552h-160zM0 -471l133 362h166l-164 -362h-135z" />
    <glyph glyph-name="Lcaron" unicode="&#x13d;" horiz-adv-x="1073" 
d="M160 0v1483h166v-1329h690v-154h-856zM502 1124l73 359h152l-98 -359h-127z" />
    <glyph glyph-name="lcaron" unicode="&#x13e;" horiz-adv-x="499" 
d="M135 0v1552h160v-1552h-160zM377 1194l74 358h153l-100 -358h-127z" />
    <glyph glyph-name="Lslash" unicode="&#x141;" horiz-adv-x="1073" 
d="M326 154h690v-154h-856v563l-170 -47v141l170 48v778h166v-733l407 112v-141l-407 -113v-454z" />
    <glyph glyph-name="lslash" unicode="&#x142;" horiz-adv-x="526" 
d="M481 764v-121l-137 -39v-604h-160v559l-139 -39v119l139 39v874h160v-827z" />
    <glyph glyph-name="Nacute" unicode="&#x143;" horiz-adv-x="1536" 
d="M692 1606l170 346h158l-191 -346h-137zM160 0v1483h174l876 -1235v1235h164v-1483h-168l-880 1241v-1241h-166z" />
    <glyph glyph-name="nacute" unicode="&#x144;" horiz-adv-x="1298" 
d="M582 1317l170 346h157l-190 -346h-137zM139 0v1171h160v-249q41 125 143.5 197.5t257.5 72.5q488 0 488 -565v-627h-160v616q0 219 -89 325t-277 106q-363 0 -363 -465v-582h-160z" />
    <glyph glyph-name="uni0145" unicode="&#x145;" horiz-adv-x="1536" 
d="M160 0v1483h174l876 -1235v1235h164v-1483h-168l-880 1241v-1241h-166zM616 -471l138 362h168l-166 -362h-140z" />
    <glyph glyph-name="uni0146" unicode="&#x146;" horiz-adv-x="1298" 
d="M139 0v1171h160v-249q41 125 143.5 197.5t257.5 72.5q488 0 488 -565v-627h-160v616q0 219 -89 325t-277 106q-363 0 -363 -465v-582h-160zM487 -471l138 362h168l-166 -362h-140z" />
    <glyph glyph-name="Ncaron" unicode="&#x147;" horiz-adv-x="1536" 
d="M670 1595l-314 340h154l246 -241l243 241h156l-315 -340h-170zM160 0v1483h174l876 -1235v1235h164v-1483h-168l-880 1241v-1241h-166z" />
    <glyph glyph-name="ncaron" unicode="&#x148;" horiz-adv-x="1298" 
d="M559 1307l-313 340h153l246 -242l244 242h155l-315 -340h-170zM139 0v1171h160v-249q41 125 143.5 197.5t257.5 72.5q488 0 488 -565v-627h-160v616q0 219 -89 325t-277 106q-363 0 -363 -465v-582h-160z" />
    <glyph glyph-name="Eng" unicode="&#x14a;" horiz-adv-x="1536" 
d="M1071 -389q-34 0 -84 8l21 137q20 -2 39 -2q88 0 126.5 52.5t38.5 164.5v52l-886 1218v-1241h-166v1483h174l876 -1217v1217h164v-1514q0 -175 -72 -266.5t-231 -91.5z" />
    <glyph glyph-name="eng" unicode="&#x14b;" horiz-adv-x="1298" 
d="M887 -389q-34 0 -84 8l18 137q20 -2 39 -2q89 0 128.5 53t39.5 166v643q0 219 -89 325t-277 106q-363 0 -363 -465v-582h-160v1171h160v-249q41 125 143.5 197.5t257.5 72.5q476 0 488 -537v-686q0 -176 -71 -267t-230 -91z" />
    <glyph glyph-name="Omacron" unicode="&#x14c;" horiz-adv-x="1622" 
d="M487 1636v123h646v-123h-646zM809 -23q-113 0 -214 27t-189.5 86.5t-152.5 147t-101 216t-37 285.5q0 154 37.5 281t102 215t153.5 148t190.5 88t214.5 28q139 0 261.5 -45.5t220.5 -135.5t155 -239t57 -340q0 -157 -37.5 -285.5t-102 -216t-153.5 -147t-190.5 -86.5
t-214.5 -27zM809 131q250 0 391 159.5t141 448.5q0 283 -142 445t-386 162q-248 0 -391 -161t-143 -446q0 -289 140 -448.5t390 -159.5z" />
    <glyph glyph-name="omacron" unicode="&#x14d;" horiz-adv-x="1359" 
d="M358 1341v123h646v-123h-646zM682 -27q-91 0 -175 22.5t-159 71t-130 119t-87.5 173.5t-32.5 227q0 123 32.5 225t87.5 172t129.5 118t157.5 70.5t173 22.5t174 -22.5t159 -70.5t130.5 -118t88 -172t32.5 -225q0 -124 -32.5 -227t-87.5 -173.5t-129.5 -119t-157.5 -71
t-173 -22.5zM682 117q190 0 305 127t115 342q0 214 -116 339.5t-308 125.5q-191 0 -305.5 -125t-114.5 -340q0 -217 115.5 -343t308.5 -126z" />
    <glyph glyph-name="Ohungarumlaut" unicode="&#x150;" horiz-adv-x="1622" 
d="M569 1612l189 346h160l-209 -346h-140zM907 1612l189 346h159l-211 -346h-137zM809 -23q-113 0 -214 27t-189.5 86.5t-152.5 147t-101 216t-37 285.5q0 154 37.5 281t102 215t153.5 148t190.5 88t214.5 28q139 0 261.5 -45.5t220.5 -135.5t155 -239t57 -340
q0 -157 -37.5 -285.5t-102 -216t-153.5 -147t-190.5 -86.5t-214.5 -27zM809 131q250 0 391 159.5t141 448.5q0 283 -142 445t-386 162q-248 0 -391 -161t-143 -446q0 -289 140 -448.5t390 -159.5z" />
    <glyph glyph-name="ohungarumlaut" unicode="&#x151;" horiz-adv-x="1359" 
d="M440 1317l189 346h159l-208 -346h-140zM778 1317l189 346h159l-211 -346h-137zM682 -27q-91 0 -175 22.5t-159 71t-130 119t-87.5 173.5t-32.5 227q0 123 32.5 225t87.5 172t129.5 118t157.5 70.5t173 22.5t174 -22.5t159 -70.5t130.5 -118t88 -172t32.5 -225
q0 -124 -32.5 -227t-87.5 -173.5t-129.5 -119t-157.5 -71t-173 -22.5zM682 117q190 0 305 127t115 342q0 214 -116 339.5t-308 125.5q-191 0 -305.5 -125t-114.5 -340q0 -217 115.5 -343t308.5 -126z" />
    <glyph glyph-name="OE" unicode="&#x152;" horiz-adv-x="2398" 
d="M788 -23q-111 0 -209 27t-184 86.5t-147.5 147t-97 215.5t-35.5 286q0 192 54.5 340.5t149.5 238.5t215 135.5t259 45.5q194 0 338 -87.5t210 -268.5v340h955v-154h-789v-502h752v-147h-752v-526h789v-154h-955v332q-34 -94 -89.5 -163t-128 -110.5t-156 -61.5
t-179.5 -20zM809 131q250 0 391 159.5t141 448.5q0 283 -142 445t-386 162q-248 0 -391 -161t-143 -446q0 -289 140 -448.5t390 -159.5z" />
    <glyph glyph-name="oe" unicode="&#x153;" horiz-adv-x="2347" 
d="M682 -27q-91 0 -175 22.5t-159 71t-130 119t-87.5 173.5t-32.5 227q0 123 32.5 225t87.5 172t129.5 118t157.5 70.5t173 22.5q174 0 309.5 -86t194.5 -256q58 161 188.5 251.5t315.5 90.5q271 0 425.5 -175t137.5 -460h-985q1 -208 119 -324t315 -116q274 0 381 203
l147 -33q-143 -312 -530 -312q-191 0 -323 88.5t-191 249.5q-59 -170 -193 -256t-307 -86zM1270 690h823q-11 170 -118.5 269.5t-286.5 99.5q-172 0 -284 -98t-134 -271zM682 117q190 0 305 127t115 342q0 214 -116 339.5t-308 125.5q-191 0 -305.5 -125t-114.5 -340
q0 -217 115.5 -343t308.5 -126z" />
    <glyph glyph-name="Racute" unicode="&#x154;" horiz-adv-x="1353" 
d="M938 1974l-190 -346h-138l170 346h158zM1268 0h-201l-381 537q-97 -5 -125 -5h-235v-532h-166v1483h403q173 0 295.5 -23.5t212 -77t133 -146t43.5 -226.5q0 -195 -97 -303.5t-290 -147.5zM326 676h247q131 0 218 13t156 48t101.5 100.5t32.5 166.5t-32.5 167
t-101.5 101.5t-156.5 49t-217.5 13.5h-247v-659z" />
    <glyph glyph-name="racute" unicode="&#x155;" horiz-adv-x="743" 
d="M362 1317l170 346h158l-190 -346h-138zM139 0v1171h160v-213q19 55 51.5 98t85.5 77.5t123 44.5t166 -2l-20 -158q-207 38 -306.5 -71.5t-99.5 -340.5v-606h-160z" />
    <glyph glyph-name="uni0156" unicode="&#x156;" horiz-adv-x="1353" 
d="M860 559l408 -559h-201l-381 537q-97 -5 -125 -5h-235v-532h-166v1483h403q173 0 295.5 -23.5t212 -77t133 -146t43.5 -226.5q0 -195 -97 -303.5t-290 -147.5zM326 676h247q131 0 218 13t156 48t101.5 100.5t32.5 166.5t-32.5 167t-101.5 101.5t-156.5 49t-217.5 13.5
h-247v-659zM518 -471l137 362h168l-166 -362h-139z" />
    <glyph glyph-name="uni0157" unicode="&#x157;" horiz-adv-x="743" 
d="M139 0v1171h160v-213q19 55 51.5 98t85.5 77.5t123 44.5t166 -2l-20 -158q-207 38 -306.5 -71.5t-99.5 -340.5v-606h-160zM6 -471l137 362h168l-166 -362h-139z" />
    <glyph glyph-name="Rcaron" unicode="&#x158;" horiz-adv-x="1353" 
d="M758 1618h-170l-314 340h154l246 -242l244 242h155zM1268 0h-201l-381 537q-97 -5 -125 -5h-235v-532h-166v1483h403q173 0 295.5 -23.5t212 -77t133 -146t43.5 -226.5q0 -195 -97 -303.5t-290 -147.5zM326 676h247q131 0 218 13t156 48t101.5 100.5t32.5 166.5
t-32.5 167t-101.5 101.5t-156.5 49t-217.5 13.5h-247v-659z" />
    <glyph glyph-name="rcaron" unicode="&#x159;" horiz-adv-x="743" 
d="M340 1307l-313 340h153l246 -242l244 242h155l-315 -340h-170zM139 0v1171h160v-213q19 55 51.5 98t85.5 77.5t123 44.5t166 -2l-20 -158q-207 38 -306.5 -71.5t-99.5 -340.5v-606h-160z" />
    <glyph glyph-name="Sacute" unicode="&#x15a;" horiz-adv-x="1292" 
d="M582 1612l170 346h157l-190 -346h-137zM678 -20q-228 0 -393.5 97t-229.5 271l154 39q55 -124 178 -192t289 -68q179 0 286 73.5t107 198.5q0 66 -32.5 113.5t-87.5 76t-126.5 49t-150.5 37t-158 35.5t-150.5 49t-126.5 72t-87.5 111t-32.5 160q0 178 145 290.5
t369 112.5q218 0 367.5 -89t215.5 -259l-149 -37q-114 236 -432 236q-160 0 -258.5 -69.5t-98.5 -184.5q0 -47 12.5 -84t51.5 -66t61 -45.5t93 -36.5t92.5 -25.5t110.5 -23.5q103 -22 157 -35t138.5 -46.5t127.5 -73.5t77 -109.5t34 -159.5q0 -188 -153 -302.5t-400 -114.5z
" />
    <glyph glyph-name="sacute" unicode="&#x15b;" horiz-adv-x="1161" 
d="M541 1317l170 346h157l-190 -346h-137zM604 -20q-190 0 -337 79t-210 213l146 47q54 -94 158 -145t243 -51q159 0 247.5 55t88.5 154q0 49 -28 83.5t-75.5 54.5t-109 33.5t-129.5 25t-135.5 24.5t-129 36.5t-109 57.5t-75.5 90t-28 131q0 144 132.5 234t336.5 90
q155 0 288 -69t193 -179l-139 -51q-50 74 -140.5 117t-199.5 43q-145 0 -228 -50.5t-83 -138.5q0 -49 28 -83.5t75.5 -54t109 -33t130 -24t136.5 -23.5t129.5 -36t109 -56.5t75.5 -89.5t28 -130q0 -161 -135.5 -257.5t-362.5 -96.5z" />
    <glyph glyph-name="Scedilla" unicode="&#x15e;" horiz-adv-x="1292" 
d="M1231 397q0 -179 -139.5 -291.5t-366.5 -123.5l-154 -261h-170l185 263q-195 19 -334 113.5t-197 250.5l154 39q55 -124 178 -192t289 -68q179 0 286 73.5t107 198.5q0 66 -32.5 113.5t-87.5 76t-126.5 49t-150.5 37t-158 35.5t-150.5 49t-126.5 72t-87.5 111t-32.5 160
q0 178 145 290.5t369 112.5q218 0 367.5 -89t215.5 -259l-149 -37q-114 236 -432 236q-160 0 -258.5 -69.5t-98.5 -184.5q0 -47 12.5 -84t51.5 -66t61 -45.5t93 -36.5t92.5 -25.5t110.5 -23.5q103 -22 157 -35t138.5 -46.5t127.5 -73.5t77 -109.5t34 -159.5z" />
    <glyph glyph-name="scedilla" unicode="&#x15f;" horiz-adv-x="1161" 
d="M1102 334q0 -146 -111.5 -239.5t-304.5 -110.5l-156 -263h-170l183 261q-168 12 -297.5 89.5t-188.5 200.5l146 47q54 -94 158 -145t243 -51q159 0 247.5 55t88.5 154q0 49 -28 83.5t-75.5 54.5t-109 33.5t-129.5 25t-135.5 24.5t-129 36.5t-109 57.5t-75.5 90t-28 131
q0 144 132.5 234t336.5 90q155 0 288 -69t193 -179l-139 -51q-50 74 -140.5 117t-199.5 43q-145 0 -228 -50.5t-83 -138.5q0 -49 28 -83.5t75.5 -54t109 -33t130 -24t136.5 -23.5t129.5 -36t109 -56.5t75.5 -89.5t28 -130z" />
    <glyph glyph-name="Scaron" unicode="&#x160;" horiz-adv-x="1292" 
d="M559 1602l-313 340h153l246 -242l244 242h155l-315 -340h-170zM678 -20q-228 0 -393.5 97t-229.5 271l154 39q55 -124 178 -192t289 -68q179 0 286 73.5t107 198.5q0 66 -32.5 113.5t-87.5 76t-126.5 49t-150.5 37t-158 35.5t-150.5 49t-126.5 72t-87.5 111t-32.5 160
q0 178 145 290.5t369 112.5q218 0 367.5 -89t215.5 -259l-149 -37q-114 236 -432 236q-160 0 -258.5 -69.5t-98.5 -184.5q0 -47 12.5 -84t51.5 -66t61 -45.5t93 -36.5t92.5 -25.5t110.5 -23.5q103 -22 157 -35t138.5 -46.5t127.5 -73.5t77 -109.5t34 -159.5
q0 -188 -153 -302.5t-400 -114.5z" />
    <glyph glyph-name="scaron" unicode="&#x161;" horiz-adv-x="1161" 
d="M518 1307l-313 340h153l246 -242l244 242h156l-316 -340h-170zM604 -20q-190 0 -337 79t-210 213l146 47q54 -94 158 -145t243 -51q159 0 247.5 55t88.5 154q0 49 -28 83.5t-75.5 54.5t-109 33.5t-129.5 25t-135.5 24.5t-129 36.5t-109 57.5t-75.5 90t-28 131
q0 144 132.5 234t336.5 90q155 0 288 -69t193 -179l-139 -51q-50 74 -140.5 117t-199.5 43q-145 0 -228 -50.5t-83 -138.5q0 -49 28 -83.5t75.5 -54t109 -33t130 -24t136.5 -23.5t129.5 -36t109 -56.5t75.5 -89.5t28 -130q0 -161 -135.5 -257.5t-362.5 -96.5z" />
    <glyph glyph-name="uni0162" unicode="&#x162;" horiz-adv-x="1155" 
d="M61 1483h1033v-154h-432v-1329h-35l-166 -279h-170l205 291v1317h-435v154z" />
    <glyph glyph-name="uni0163" unicode="&#x163;" horiz-adv-x="786" 
d="M752 -2q-75 -14 -136 -14h-18l-147 -250h-170l186 266q-137 32 -199.5 145.5t-62.5 331.5v563h-174v131h174v220l164 34v-254h366v-131h-366v-548q0 -209 58.5 -291t207.5 -82q35 0 94 10z" />
    <glyph glyph-name="Tcaron" unicode="&#x164;" horiz-adv-x="1155" 
d="M489 1602l-313 340h154l245 -242l244 242h156l-316 -340h-170zM496 0v1329h-435v154h1033v-154h-432v-1329h-166z" />
    <glyph glyph-name="tcaron" unicode="&#x165;" horiz-adv-x="786" 
d="M508 1311l74 358h163l-100 -358h-137zM616 -16q-219 0 -315 113t-96 380v563h-174v131h174v220l164 34v-254h366v-131h-366v-548q0 -209 58.5 -291t207.5 -82q35 0 94 10l23 -131q-75 -14 -136 -14z" />
    <glyph glyph-name="Tbar" unicode="&#x166;" horiz-adv-x="1155" 
d="M1094 1329h-432v-547h243v-123h-243v-659h-166v659h-244v123h244v547h-435v154h1033v-154z" />
    <glyph glyph-name="tbar" unicode="&#x167;" horiz-adv-x="786" 
d="M729 129l23 -131q-75 -14 -136 -14q-219 0 -315 113t-96 380v109h-142v123h142v331h-174v131h174v220l164 34v-254h366v-131h-366v-331h360v-123h-360v-94q0 -209 58.5 -291t207.5 -82q35 0 94 10z" />
    <glyph glyph-name="Umacron" unicode="&#x16a;" horiz-adv-x="1490" 
d="M422 1636v123h645v-123h-645zM745 -20q-303 0 -454.5 175.5t-151.5 540.5v787h166v-787q0 -298 106 -430.5t334 -132.5q227 0 334 133t107 430v787h166v-787q0 -716 -607 -716z" />
    <glyph glyph-name="umacron" unicode="&#x16b;" horiz-adv-x="1310" 
d="M334 1341v123h645v-123h-645zM598 -20q-487 0 -487 563v628h159v-618q0 -218 88 -323t277 -105q362 0 362 465v581h160v-1171h-160v250q-40 -124 -142.5 -197t-256.5 -73z" />
    <glyph glyph-name="Uring" unicode="&#x16e;" horiz-adv-x="1490" 
d="M745 1608q-101 0 -167 63t-66 164q0 99 66 161t167 62q102 0 167 -62t65 -161q0 -102 -65 -164.5t-167 -62.5zM745 1722q51 0 81 31t30 82t-30 80t-81 29q-52 0 -82 -29t-30 -80t30.5 -82t81.5 -31zM745 -20q-303 0 -454.5 175.5t-151.5 540.5v787h166v-787
q0 -298 106 -430.5t334 -132.5q227 0 334 133t107 430v787h166v-787q0 -716 -607 -716z" />
    <glyph glyph-name="uring" unicode="&#x16f;" horiz-adv-x="1310" 
d="M657 1313q-101 0 -167 63t-66 164q0 99 66 161t167 62q102 0 167 -62t65 -161q0 -102 -65 -164.5t-167 -62.5zM657 1427q51 0 81 31t30 82t-30 80t-81 29q-52 0 -82 -29t-30 -80t30.5 -82t81.5 -31zM598 -20q-487 0 -487 563v628h159v-618q0 -218 88 -323t277 -105
q362 0 362 465v581h160v-1171h-160v250q-40 -124 -142.5 -197t-256.5 -73z" />
    <glyph glyph-name="Uhungarumlaut" unicode="&#x170;" horiz-adv-x="1490" 
d="M504 1612l188 346h160l-209 -346h-139zM842 1612l188 346h160l-211 -346h-137zM745 -20q-303 0 -454.5 175.5t-151.5 540.5v787h166v-787q0 -298 106 -430.5t334 -132.5q227 0 334 133t107 430v787h166v-787q0 -716 -607 -716z" />
    <glyph glyph-name="uhungarumlaut" unicode="&#x171;" horiz-adv-x="1310" 
d="M414 1317l188 346h160l-209 -346h-139zM752 1317l188 346h160l-211 -346h-137zM598 -20q-487 0 -487 563v628h159v-618q0 -218 88 -323t277 -105q362 0 362 465v581h160v-1171h-160v250q-40 -124 -142.5 -197t-256.5 -73z" />
    <glyph glyph-name="Uogonek" unicode="&#x172;" horiz-adv-x="1490" 
d="M1186 1483h166v-787q0 -642 -486 -708q-63 -39 -98 -93t-35 -106q0 -79 54.5 -111t140.5 -16v-119q-48 -10 -78 -10q-116 0 -183 62.5t-67 164.5q0 49 27 108.5t82 111.5q-284 11 -427 187t-143 529v787h166v-787q0 -298 106 -430.5t334 -132.5q227 0 334 133t107 430
v787z" />
    <glyph glyph-name="uogonek" unicode="&#x173;" horiz-adv-x="1310" 
d="M979 -223q0 -79 54.5 -111t140.5 -16v-119q-48 -10 -78 -10q-116 0 -183 62.5t-67 164.5q0 60 37 130t114 128v244q-40 -124 -142.5 -197t-256.5 -73q-487 0 -487 563v628h159v-618q0 -218 88 -323t277 -105q362 0 362 465v581h160v-1171q-83 -39 -130.5 -100t-47.5 -123
z" />
    <glyph glyph-name="Wcircumflex" unicode="&#x174;" horiz-adv-x="2066" 
d="M635 1616l313 340h170l316 -340h-156l-244 244l-246 -244h-153zM492 0l-512 1481h178l417 -1243l381 1243h148l385 -1243l420 1243h178l-514 -1481h-160l-383 1241l-379 -1241h-159z" />
    <glyph glyph-name="wcircumflex" unicode="&#x175;" horiz-adv-x="1916" 
d="M561 1321l313 340h170l316 -340h-156l-243 244l-246 -244h-154zM465 0l-453 1171h174l367 -981l338 981h133l338 -981l369 981h174l-457 -1171h-170l-320 938l-319 -938h-174z" />
    <glyph glyph-name="Ycircumflex" unicode="&#x176;" horiz-adv-x="1372" 
d="M289 1616l313 340h170l315 -340h-155l-244 244l-246 -244h-153zM600 0v424l-620 1059h190l512 -887l518 887h193l-627 -1059v-424h-166z" />
    <glyph glyph-name="ycircumflex" unicode="&#x177;" horiz-adv-x="1245" 
d="M244 1321l313 340h170l315 -340h-155l-244 244l-246 -244h-153zM360 -379l177 389l-525 1161h178l433 -987l432 987h178l-698 -1550h-175z" />
    <glyph glyph-name="Ydieresis" unicode="&#x178;" horiz-adv-x="1372" 
d="M516 1638q-36 0 -61 26t-25 62q0 37 25 63t61 26q35 0 60.5 -26t25.5 -63q0 -35 -25.5 -61.5t-60.5 -26.5zM860 1638q-38 0 -63 26t-25 62q0 37 25 63t63 26q34 0 59 -26t25 -63q0 -35 -25 -61.5t-59 -26.5zM600 0v424l-620 1059h190l512 -887l518 887h193l-627 -1059
v-424h-166z" />
    <glyph glyph-name="Zacute" unicode="&#x179;" horiz-adv-x="1243" 
d="M565 1608l170 346h158l-191 -346h-137zM86 0v147l868 1182h-868v154h1061v-146l-868 -1183h868v-154h-1061z" />
    <glyph glyph-name="zacute" unicode="&#x17a;" horiz-adv-x="1171" 
d="M539 1317l170 346h157l-190 -346h-137zM102 0v143l762 889h-749v139h944v-143l-762 -889h750v-139h-945z" />
    <glyph glyph-name="Zdotaccent" unicode="&#x17b;" horiz-adv-x="1243" 
d="M633 1634q-36 0 -62 26t-26 62q0 37 25.5 62.5t62.5 25.5q35 0 60.5 -25.5t25.5 -62.5q0 -35 -25.5 -61.5t-60.5 -26.5zM86 0v147l868 1182h-868v154h1061v-146l-868 -1183h868v-154h-1061z" />
    <glyph glyph-name="zdotaccent" unicode="&#x17c;" horiz-adv-x="1171" 
d="M606 1343q-36 0 -62 26.5t-26 62.5q0 37 25.5 62.5t62.5 25.5q35 0 60.5 -25.5t25.5 -62.5q0 -36 -25.5 -62.5t-60.5 -26.5zM102 0v143l762 889h-749v139h944v-143l-762 -889h750v-139h-945z" />
    <glyph glyph-name="Zcaron" unicode="&#x17d;" horiz-adv-x="1243" 
d="M543 1597l-314 340h154l246 -241l243 241h156l-315 -340h-170zM86 0v147l868 1182h-868v154h1061v-146l-868 -1183h868v-154h-1061z" />
    <glyph glyph-name="zcaron" unicode="&#x17e;" horiz-adv-x="1171" 
d="M516 1307l-313 340h153l246 -242l244 242h155l-315 -340h-170zM102 0v143l762 889h-749v139h944v-143l-762 -889h750v-139h-945z" />
    <glyph glyph-name="florin" unicode="&#x192;" horiz-adv-x="747" 
d="M68 -389q-36 0 -82 8l18 137q20 -2 39 -2q88 0 126 52.5t38 166.5v1067h-164v131h164v52q0 360 377 360q102 0 184 -16l-27 -131q-62 12 -133 12q-237 0 -237 -229v-48h346v-131h-346v-1071q0 -175 -72 -266.5t-231 -91.5z" />
    <glyph glyph-name="uni0218" unicode="&#x218;" horiz-adv-x="1292" 
d="M678 -20q-228 0 -393.5 97t-229.5 271l154 39q55 -124 178 -192t289 -68q179 0 286 73.5t107 198.5q0 66 -32.5 113.5t-87.5 76t-126.5 49t-150.5 37t-158 35.5t-150.5 49t-126.5 72t-87.5 111t-32.5 160q0 178 145 290.5t369 112.5q218 0 367.5 -89t215.5 -259l-149 -37
q-114 236 -432 236q-160 0 -258.5 -69.5t-98.5 -184.5q0 -47 12.5 -84t51.5 -66t61 -45.5t93 -36.5t92.5 -25.5t110.5 -23.5q103 -22 157 -35t138.5 -46.5t127.5 -73.5t77 -109.5t34 -159.5q0 -188 -153 -302.5t-400 -114.5zM492 -471l137 362h168l-166 -362h-139z" />
    <glyph glyph-name="uni0219" unicode="&#x219;" horiz-adv-x="1161" 
d="M604 -20q-190 0 -337 79t-210 213l146 47q54 -94 158 -145t243 -51q159 0 247.5 55t88.5 154q0 49 -28 83.5t-75.5 54.5t-109 33.5t-129.5 25t-135.5 24.5t-129 36.5t-109 57.5t-75.5 90t-28 131q0 144 132.5 234t336.5 90q155 0 288 -69t193 -179l-139 -51
q-50 74 -140.5 117t-199.5 43q-145 0 -228 -50.5t-83 -138.5q0 -49 28 -83.5t75.5 -54t109 -33t130 -24t136.5 -23.5t129.5 -36t109 -56.5t75.5 -89.5t28 -130q0 -161 -135.5 -257.5t-362.5 -96.5zM451 -471l137 362h168l-166 -362h-139z" />
    <glyph glyph-name="uni021A" unicode="&#x21a;" horiz-adv-x="1155" 
d="M496 0v1329h-435v154h1033v-154h-432v-1329h-166zM383 -471l137 362h168l-166 -362h-139z" />
    <glyph glyph-name="uni021B" unicode="&#x21b;" horiz-adv-x="786" 
d="M616 -16q-219 0 -315 113t-96 380v563h-174v131h174v220l164 34v-254h366v-131h-366v-548q0 -209 58.5 -291t207.5 -82q35 0 94 10l23 -131q-75 -14 -136 -14zM373 -459l137 363h168l-166 -363h-139z" />
    <glyph glyph-name="uni0237" unicode="&#x237;" horiz-adv-x="436" 
d="M2 -387q-44 0 -82 10l17 127q23 -4 40 -4q85 0 122.5 52.5t37.5 166.5v1206h160v-1202q0 -176 -69.5 -266t-225.5 -90z" />
    <glyph glyph-name="circumflex" unicode="&#x2c6;" horiz-adv-x="1142" 
d="M158 1339l309 340h166l307 -340h-152l-239 244l-240 -244h-151z" />
    <glyph glyph-name="caron" unicode="&#x2c7;" horiz-adv-x="1142" 
d="M467 1284l-309 340h151l240 -242l239 242h152l-307 -340h-166z" />
    <glyph glyph-name="breve" unicode="&#x2d8;" horiz-adv-x="1130" 
d="M567 1319q-163 0 -259.5 89.5t-96.5 248.5h125q0 -98 53 -158.5t178 -60.5q228 0 228 219h127q0 -159 -96 -248.5t-259 -89.5z" />
    <glyph glyph-name="dotaccent" unicode="&#x2d9;" horiz-adv-x="671" 
d="M338 1343q-35 0 -59.5 26.5t-24.5 62.5q0 37 24.5 62.5t59.5 25.5t59.5 -25.5t24.5 -62.5q0 -36 -24.5 -62.5t-59.5 -26.5z" />
    <glyph glyph-name="ring" unicode="&#x2da;" horiz-adv-x="675" 
d="M342 1313q-99 0 -163 62.5t-64 164.5q0 99 64 161t163 62t163 -62t64 -161q0 -102 -64 -164.5t-163 -62.5zM342 1427q49 0 79 31t30 82t-29.5 80t-79.5 29q-51 0 -80 -29t-29 -80t30 -82t79 -31z" />
    <glyph glyph-name="ogonek" unicode="&#x2db;" horiz-adv-x="698" 
d="M455 -479q-114 0 -180 63t-66 164q0 43 17.5 91t63.5 102.5t113 95.5l111 -37q-81 -39 -127.5 -100t-46.5 -123q0 -79 53.5 -111t136.5 -16v-119q-45 -10 -75 -10z" />
    <glyph glyph-name="tilde" unicode="&#x2dc;" horiz-adv-x="1060" 
d="M236 1309l-84 88q45 54 97.5 79t103 24.5t102.5 -11t102.5 -23.5t96.5 -18.5t90.5 9.5t78.5 56l86 -88q-48 -56 -103.5 -82.5t-106.5 -27.5t-104 9t-102.5 23t-94.5 19.5t-87.5 -6.5t-74.5 -51z" />
    <glyph glyph-name="hungarumlaut" unicode="&#x2dd;" horiz-adv-x="1413" 
d="M369 1317l184 346h156l-205 -346h-135zM698 1317l185 346h155l-204 -346h-136z" />
    <glyph glyph-name="gravecomb" unicode="&#x300;" 
d="M-420 1317l-192 346h157l170 -346h-135z" />
    <glyph glyph-name="acutecomb" unicode="&#x301;" 
d="M-567 1317l170 346h157l-190 -346h-137z" />
    <glyph glyph-name="uni0302" unicode="&#x302;" 
d="M-948 1339l313 340h170l315 -340h-155l-244 244l-246 -244h-153z" />
    <glyph glyph-name="tildecomb" unicode="&#x303;" 
d="M-831 1309l-87 88q46 54 99.5 79t105.5 24.5t105.5 -11t105.5 -23.5t100 -18.5t93.5 9.5t81.5 56l86 -88q-50 -56 -106.5 -82.5t-109 -27.5t-106.5 9t-105 23t-97 19.5t-89.5 -6.5t-76.5 -51z" />
    <glyph glyph-name="uni0304" unicode="&#x304;" 
d="M-842 1339v123h645v-123h-645z" />
    <glyph glyph-name="uni0306" unicode="&#x306;" 
d="M-563 1319q-168 0 -266.5 89.5t-98.5 248.5h129q0 -46 11.5 -83t37 -69t73.5 -49.5t114 -17.5q233 0 233 219h129q0 -159 -98 -248.5t-264 -89.5z" />
    <glyph glyph-name="uni0307" unicode="&#x307;" 
d="M-334 1343q-36 0 -62 26.5t-26 62.5q0 37 25.5 62.5t62.5 25.5q35 0 60.5 -25.5t25.5 -62.5q0 -36 -25.5 -62.5t-60.5 -26.5z" />
    <glyph glyph-name="uni0308" unicode="&#x308;" 
d="M-762 1343q-36 0 -61 26.5t-25 62.5q0 37 24.5 62.5t61.5 25.5q35 0 60.5 -25.5t25.5 -62.5q0 -36 -25.5 -62.5t-60.5 -26.5zM-418 1343q-37 0 -62.5 26.5t-25.5 62.5q0 37 25 62.5t63 25.5q34 0 59 -26t25 -62q0 -35 -25 -62t-59 -27z" />
    <glyph glyph-name="uni030A" unicode="&#x30a;" 
d="M-338 1313q-101 0 -167 63t-66 164q0 99 66 161t167 62q102 0 167 -62t65 -161q0 -102 -65 -164.5t-167 -62.5zM-338 1427q51 0 81 31t30 82t-30 80t-81 29q-53 0 -83 -29t-30 -80t31 -82t82 -31z" />
    <glyph glyph-name="uni030B" unicode="&#x30b;" 
d="M-1092 1317l189 346h160l-209 -346h-140zM-754 1317l189 346h159l-210 -346h-138z" />
    <glyph glyph-name="uni030C" unicode="&#x30c;" 
d="M-680 1284l-313 340h153l246 -242l244 242h155l-315 -340h-170z" />
    <glyph glyph-name="uni0312" unicode="&#x312;" 
d="M-612 1317l229 452h139l-198 -452h-170z" />
    <glyph glyph-name="uni0326" unicode="&#x326;" 
d="M-625 -471l138 362h168l-166 -362h-140z" />
    <glyph glyph-name="uni0327" unicode="&#x327;" 
d="M-618 -279l219 312h135l-185 -312h-169z" />
    <glyph glyph-name="uni0328" unicode="&#x328;" 
d="M-242 -479q-116 0 -183 62.5t-67 164.5q0 69 49.5 149.5t149.5 139.5l113 -37q-83 -39 -130.5 -100t-47.5 -123q0 -79 54 -111t140 -16v-119q-48 -10 -78 -10z" />
    <glyph glyph-name="uni0335" unicode="&#x335;" 
d="M-913 674v123h774v-123h-774z" />
    <glyph glyph-name="uni0336" unicode="&#x336;" 
d="M-1362 674v123h1225v-123h-1225z" />
    <glyph glyph-name="uni0337" unicode="&#x337;" 
d="M-885 569v142l744 204v-141z" />
    <glyph glyph-name="uni0338" unicode="&#x338;" 
d="M-1157 -135l936 1741h162l-934 -1741h-164z" />
    <glyph glyph-name="pi" unicode="&#x3c0;" horiz-adv-x="1662" 
d="M829 -23q-113 0 -216 27t-194.5 86.5t-158.5 147t-106 216t-39 285.5q0 154 39.5 281.5t107 215t160 147.5t196 88t216.5 28q111 0 213 -28t193.5 -88t159 -147.5t107 -215t39.5 -281.5q0 -157 -39.5 -285.5t-106.5 -216t-159.5 -147t-195.5 -86.5t-216 -27zM829 115
q264 0 419 165.5t155 458.5q0 288 -156 455.5t-416 167.5q-263 0 -419 -166.5t-156 -456.5q0 -294 153.5 -459t419.5 -165zM551 360v773h246q190 0 277 -65.5t87 -209.5t-86.5 -210t-273.5 -66h-113v-222h-137zM688 707h113q92 0 141.5 18t65.5 48.5t16 84.5t-16 84
t-65.5 47t-141.5 17h-113v-299z" />
    <glyph glyph-name="Wgrave" unicode="&#x1e80;" horiz-adv-x="2066" 
d="M965 1612l-193 346h158l170 -346h-135zM492 0l-512 1481h178l417 -1243l381 1243h148l385 -1243l420 1243h178l-514 -1481h-160l-383 1241l-379 -1241h-159z" />
    <glyph glyph-name="wgrave" unicode="&#x1e81;" horiz-adv-x="1916" 
d="M891 1317l-193 346h158l170 -346h-135zM465 0l-453 1171h174l367 -981l338 981h133l338 -981l369 981h174l-457 -1171h-170l-320 938l-319 -938h-174z" />
    <glyph glyph-name="Wacute" unicode="&#x1e82;" horiz-adv-x="2066" 
d="M965 1612l170 346h157l-190 -346h-137zM492 0l-512 1481h178l417 -1243l381 1243h148l385 -1243l420 1243h178l-514 -1481h-160l-383 1241l-379 -1241h-159z" />
    <glyph glyph-name="wacute" unicode="&#x1e83;" horiz-adv-x="1916" 
d="M893 1317l170 346h158l-191 -346h-137zM465 0l-453 1171h174l367 -981l338 981h133l338 -981l369 981h174l-457 -1171h-170l-320 938l-319 -938h-174z" />
    <glyph glyph-name="Wdieresis" unicode="&#x1e84;" horiz-adv-x="2066" 
d="M862 1638q-36 0 -61 26t-25 62q0 37 25 63t61 26q35 0 60.5 -26t25.5 -63q0 -35 -25.5 -61.5t-60.5 -26.5zM1206 1638q-38 0 -63 26t-25 62q0 37 25 63t63 26q34 0 59 -26t25 -63q0 -35 -25 -61.5t-59 -26.5zM492 0l-512 1481h178l417 -1243l381 1243h148l385 -1243
l420 1243h178l-514 -1481h-160l-383 1241l-379 -1241h-159z" />
    <glyph glyph-name="wdieresis" unicode="&#x1e85;" horiz-adv-x="1916" 
d="M788 1343q-36 0 -61 26.5t-25 62.5q0 37 24.5 62.5t61.5 25.5q35 0 60.5 -25.5t25.5 -62.5q0 -36 -25.5 -62.5t-60.5 -26.5zM1133 1343q-38 0 -63.5 26.5t-25.5 62.5q0 37 25.5 62.5t63.5 25.5q34 0 59 -26t25 -62q0 -35 -25 -62t-59 -27zM465 0l-453 1171h174l367 -981
l338 981h133l338 -981l369 981h174l-457 -1171h-170l-320 938l-319 -938h-174z" />
    <glyph glyph-name="Ygrave" unicode="&#x1ef2;" horiz-adv-x="1372" 
d="M618 1612l-192 346h158l170 -346h-136zM600 0v424l-620 1059h190l512 -887l518 887h193l-627 -1059v-424h-166z" />
    <glyph glyph-name="ygrave" unicode="&#x1ef3;" horiz-adv-x="1245" 
d="M575 1317l-192 346h158l170 -346h-136zM360 -379l177 389l-525 1161h178l433 -987l432 987h178l-698 -1550h-175z" />
    <glyph glyph-name="endash" unicode="&#x2013;" horiz-adv-x="1081" 
d="M96 549v149h897v-149h-897z" />
    <glyph glyph-name="emdash" unicode="&#x2014;" horiz-adv-x="1597" 
d="M96 549v149h1407v-149h-1407z" />
    <glyph glyph-name="quoteleft" unicode="&#x2018;" horiz-adv-x="569" 
d="M55 817l322 666h137l-289 -666h-170z" />
    <glyph glyph-name="quoteright" unicode="&#x2019;" horiz-adv-x="569" 
d="M55 817l291 666h168l-317 -666h-142z" />
    <glyph glyph-name="quotesinglbase" unicode="&#x201a;" horiz-adv-x="458" 
d="M-55 -248l291 666h165l-317 -666h-139z" />
    <glyph glyph-name="quotedblleft" unicode="&#x201c;" horiz-adv-x="915" 
d="M47 817l320 666h137l-289 -666h-168zM410 817l319 666h139l-288 -666h-170z" />
    <glyph glyph-name="quotedblright" unicode="&#x201d;" horiz-adv-x="915" 
d="M55 817l291 666h168l-317 -666h-142zM399 817l291 666h168l-317 -666h-142z" />
    <glyph glyph-name="quotedblbase" unicode="&#x201e;" horiz-adv-x="802" 
d="M-66 -246l291 666h166l-315 -666h-142zM297 -246l291 666h168l-318 -666h-141z" />
    <glyph glyph-name="dagger" unicode="&#x2020;" horiz-adv-x="708" 
d="M281 -379v1419h-201v131h201v312h143v-312h203v-131h-203v-1419h-143z" />
    <glyph glyph-name="daggerdbl" unicode="&#x2021;" horiz-adv-x="708" 
d="M283 -379v1059h-193v129h193v231h-201v131h201v312h141v-312h203v-131h-203v-231h203v-129h-203v-1059h-141z" />
    <glyph glyph-name="bullet" unicode="&#x2022;" horiz-adv-x="661" 
d="M352 471q-123 0 -196.5 67.5t-73.5 198.5q0 129 74 198t196 69q115 0 193 -70.5t78 -196.5q0 -129 -77.5 -197.5t-193.5 -68.5z" />
    <glyph glyph-name="ellipsis" unicode="&#x2026;" horiz-adv-x="1175" 
d="M215 -16q-43 0 -71.5 27t-28.5 69t28.5 68t71.5 26q41 0 70.5 -26t29.5 -68t-29.5 -69t-70.5 -27zM588 -16q-43 0 -72 27t-29 69t28.5 68t72.5 26q41 0 70.5 -26t29.5 -68t-29.5 -69t-70.5 -27zM958 -16q-42 0 -70 27t-28 69t28 68t70 26t71.5 -26t29.5 -68t-29.5 -69
t-71.5 -27z" />
    <glyph glyph-name="perthousand" unicode="&#x2030;" horiz-adv-x="3262" 
d="M545 668q-92 0 -170.5 24t-141.5 72.5t-99 130t-36 188.5q0 105 36.5 186.5t99.5 130.5t142 74t171 25q89 0 167 -25t141 -74t99.5 -130.5t36.5 -186.5q0 -107 -36 -188.5t-99 -130t-141.5 -72.5t-169.5 -24zM629 0l805 1483h161l-800 -1481zM545 803q143 0 221 72.5
t78 207.5q0 132 -79.5 206.5t-217.5 74.5q-143 0 -224 -74t-81 -207q0 -134 80 -207t223 -73zM1686 -23q-92 0 -170.5 24t-141.5 72.5t-99 130.5t-36 189q0 105 36.5 186.5t99.5 130.5t142 74t171 25q89 0 167 -25t141 -74t99.5 -130.5t36.5 -186.5q0 -107 -36 -189
t-99 -130.5t-141.5 -72.5t-169.5 -24zM2720 -23q-73 0 -138 14.5t-122.5 47t-99 80.5t-65.5 118t-24 156q0 105 36.5 186.5t100 130.5t143 74t171.5 25q88 0 166 -25t140.5 -74t99 -130.5t36.5 -186.5q0 -86 -24 -156t-65 -118t-98 -80.5t-121 -47t-136 -14.5zM1686 113
q143 0 221 72.5t78 207.5q0 132 -79.5 206.5t-217.5 74.5q-143 0 -224.5 -74t-81.5 -207q0 -134 80 -207t224 -73zM2720 113q142 0 220.5 73t78.5 207q0 132 -79.5 206.5t-219.5 74.5q-142 0 -222.5 -74t-80.5 -207q0 -135 79 -207.5t224 -72.5z" />
    <glyph glyph-name="guilsinglleft" unicode="&#x2039;" horiz-adv-x="794" 
d="M555 92l-477 483l477 482h160l-447 -482l449 -483h-162z" />
    <glyph glyph-name="guilsinglright" unicode="&#x203a;" horiz-adv-x="794" 
d="M78 92l450 483l-448 482h160l477 -482l-477 -483h-162z" />
    <glyph glyph-name="fraction" unicode="&#x2044;" horiz-adv-x="1191" 
d="M23 0l997 1483h149l-997 -1483h-149z" />
    <glyph glyph-name="Euro" unicode="&#x20ac;" horiz-adv-x="1507" 
d="M1255 512l158 -33q-32 -134 -96 -234.5t-147 -157.5t-172.5 -84.5t-186.5 -27.5t-186 25t-170 79.5t-142 134.5t-99.5 198t-45.5 262h-102v143h102q11 171 69 305t148 215t198 122.5t228 41.5q96 0 185 -26.5t171 -82t145.5 -152.5t96.5 -226l-158 -35
q-45 178 -161 272.5t-279 94.5q-202 0 -330.5 -140.5t-148.5 -388.5h479v-143h-479q13 -258 140.5 -400.5t338.5 -142.5q166 0 283 98.5t161 282.5z" />
    <glyph glyph-name="trademark" unicode="&#x2122;" horiz-adv-x="2099" 
d="M350 653v705h-289v125h707v-125h-285v-705h-133zM834 651l184 832h149l273 -666l274 666h150l182 -832h-133l-146 647l-264 -647h-125l-264 647l-145 -647h-135z" />
    <glyph glyph-name="minus" unicode="&#x2212;" horiz-adv-x="1253" 
d="M92 680v147h1088v-147h-1088z" />
    <glyph glyph-name="fi" unicode="&#xfb01;" horiz-adv-x="1193" 
d="M711 1440q-47 8 -105 8q-237 0 -237 -229v-48h344v-131h-344v-1040h-164v1040h-164v131h164v52q0 360 377 360q70 0 145 -10zM969 1331q-42 0 -70.5 26t-28.5 68t28.5 68.5t70.5 26.5t72 -26.5t30 -68.5t-30 -68t-72 -26zM889 0v1171h160v-1171h-160z" />
    <glyph glyph-name="fl" unicode="&#xfb02;" horiz-adv-x="1181" 
d="M205 0v1040h-164v131h164v52q0 181 102.5 270.5t315.5 89.5q212 0 315.5 -89.5t103.5 -276.5v-1217h-161v1217q0 231 -258 231q-254 0 -254 -229v-48h344v-131h-344v-1040h-164z" />
    <glyph glyph-name="R.salt" horiz-adv-x="1300" 
d="M160 0v1483h405q353 0 507.5 -114t154.5 -370q0 -406 -387 -458l381 -541h-211l-441 659h60q222 0 327 78.5t105 257.5q0 187 -115.5 263.5t-384.5 76.5h-235v-1335h-166z" />
    <glyph glyph-name="Racute.salt" horiz-adv-x="1300" 
d="M610 1628l172 346h158l-192 -346h-138zM160 0v1483h405q353 0 507.5 -114t154.5 -370q0 -406 -387 -458l381 -541h-211l-441 659h60q222 0 327 78.5t105 257.5q0 187 -115.5 263.5t-384.5 76.5h-235v-1335h-166z" />
    <glyph glyph-name="Rcaron.salt" horiz-adv-x="1300" 
d="M588 1618l-314 340h154l246 -242l244 242h155l-315 -340h-170zM160 0v1483h405q353 0 507.5 -114t154.5 -370q0 -406 -387 -458l381 -541h-211l-441 659h60q222 0 327 78.5t105 257.5q0 187 -115.5 263.5t-384.5 76.5h-235v-1335h-166z" />
    <glyph glyph-name="uni0156.salt" horiz-adv-x="1300" 
d="M160 0v1483h405q353 0 507.5 -114t154.5 -370q0 -406 -387 -458l381 -541h-211l-441 659h60q222 0 327 78.5t105 257.5q0 187 -115.5 263.5t-384.5 76.5h-235v-1335h-166zM518 -471l137 362h168l-166 -362h-139z" />
    <glyph glyph-name="i.loclTRK" horiz-adv-x="440" 
d="M221 1343q-36 0 -62 26.5t-26 62.5q0 37 25.5 62.5t62.5 25.5q35 0 60.5 -25.5t25.5 -62.5q0 -36 -25.5 -62.5t-60.5 -26.5zM139 0v1171h162v-1171h-162z" />
    <glyph glyph-name="j.salt" horiz-adv-x="450" 
d="M223 1352q-42 0 -70 26t-28 68t28 68t70 26q43 0 73 -26t30 -68t-30 -68t-73 -26zM143 -379v1550h162v-1550h-162z" />
    <glyph glyph-name="uni0237.salt" horiz-adv-x="438" 
d="M139 -379v1550h162v-1550h-162z" />
    <glyph glyph-name="r.salt" horiz-adv-x="684" 
d="M543 997q-43 0 -72 26.5t-29 68.5t28.5 68t72.5 26q41 0 70.5 -26t29.5 -68t-29.5 -68.5t-70.5 -26.5zM139 0v1174h162v-1174h-162z" />
    <glyph glyph-name="racute.salt" horiz-adv-x="684" 
d="M305 1317l172 346h156l-191 -346h-137zM543 997q-43 0 -72 26.5t-29 68.5t28.5 68t72.5 26q41 0 70.5 -26t29.5 -68t-29.5 -68.5t-70.5 -26.5zM139 0v1174h162v-1174h-162z" />
    <glyph glyph-name="rcaron.salt" horiz-adv-x="694" 
d="M293 1307l-316 340h156l244 -242l246 242h155l-315 -340h-170zM543 997q-43 0 -72 26.5t-29 68.5t28.5 68t72.5 26q41 0 70.5 -26t29.5 -68t-29.5 -68.5t-70.5 -26.5zM139 0v1174h162v-1174h-162z" />
    <glyph glyph-name="uni0157.salt" horiz-adv-x="684" 
d="M543 997q-43 0 -72 26.5t-29 68.5t28.5 68t72.5 26q41 0 70.5 -26t29.5 -68t-29.5 -68.5t-70.5 -26.5zM139 0v1174h162v-1174h-162zM4 -471l137 362h170l-168 -362h-139z" />
    <glyph glyph-name="t.salt" horiz-adv-x="665" 
d="M31 1040v131h174v220l164 34v-254h262v-131h-262v-1040h-164v1040h-174z" />
    <glyph glyph-name="tbar.salt" horiz-adv-x="667" 
d="M631 1040h-262v-335h219v-121h-219v-584h-164v584h-152v121h152v335h-174v131h174v220l164 34v-254h262v-131z" />
    <glyph glyph-name="tcaron.salt" horiz-adv-x="686" 
d="M508 1311l74 358h163l-100 -358h-137zM31 1040v131h174v220l164 34v-254h262v-131h-262v-1040h-164v1040h-174z" />
    <glyph glyph-name="uni0163.salt" horiz-adv-x="671" 
d="M369 1171h262v-131h-262v-1040h-23l-164 -274h-170l195 274h-2v1040h-174v131h174v220l164 34v-254z" />
    <glyph glyph-name="uni021B.salt" horiz-adv-x="671" 
d="M31 1040v131h174v220l164 34v-254h262v-131h-262v-1040h-164v1040h-174zM70 -459l137 363h168l-166 -363h-139z" />
    <glyph glyph-name="f_i" horiz-adv-x="1193" 
d="M711 1440q-47 8 -105 8q-237 0 -237 -229v-48h344v-131h-344v-1040h-164v1040h-164v131h164v52q0 360 377 360q70 0 145 -10zM969 1331q-42 0 -70.5 26t-28.5 68t28.5 68.5t70.5 26.5t72 -26.5t30 -68.5t-30 -68t-72 -26zM889 0v1171h160v-1171h-160z" />
    <glyph glyph-name="f_l" horiz-adv-x="1181" 
d="M205 0v1040h-164v131h164v52q0 181 102.5 270.5t315.5 89.5q212 0 315.5 -89.5t103.5 -276.5v-1217h-161v1217q0 231 -258 231q-254 0 -254 -229v-48h344v-131h-344v-1040h-164z" />
    <glyph glyph-name="zero.osf" horiz-adv-x="1431" 
d="M717 -25q-96 0 -184.5 25t-164.5 76t-132.5 123t-88.5 172t-32 217q0 146 49 263.5t133 191.5t191 113.5t227 39.5t227.5 -39.5t191.5 -113.5t133.5 -191.5t49.5 -263.5q0 -117 -32 -217t-88.5 -172t-132.5 -123t-164 -76t-183 -25zM719 121q199 0 318.5 131t119.5 338
q0 203 -120.5 334t-321.5 131t-321 -130.5t-120 -334.5q0 -207 120.5 -338t324.5 -131z" />
    <glyph glyph-name="one.osf" horiz-adv-x="600" 
d="M274 0v1018h-233v153h399v-1171h-166z" />
    <glyph glyph-name="two.osf" horiz-adv-x="1308" 
d="M96 0v135q234 108 388.5 186t269 145t175 122.5t88 106.5t27.5 108q0 107 -109 175.5t-282 68.5q-167 0 -274.5 -65t-138.5 -185l-158 24q40 172 191 271.5t380 99.5q248 0 404.5 -107t156.5 -272q0 -119 -72.5 -216t-246.5 -204t-494 -250h809v-143h-1114z" />
    <glyph glyph-name="three.osf" horiz-adv-x="1353" 
d="M674 -330q-232 0 -386.5 103t-211.5 293l157 28q102 -272 439 -272q198 0 308 79.5t110 215.5q0 142 -94.5 204t-321.5 62h-109v139h82q199 0 299.5 64.5t100.5 189.5q0 133 -97 203t-286 70q-282 0 -388 -236l-155 29q61 174 203 265t344 91q259 0 402.5 -108.5
t143.5 -298.5q0 -136 -78 -222t-229 -114q172 -15 260 -105.5t88 -247.5q0 -195 -157 -313.5t-424 -118.5z" />
    <glyph glyph-name="four.osf" horiz-adv-x="1368" 
d="M938 -328v322h-877v135l873 1042h170v-1032h219v-145h-219v-322h-166zM254 139h684v815z" />
    <glyph glyph-name="five.osf" horiz-adv-x="1363" 
d="M680 -334q-224 0 -374 101.5t-197 289.5l149 21q41 -129 147.5 -195.5t268.5 -66.5q199 0 317.5 110t118.5 295q0 178 -119 282.5t-321 98.5q-248 -6 -387 -211l-146 35l133 745h908v-151h-779l-88 -447q73 73 172.5 113t210.5 43q258 7 417 -135.5t159 -378.5
q0 -246 -162.5 -397.5t-427.5 -151.5z" />
    <glyph glyph-name="six.osf" horiz-adv-x="1392" 
d="M698 -25q-95 0 -181.5 20.5t-163 65t-133 109t-89.5 158.5t-33 207q0 117 39 232t119 233t183.5 232t250.5 251h225q-142 -104 -274 -243t-213 -263q130 88 297 88q113 0 213.5 -33t181 -97t127.5 -168.5t47 -236.5q0 -113 -33 -206.5t-89 -157.5t-132.5 -107.5
t-162 -63.5t-179.5 -20zM698 125q200 0 316 108t116 295q0 185 -117 292.5t-319 107.5q-201 0 -317.5 -107.5t-116.5 -292.5q0 -188 117 -295.5t321 -107.5z" />
    <glyph glyph-name="seven.osf" horiz-adv-x="1189" 
d="M219 -311l731 1329h-901v153h1079v-147l-725 -1335h-184z" />
    <glyph glyph-name="eight.osf" horiz-adv-x="1398" 
d="M698 -25q-265 0 -432.5 111.5t-167.5 302.5q0 138 93 229t262 125q-155 36 -240.5 127t-85.5 228q0 124 75 216t205 138.5t298 46.5t297 -46.5t203.5 -138.5t74.5 -216q0 -138 -86.5 -229t-245.5 -128q169 -33 260.5 -123.5t91.5 -228.5q0 -128 -78 -223t-213.5 -143
t-310.5 -48zM700 809q188 0 302 75t114 201q0 125 -112 198t-299 73q-190 0 -303 -73t-113 -198t112.5 -200.5t298.5 -75.5zM698 117q200 0 319.5 76.5t119.5 205.5q0 126 -120 202.5t-317 76.5q-198 0 -319 -76t-121 -203q0 -129 119.5 -205.5t318.5 -76.5z" />
    <glyph glyph-name="nine.osf" horiz-adv-x="1392" 
d="M477 -309q143 103 276.5 242t211.5 262q-131 -86 -297 -86q-114 0 -215 33t-181 96.5t-127 168t-47 236.5q0 140 50 249t135 174.5t189.5 98.5t221.5 33q120 0 225.5 -33.5t190.5 -99.5t134.5 -175.5t49.5 -250.5q0 -117 -39 -232.5t-118.5 -233.5t-182.5 -232t-249 -250
h-228zM698 244q201 0 318 107.5t117 291.5q0 189 -117.5 297.5t-321.5 108.5q-200 0 -316 -108.5t-116 -297.5q0 -184 117.5 -291.5t318.5 -107.5z" />
    <glyph glyph-name="zero.tf" horiz-adv-x="1398" 
d="M741 -23q-103 0 -195 27t-172.5 86.5t-139 147t-92 216t-33.5 285.5q0 154 34 281t93 215t140 148t173.5 88t195.5 28q128 0 240 -45.5t201.5 -135.5t141.5 -239t52 -340q0 -157 -34 -285.5t-93.5 -216t-141 -147t-174 -86.5t-196.5 -27zM741 131q223 0 349.5 160
t126.5 448q0 283 -127 445t-345 162q-219 0 -347 -162t-128 -445q0 -289 125 -448.5t346 -159.5z" />
    <glyph glyph-name="one.tf" horiz-adv-x="1398" 
d="M813 154h234v-154h-723v154h323v1175h-323v154h489v-1329z" />
    <glyph glyph-name="two.tf" horiz-adv-x="1398" 
d="M176 0v145q220 140 367 237.5t259.5 182.5t174.5 143t100.5 117.5t50 107.5t11.5 111q0 145 -107 224.5t-282 79.5q-166 0 -275 -74t-141 -213l-156 20q40 199 190 308.5t382 109.5q255 0 407 -116t152 -328q0 -74 -15.5 -134.5t-57 -126.5t-103.5 -128.5t-165.5 -143
t-232.5 -166.5t-315 -202h878v-154h-1122z" />
    <glyph glyph-name="three.tf" horiz-adv-x="1398" 
d="M752 -27q-233 0 -387 103t-211 293l157 28q102 -272 439 -272q197 0 307 79t110 216q0 142 -94.5 204t-320.5 62h-109v139h82q197 0 298 64.5t101 189.5q0 133 -97 203t-286 70q-280 0 -389 -236l-153 29q61 173 202 264.5t342 91.5q261 0 405 -108.5t144 -298.5
q0 -136 -78 -222t-229 -114q171 -15 259.5 -105.5t88.5 -246.5q0 -195 -157.5 -314t-423.5 -119z" />
    <glyph glyph-name="four.tf" horiz-adv-x="1398" 
d="M989 0v350h-876v135l872 998h170v-987h221v-146h-221v-350h-166zM309 496h680v772z" />
    <glyph glyph-name="five.tf" horiz-adv-x="1398" 
d="M733 -23q-224 0 -374 102t-197 290l151 20q41 -129 147 -195.5t269 -66.5q198 0 317 110.5t119 294.5q0 178 -119.5 282.5t-322.5 98.5q-245 -6 -387 -211l-146 35l134 746h907v-152h-776l-88 -446q149 149 383 155q258 7 416.5 -135.5t158.5 -378.5
q0 -246 -163.5 -397.5t-428.5 -151.5z" />
    <glyph glyph-name="six.tf" horiz-adv-x="1398" 
d="M745 -25q-95 0 -182 20.5t-163.5 65t-133 109t-89 158.5t-32.5 207q0 117 39 232t119 233t183.5 232t250.5 251h224q-142 -105 -275 -244.5t-211 -261.5q130 88 297 88q113 0 213.5 -33t181 -97t127.5 -168.5t47 -236.5q0 -113 -33 -206.5t-89 -157.5t-132.5 -107.5
t-162 -63.5t-179.5 -20zM743 125q201 0 318 108t117 295q0 184 -118 292t-319 108q-202 0 -318 -107.5t-116 -292.5q0 -188 116 -295.5t320 -107.5z" />
    <glyph glyph-name="seven.tf" horiz-adv-x="1398" 
d="M375 0l731 1329h-901v154h1079v-148l-725 -1335h-184z" />
    <glyph glyph-name="eight.tf" horiz-adv-x="1398" 
d="M741 -25q-265 0 -432.5 111.5t-167.5 302.5q0 138 93 229t264 125q-157 36 -242.5 127t-85.5 228q0 124 75 216t205 138.5t298 46.5t297 -46.5t203.5 -138.5t74.5 -216q0 -138 -85.5 -229t-244.5 -128q167 -33 258.5 -123.5t91.5 -228.5q0 -128 -78 -223t-213.5 -143
t-310.5 -48zM743 809q188 0 302 75t114 201q0 125 -112 198t-299 73q-190 0 -303 -73t-113 -198t112.5 -200.5t298.5 -75.5zM741 117q200 0 319.5 76.5t119.5 205.5q0 126 -120 202.5t-317 76.5q-198 0 -319 -76t-121 -203q0 -129 119.5 -205.5t318.5 -76.5z" />
    <glyph glyph-name="nine.tf" horiz-adv-x="1398" 
d="M524 0q142 104 274.5 243t213.5 263q-130 -88 -299 -88q-113 0 -213.5 33t-180.5 96.5t-127 168.5t-47 238q0 113 33 206t89 156.5t132.5 107t162 63.5t179.5 20q120 0 225.5 -33.5t190.5 -99.5t134.5 -175.5t49.5 -250.5q0 -117 -39 -232t-119 -233t-183 -232t-250 -251
h-226zM743 555q202 0 319.5 107t117.5 292q0 188 -117.5 296t-321.5 108q-201 0 -317.5 -108.5t-116.5 -295.5q0 -184 117.5 -291.5t318.5 -107.5z" />
    </font>
</defs>
</svg>
