<?xml version="1.0" standalone="no"?>
<!DOCTYPE svg PUBLIC "-//W3C//DTD SVG 1.1//EN" "http://www.w3.org/Graphics/SVG/1.1/DTD/svg11.dtd" >
<svg xmlns="http://www.w3.org/2000/svg" xmlns:xlink="http://www.w3.org/1999/xlink" version="1.1">
<metadata>
Created by FontForge 20170731 at Wed Dec 29 18:43:39 2021
 By Aleksey,,,
(c) Rian Hughes 2020. A Device font. All rights reserved. e-mail: rian@rianhughes.com. Web: www.devicefonts.co.uk.
</metadata>
<defs>
<font id="Urbane-Medium" horiz-adv-x="0" >
  <font-face 
    font-family="Urbane Medium"
    font-weight="500"
    font-stretch="normal"
    units-per-em="2048"
    panose-1="0 0 6 0 0 0 0 0 0 0"
    ascent="1638"
    descent="-410"
    x-height="1171"
    cap-height="1483"
    bbox="-1366 -623 3213 2089"
    underline-thickness="102"
    underline-position="-409"
    unicode-range="U+0020-FB02"
  />
<missing-glyph horiz-adv-x="966" 
d="M793 1552v-1931h-613v1931h613zM643 1423h-319v-63h127v-72h-129v-63h321v63h-127v72h127v63zM516 1174h-194v-201h321v65h-127v136zM451 1108v-70h-64v70h64zM643 922h-321v-64h129v-72h-129v-63h194v135h127v64zM643 805h-63v-127h-258v-66h321v193zM643 569h-192v-108
h65v45h64v-90h-193v153h-65v-219h321v219zM643 236h-321v-220h321v220zM580 172v-92h-193v92h193zM643 -27h-321v-63h135l-135 -92v-64h321v64h-197l136 92h61v63z" />
    <glyph glyph-name=".notdef" horiz-adv-x="966" 
d="M793 1552v-1931h-613v1931h613zM643 1423h-319v-63h127v-72h-129v-63h321v63h-127v72h127v63zM516 1174h-194v-201h321v65h-127v136zM451 1108v-70h-64v70h64zM643 922h-321v-64h129v-72h-129v-63h194v135h127v64zM643 805h-63v-127h-258v-66h321v193zM643 569h-192v-108
h65v45h64v-90h-193v153h-65v-219h321v219zM643 236h-321v-220h321v220zM580 172v-92h-193v92h193zM643 -27h-321v-63h135l-135 -92v-64h321v64h-197l136 92h61v63z" />
    <glyph glyph-name=".null" 
 />
    <glyph glyph-name="nonmarkingreturn" horiz-adv-x="682" 
 />
    <glyph glyph-name="space" unicode=" " horiz-adv-x="571" 
 />
    <glyph glyph-name="exclam" unicode="!" horiz-adv-x="505" 
d="M172 381l-53 1102h268l-51 -1102h-164zM254 -18q-60 0 -97.5 33.5t-37.5 90.5t37.5 90t97.5 33q58 0 96.5 -33t38.5 -90t-39 -90.5t-96 -33.5z" />
    <glyph glyph-name="quotedbl" unicode="&#x22;" horiz-adv-x="774" 
d="M106 815l-26 668h233l-26 -668h-181zM489 815l-28 668h235l-28 -668h-179z" />
    <glyph glyph-name="numbersign" unicode="#" horiz-adv-x="1722" 
d="M188 0l150 424h-279l68 172h272l109 311h-277l66 172h274l142 404h219l-141 -404h378l144 404h219l-139 -404h268l-64 -172h-266l-108 -311h274l-63 -172h-273l-147 -424h-223l147 424h-379l-147 -424h-224zM621 596h378l111 311h-381z" />
    <glyph glyph-name="dollar" unicode="$" horiz-adv-x="1259" 
d="M1196 410q0 -178 -124.5 -292.5t-338.5 -133.5l25 -281h-234l27 283q-191 23 -322 125.5t-180 269.5l219 45q44 -115 144 -177.5t239 -62.5q150 0 233 59t83 165q0 56 -29.5 96.5t-79 64.5t-113.5 42.5t-135 35t-142 36t-135 51.5t-113.5 75.5t-79 114t-29.5 161.5
q0 171 120.5 285t319.5 131l-27 283h234l-27 -289q175 -23 290.5 -118t162.5 -255l-213 -43q-92 213 -350 213q-135 0 -210 -55t-75 -152q0 -59 29.5 -101t79 -66.5t114 -42.5t136 -33.5t143 -33.5t136 -49t114 -74t79 -113.5t29.5 -163.5z" />
    <glyph glyph-name="percent" unicode="%" horiz-adv-x="2277" 
d="M545 668q-93 0 -172.5 24t-143 72.5t-99.5 130t-36 188.5q0 105 36.5 186.5t100.5 130.5t144 74t172 25q89 0 167 -25t141 -74t99.5 -130.5t36.5 -186.5q0 -107 -36 -188.5t-99 -130t-141.5 -72.5t-169.5 -24zM621 0l813 1483h223l-811 -1481zM545 848q116 0 181 61
t65 174q0 110 -66 173t-180 63q-118 0 -185 -62t-67 -174q0 -113 66.5 -174t185.5 -61zM1737 -23q-93 0 -172.5 24t-142.5 72.5t-99.5 130.5t-36.5 189q0 105 36.5 186.5t100.5 130.5t144 74t172 25q89 0 167 -25t141 -74t99.5 -130.5t36.5 -186.5q0 -107 -36 -189
t-99 -130.5t-141.5 -72.5t-169.5 -24zM1737 158q116 0 180.5 61t64.5 174q0 110 -65.5 173t-179.5 63q-118 0 -185 -62t-67 -174q0 -113 66.5 -174t185.5 -61z" />
    <glyph glyph-name="ampersand" unicode="&#x26;" horiz-adv-x="1531" 
d="M713 -27q-276 0 -443.5 115.5t-167.5 312.5q0 293 314 355q-136 35 -208.5 120.5t-72.5 210.5q0 195 155.5 304.5t430.5 109.5q229 0 381.5 -102.5t189.5 -280.5l-217 -37q-33 103 -124.5 156t-225.5 53q-346 0 -346 -229q0 -107 89 -156t267 -49h103v-207h-123
q-199 0 -286 -48t-87 -169q0 -118 100 -178.5t275 -60.5q183 0 289 82.5t106 240.5v334h358v-199h-122v-157q0 -246 -172 -383.5t-463 -137.5z" />
    <glyph glyph-name="quotesingle" unicode="'" horiz-adv-x="393" 
d="M106 815l-26 668h233l-26 -668h-181z" />
    <glyph glyph-name="parenleft" unicode="(" horiz-adv-x="720" 
d="M485 -379q-187 216 -281.5 468t-94.5 521q0 264 92.5 513.5t275.5 467.5h228q-180 -190 -281.5 -448t-101.5 -533q0 -280 103 -539t288 -450h-228z" />
    <glyph glyph-name="parenright" unicode=")" horiz-adv-x="720" 
d="M8 -379q185 191 287 449.5t102 539.5q0 276 -100.5 533.5t-280.5 447.5h226q183 -218 276.5 -468t93.5 -513q0 -266 -96 -518.5t-283 -470.5h-225z" />
    <glyph glyph-name="asterisk" unicode="*" horiz-adv-x="935" 
d="M385 623l12 307l-260 -168l-84 141l279 148l-277 151l80 137l262 -165l-12 309h168l-10 -307l256 165l82 -139l-275 -151l275 -148l-80 -139l-258 166l10 -307h-168z" />
    <glyph glyph-name="plus" unicode="+" horiz-adv-x="1267" 
d="M539 178v471h-453v205h453v451h194v-451h447v-205h-447v-471h-194z" />
    <glyph glyph-name="comma" unicode="," horiz-adv-x="479" 
d="M-51 -248l276 666h236l-328 -666h-184z" />
    <glyph glyph-name="hyphen" unicode="-" horiz-adv-x="817" 
d="M90 520v205h645v-205h-645z" />
    <glyph glyph-name="period" unicode="." horiz-adv-x="434" 
d="M217 -16q-60 0 -97.5 32.5t-37.5 89.5t37.5 90t97.5 33q58 0 96.5 -33t38.5 -90t-38.5 -89.5t-96.5 -32.5z" />
    <glyph glyph-name="slash" unicode="/" horiz-adv-x="958" 
d="M20 0l697 1483h221l-696 -1483h-222z" />
    <glyph glyph-name="zero" unicode="0" horiz-adv-x="1495" 
d="M745 -23q-104 0 -196.5 27t-173.5 86.5t-139.5 147t-92.5 216t-34 285.5q0 154 34.5 281t94 215t141 148t175 88t196.5 28q129 0 241 -45.5t201.5 -135.5t141.5 -239t52 -340q0 -157 -34 -285.5t-93.5 -216t-141.5 -147t-175 -86.5t-197 -27zM745 193q189 0 297.5 143
t108.5 403q0 255 -108.5 400t-294.5 145q-187 0 -296.5 -145t-109.5 -400q0 -260 107 -403t296 -143z" />
    <glyph glyph-name="one" unicode="1" horiz-adv-x="673" 
d="M279 0v1268h-238v215h475v-1483h-237z" />
    <glyph glyph-name="two" unicode="2" horiz-adv-x="1325" 
d="M92 0v209q207 128 350 221t245.5 170t161 130.5t91.5 106.5t43 94t10 97q0 123 -90.5 191.5t-240.5 68.5q-144 0 -238.5 -66t-120.5 -188l-221 33q35 206 187 319t393 113q266 0 421.5 -117t155.5 -333q0 -107 -37 -194t-135 -186t-248 -202.5t-397 -251.5h803v-215
h-1133z" />
    <glyph glyph-name="three" unicode="3" horiz-adv-x="1359" 
d="M674 -27q-241 0 -397.5 106.5t-206.5 301.5l223 39q84 -234 377 -234q167 0 261.5 65.5t94.5 182.5q0 121 -81.5 172t-276.5 51h-123v189h102q344 0 344 215q0 115 -83 174t-244 59q-247 0 -336 -207l-219 35q51 182 196 280.5t363 98.5q264 0 414.5 -110.5t150.5 -303.5
q0 -132 -74.5 -218t-214.5 -115q156 -20 239 -109.5t83 -238.5q0 -195 -162.5 -314t-429.5 -119z" />
    <glyph glyph-name="four" unicode="4" horiz-adv-x="1378" 
d="M889 0v322h-828v192l811 969h254v-963h203v-198h-203v-322h-237zM322 520h567v670z" />
    <glyph glyph-name="five" unicode="5" horiz-adv-x="1363" 
d="M682 -23q-233 0 -386 105t-194 301l213 25q35 -109 127 -165.5t232 -56.5q170 0 272.5 93.5t102.5 250.5q0 152 -102.5 241t-276.5 85q-221 -6 -336 -182l-207 37l133 772h928v-213h-744l-73 -369q138 115 346 121q252 6 406.5 -132.5t154.5 -369.5q0 -243 -164.5 -393
t-431.5 -150z" />
    <glyph glyph-name="six" unicode="6" horiz-adv-x="1398" 
d="M702 -25q-121 0 -228 34.5t-193 102t-136.5 179.5t-50.5 256q0 112 33.5 218t108.5 221.5t172.5 229.5t248.5 267h301q-129 -104 -248.5 -234.5t-195.5 -247.5q110 68 242 68q110 0 208 -33.5t174.5 -97t121.5 -166t45 -231.5q0 -116 -33.5 -211t-90.5 -160
t-134.5 -109.5t-164 -65t-180.5 -20.5zM700 184q171 0 271 95t100 260q0 161 -100.5 254.5t-272.5 93.5t-271 -93.5t-99 -254.5q0 -166 99.5 -260.5t272.5 -94.5z" />
    <glyph glyph-name="seven" unicode="7" horiz-adv-x="1210" 
d="M197 0l702 1268h-842v215h1092v-203l-688 -1280h-264z" />
    <glyph glyph-name="eight" unicode="8" horiz-adv-x="1402" 
d="M700 -25q-172 0 -308 47.5t-217 143.5t-81 227q0 135 81 224t235 126q-143 37 -218 126.5t-75 222.5q0 129 79 222.5t210.5 139t300.5 45.5q167 0 298 -45.5t209 -139t78 -222.5q0 -135 -75 -224t-220 -127q152 -35 232 -124t80 -224q0 -132 -81.5 -228t-217.5 -143
t-310 -47zM702 829q161 0 259 65t98 175q0 109 -96.5 172.5t-257.5 63.5q-163 0 -260 -63.5t-97 -172.5t97 -174.5t257 -65.5zM700 168q171 0 273 66t102 178q0 111 -102 176t-271 65q-170 0 -273 -65t-103 -176q0 -112 102 -178t272 -66z" />
    <glyph glyph-name="nine" unicode="9" horiz-adv-x="1398" 
d="M440 0q131 105 251 235t194 246q-105 -67 -242 -67q-110 0 -208 33.5t-174.5 97.5t-121.5 167t-45 232q0 115 33.5 210t90.5 159.5t135 109t164.5 64.5t180.5 20q96 0 183.5 -21t165.5 -66t135 -111t90 -161.5t33 -211.5q0 -112 -33.5 -218.5t-108 -221.5t-172 -229
t-248.5 -267h-303zM700 596q172 0 272.5 93.5t100.5 254.5q0 165 -100.5 259.5t-274.5 94.5q-171 0 -270.5 -94.5t-99.5 -259.5q0 -161 100.5 -254.5t271.5 -93.5z" />
    <glyph glyph-name="colon" unicode=":" horiz-adv-x="434" 
d="M217 942q-59 0 -97 33.5t-38 89.5q0 57 37.5 90t97.5 33q58 0 96.5 -33t38.5 -90q0 -56 -39 -89.5t-96 -33.5zM217 -16q-60 0 -97.5 32.5t-37.5 89.5t37.5 90t97.5 33q58 0 96.5 -33t38.5 -90t-38.5 -89.5t-96.5 -32.5z" />
    <glyph glyph-name="semicolon" unicode=";" horiz-adv-x="516" 
d="M274 946q-60 0 -97.5 33t-37.5 90t37.5 90t97.5 33q58 0 97 -33t39 -90t-39 -90t-97 -33zM-51 -248l276 666h236l-328 -666h-184z" />
    <glyph glyph-name="less" unicode="&#x3c;" horiz-adv-x="1128" 
d="M1026 123l-924 455v258l924 454v-217l-721 -366l721 -367v-217z" />
    <glyph glyph-name="equal" unicode="=" horiz-adv-x="1265" 
d="M86 891v207h1094v-207h-1094zM86 381v207h1094v-207h-1094z" />
    <glyph glyph-name="greater" unicode="&#x3e;" horiz-adv-x="1128" 
d="M102 137v215l719 367l-719 366v218l922 -453v-260z" />
    <glyph glyph-name="question" unicode="?" horiz-adv-x="1333" 
d="M549 381l-21 340q252 -5 387.5 71t135.5 222q0 136 -104.5 209t-299.5 73q-150 0 -249.5 -66t-133.5 -188l-211 25q38 205 198 320.5t406 115.5q289 0 456 -128t167 -349q0 -195 -144.5 -316t-402.5 -143l-20 -186h-164zM627 -16q-60 0 -97.5 32.5t-37.5 89.5t37.5 90
t97.5 33q58 0 97.5 -33t39.5 -90q0 -56 -39.5 -89t-97.5 -33z" />
    <glyph glyph-name="at" unicode="@" horiz-adv-x="1669" 
d="M850 -23q-345 0 -543 206t-198 556q0 344 196.5 552t523.5 208q333 0 532.5 -176.5t199.5 -472.5q0 -236 -117 -357.5t-334 -121.5h-90l-6 96q-34 -64 -84.5 -92.5t-134.5 -28.5q-151 0 -243.5 107t-92.5 280t92.5 279t243.5 106q152 0 219 -137v121h174v-557
q93 -7 136.5 64.5t43.5 230.5q0 221 -144 347t-397 126q-245 0 -385.5 -154.5t-140.5 -419.5q0 -269 142.5 -422t404.5 -153q231 0 381 121l131 -142q-208 -166 -510 -166zM823 522q97 0 143 52t46 159q0 98 -52 157.5t-137 59.5q-83 0 -134.5 -60t-51.5 -157
q0 -96 51 -153.5t135 -57.5z" />
    <glyph glyph-name="A" unicode="A" horiz-adv-x="1435" 
d="M1204 0l-117 291h-741l-115 -291h-251l618 1483h238l620 -1483h-252zM422 481h590l-295 740z" />
    <glyph glyph-name="B" unicode="B" horiz-adv-x="1398" 
d="M156 0v1483h471q146 0 255 -16.5t181.5 -47.5t117 -79t63 -106t18.5 -134q0 -148 -67.5 -232t-207.5 -110q165 -22 244.5 -105.5t79.5 -244.5q0 -77 -21 -138.5t-69 -113t-123.5 -85.5t-188.5 -52.5t-260 -18.5h-493zM391 848h238q203 0 293 51.5t90 173.5
q0 117 -82.5 160t-306.5 43h-232v-428zM391 205h256q222 0 318 53t96 172q0 130 -89 179.5t-321 49.5h-260v-454z" />
    <glyph glyph-name="C" unicode="C" horiz-adv-x="1552" 
d="M807 -25q-109 0 -208.5 27t-189.5 86t-156 146.5t-105 216.5t-39 286q0 153 38.5 281t105 216t156 149t190 89.5t208.5 28.5q83 0 162 -16.5t157.5 -54.5t142.5 -95t115 -144.5t78 -197.5l-233 -43q-43 161 -155.5 246.5t-266.5 85.5q-206 0 -330.5 -147.5t-124.5 -397.5
q0 -252 123 -396t332 -144q157 0 269.5 87.5t154.5 254.5l233 -43q-26 -112 -76.5 -201.5t-115 -148.5t-143.5 -98t-158.5 -56t-163.5 -17z" />
    <glyph glyph-name="D" unicode="D" horiz-adv-x="1499" 
d="M156 0v1483h391q445 0 644.5 -180.5t199.5 -561.5q0 -378 -199.5 -559.5t-644.5 -181.5h-391zM393 215h162q321 0 458.5 125t137.5 403q0 277 -138 402t-460 125h-160v-1055z" />
    <glyph glyph-name="E" unicode="E" horiz-adv-x="1224" 
d="M156 0v1483h966v-215h-729v-414h692v-205h-692v-434h729v-215h-966z" />
    <glyph glyph-name="F" unicode="F" horiz-adv-x="1128" 
d="M156 0v1483h905v-213h-668v-447h631v-200h-631v-623h-237z" />
    <glyph glyph-name="G" unicode="G" horiz-adv-x="1605" 
d="M801 -16q-316 0 -504 207t-188 554q0 224 87.5 397t246 268t364.5 95q476 0 623 -379l-232 -49q-54 113 -149 167t-238 54q-210 0 -337.5 -152t-127.5 -403q0 -256 125.5 -405.5t339.5 -149.5q199 0 315 110.5t125 322.5h-440v202h684q2 -39 2 -108q0 -339 -187 -535
t-509 -196z" />
    <glyph glyph-name="H" unicode="H" horiz-adv-x="1492" 
d="M156 0v1483h237v-629h705v629h237v-1483h-237v649h-705v-649h-237z" />
    <glyph glyph-name="I" unicode="I" horiz-adv-x="550" 
d="M156 0v1483h237v-1483h-237z" />
    <glyph glyph-name="J" unicode="J" horiz-adv-x="817" 
d="M223 -12q-90 0 -182 18l31 207q46 -10 116 -10q139 0 195.5 83t56.5 269v928h240v-957q0 -281 -111 -409.5t-346 -128.5z" />
    <glyph glyph-name="K" unicode="K" horiz-adv-x="1331" 
d="M156 0v1483h237v-637l631 637h315l-714 -703l727 -780h-305l-654 717v-717h-237z" />
    <glyph glyph-name="L" unicode="L" horiz-adv-x="1073" 
d="M156 0v1483h237v-1268h627v-215h-864z" />
    <glyph glyph-name="M" unicode="M" horiz-adv-x="2035" 
d="M55 0l267 1483h286l410 -1233l409 1233h287l266 -1483h-239l-211 1163l-393 -1163h-238l-393 1163l-211 -1163h-240z" />
    <glyph glyph-name="N" unicode="N" horiz-adv-x="1554" 
d="M156 0v1483h239l764 -1118v1118h238v-1483h-236l-768 1124v-1124h-237z" />
    <glyph glyph-name="O" unicode="O" horiz-adv-x="1615" 
d="M805 -23q-114 0 -215 27t-190 86.5t-153 147t-101 216t-37 285.5q0 154 37.5 281t102 215t154 148t191.5 88t215 28q112 0 213 -28t190 -88t154.5 -147.5t103 -215t37.5 -281.5q0 -157 -37.5 -285.5t-102.5 -216t-155 -147t-191.5 -86.5t-215.5 -27zM805 193
q217 0 341 143t124 403q0 255 -124.5 400t-336.5 145q-217 0 -342 -144.5t-125 -400.5q0 -261 122.5 -403.5t340.5 -142.5z" />
    <glyph glyph-name="P" unicode="P" horiz-adv-x="1325" 
d="M156 0v1483h401q186 0 314 -27t215 -88.5t127 -161t40 -245.5q0 -287 -162.5 -405t-531.5 -118h-166v-438h-237zM393 655h199q221 0 320.5 67t99.5 243q0 175 -99.5 241t-320.5 66h-199v-617z" />
    <glyph glyph-name="Q" unicode="Q" horiz-adv-x="1615" 
d="M1507 739q0 -160 -39 -290.5t-109 -219.5t-160 -146t-200 -83l218 -279h-308l-151 259q-107 6 -202 36t-177.5 90.5t-142 147t-93.5 210.5t-34 275q0 154 37.5 281t102 215t154 148t191.5 88t215 28q112 0 213 -28t190 -88t154.5 -147.5t103 -215t37.5 -281.5zM805 193
q217 0 341 143t124 403q0 255 -124.5 400t-336.5 145q-217 0 -342 -144.5t-125 -400.5q0 -261 122.5 -403.5t340.5 -142.5z" />
    <glyph glyph-name="R" unicode="R" horiz-adv-x="1376" 
d="M1294 0h-274l-326 500q-70 -4 -108 -4h-191v-496h-239v1483h434q352 0 516 -114t164 -376q0 -353 -340 -454zM393 694h215q112 0 185.5 12t129.5 43t81.5 88.5t25.5 145.5t-25.5 146t-81 90.5t-130 45.5t-185.5 13h-215v-584z" />
    <glyph glyph-name="S" unicode="S" horiz-adv-x="1282" 
d="M666 -20q-233 0 -396.5 105.5t-220.5 295.5l223 45q46 -115 148.5 -177.5t243.5 -62.5q153 0 237 59t84 165q0 56 -30 96.5t-80.5 64.5t-115.5 42.5t-137.5 35t-145 36t-137.5 51.5t-115.5 75.5t-80.5 114t-30 161.5q0 186 142.5 302t371.5 116q226 0 374 -97.5
t205 -283.5l-217 -43q-95 213 -356 213q-138 0 -214.5 -55t-76.5 -152q0 -59 30 -101t81 -66.5t116.5 -42.5t138.5 -33.5t145.5 -33.5t138 -49t116.5 -74t81 -113.5t30 -163.5q0 -195 -150.5 -312.5t-402.5 -117.5z" />
    <glyph glyph-name="T" unicode="T" horiz-adv-x="1161" 
d="M463 0v1268h-402v215h1039v-215h-400v-1268h-237z" />
    <glyph glyph-name="U" unicode="U" horiz-adv-x="1505" 
d="M752 -20q-309 0 -463 175t-154 537v791h238v-789q0 -263 91 -380t288 -117t287.5 116.5t90.5 378.5v791h238v-791q0 -361 -154 -536.5t-462 -175.5z" />
    <glyph glyph-name="V" unicode="V" horiz-adv-x="1421" 
d="M584 0l-604 1483h260l471 -1207l471 1207h260l-606 -1483h-252z" />
    <glyph glyph-name="W" unicode="W" horiz-adv-x="2084" 
d="M479 0l-499 1481h256l366 -1145l338 1145h201l340 -1145l368 1145h256l-501 -1481h-226l-338 1141l-335 -1141h-226z" />
    <glyph glyph-name="X" unicode="X" horiz-adv-x="1366" 
d="M-16 0l563 784l-506 699h287l356 -502l356 502h283l-506 -697l563 -786h-282l-416 588l-416 -588h-282z" />
    <glyph glyph-name="Y" unicode="Y" horiz-adv-x="1402" 
d="M580 0v416l-600 1067h268l450 -821l455 821h270l-606 -1067v-416h-237z" />
    <glyph glyph-name="Z" unicode="Z" horiz-adv-x="1271" 
d="M90 0v203l799 1065h-799v215h1073v-201l-796 -1067h796v-215h-1073z" />
    <glyph glyph-name="bracketleft" unicode="[" horiz-adv-x="702" 
d="M156 -379v1946h518v-185h-314v-1579h314v-182h-518z" />
    <glyph glyph-name="backslash" unicode="\" horiz-adv-x="952" 
d="M717 0l-697 1483h222l696 -1483h-221z" />
    <glyph glyph-name="bracketright" unicode="]" horiz-adv-x="704" 
d="M29 -379v182h313v1579h-313v185h518v-1946h-518z" />
    <glyph glyph-name="asciicircum" unicode="^" horiz-adv-x="980" 
d="M90 362l275 578h251l275 -578h-172l-230 418l-227 -418h-172z" />
    <glyph glyph-name="underscore" unicode="_" horiz-adv-x="1523" 
d="M-47 -623v152h1618v-152h-1618z" />
    <glyph glyph-name="grave" unicode="`" horiz-adv-x="872" 
d="M422 1311l-207 352h217l166 -352h-176z" />
    <glyph glyph-name="a" unicode="a" horiz-adv-x="1421" 
d="M633 -27q-111 0 -207.5 39.5t-171 114t-117.5 193t-43 266.5q0 147 42.5 264.5t117 191.5t170.5 113t207 39q141 0 253.5 -66.5t162.5 -185.5v229h229v-1169h-229v221q-49 -117 -162 -183.5t-252 -66.5zM690 170q163 0 263 112.5t100 303.5q0 190 -101 301.5t-266 111.5
q-163 0 -262.5 -111t-99.5 -302q0 -193 100 -304.5t266 -111.5z" />
    <glyph glyph-name="b" unicode="b" horiz-adv-x="1411" 
d="M780 -27q-140 0 -253 66.5t-162 183.5v-221h-230v1550h230v-608q49 118 160.5 184t252.5 66q110 0 206.5 -39t171 -113t118 -191.5t43.5 -264.5q0 -148 -43.5 -266.5t-118 -193t-170.5 -114t-205 -39.5zM725 170q164 0 263 112t99 304q0 190 -100 301.5t-266 111.5
q-163 0 -263 -111t-100 -302q0 -193 100.5 -304.5t266.5 -111.5z" />
    <glyph glyph-name="c" unicode="c" horiz-adv-x="1302" 
d="M674 -23q-253 0 -416.5 171.5t-163.5 437.5t163.5 437t416.5 171q220 0 354.5 -100t190.5 -301l-197 -39q-84 245 -338 245q-160 0 -260 -114.5t-100 -298.5q0 -183 100 -297.5t260 -114.5q120 0 208 64t126 180l196 -39q-47 -190 -188.5 -296t-351.5 -106z" />
    <glyph glyph-name="d" unicode="d" horiz-adv-x="1421" 
d="M633 -27q-111 0 -207.5 39.5t-171 114t-117.5 193t-43 266.5q0 147 42.5 264.5t117 191.5t170.5 113t207 39q141 0 254.5 -66.5t161.5 -185.5v610h229v-1550h-229v221q-49 -117 -162 -183.5t-252 -66.5zM690 170q164 0 263.5 112t99.5 304q0 190 -100.5 301.5
t-266.5 111.5q-163 0 -262.5 -111t-99.5 -302q0 -193 100 -304.5t266 -111.5z" />
    <glyph glyph-name="e" unicode="e" horiz-adv-x="1351" 
d="M696 -23q-273 0 -437.5 166.5t-164.5 442.5q0 270 164.5 439t427.5 169q184 0 318.5 -85t199.5 -236.5t51 -346.5h-931q6 -169 105.5 -262.5t270.5 -93.5q243 0 328 168l211 -33q-142 -328 -543 -328zM330 707h710q-12 141 -104 223t-246 82q-151 0 -245.5 -77.5
t-114.5 -227.5z" />
    <glyph glyph-name="f" unicode="f" horiz-adv-x="796" 
d="M203 0v993h-162v178h162v48q0 378 407 378q112 0 207 -18l-33 -174q-54 10 -129 10q-112 0 -166.5 -50t-54.5 -153v-41h330v-178h-330v-993h-231z" />
    <glyph glyph-name="g" unicode="g" horiz-adv-x="1421" 
d="M682 -424q-206 0 -352.5 86t-206.5 242l217 53q43 -92 134 -145.5t210 -53.5q179 0 271 97t92 311v102q-47 -124 -157.5 -182.5t-256.5 -58.5q-111 0 -208 37t-171 108t-117 183.5t-43 254.5q0 141 42.5 253.5t117 183.5t170.5 108t207 37q148 0 258.5 -59.5
t157.5 -184.5v223h229v-968q0 -323 -149 -475t-445 -152zM688 203q164 0 263.5 109t99.5 298q0 188 -99.5 297t-265.5 109q-164 0 -263 -109.5t-99 -296.5q0 -190 99 -298.5t265 -108.5z" />
    <glyph glyph-name="h" unicode="h" horiz-adv-x="1331" 
d="M135 0v1552h230v-594q37 107 134.5 170.5t248.5 63.5q236 0 354.5 -135t118.5 -422v-635h-230v616q0 196 -76 286.5t-239 90.5q-159 0 -235 -101t-76 -302v-590h-230z" />
    <glyph glyph-name="i" unicode="i" horiz-adv-x="501" 
d="M250 1341q-59 0 -97 33.5t-38 89.5q0 57 37.5 90t97.5 33q58 0 97.5 -33t39.5 -90q0 -55 -40 -89t-97 -34zM135 0v1171h227v-1171h-227z" />
    <glyph glyph-name="j" unicode="j" horiz-adv-x="493" 
d="M242 1341q-60 0 -98 33.5t-38 89.5q0 57 38 90t98 33q58 0 97.5 -33t39.5 -90q0 -55 -40 -89t-97 -34zM31 -389q-70 0 -117 12l25 174q23 -4 45 -4q77 0 110 47.5t33 151.5v1179h229v-1173q0 -195 -75.5 -291t-249.5 -96z" />
    <glyph glyph-name="k" unicode="k" horiz-adv-x="1230" 
d="M1225 0h-307l-541 578v-578h-230v1552h230v-919l518 538h305l-575 -563z" />
    <glyph glyph-name="l" unicode="l" horiz-adv-x="501" 
d="M135 0v1552h232v-1552h-232z" />
    <glyph glyph-name="m" unicode="m" horiz-adv-x="2035" 
d="M135 0v1171h230v-221q31 114 125 178t231 64q148 0 228.5 -63t127.5 -216q41 134 153.5 207.5t276.5 73.5q221 0 319.5 -140.5t98.5 -457.5v-596h-229v578q0 224 -63.5 320.5t-209.5 96.5q-151 0 -217.5 -97t-66.5 -316v-582h-230v575q0 230 -58.5 324t-201.5 94
q-149 0 -216.5 -104t-67.5 -330v-559h-230z" />
    <glyph glyph-name="n" unicode="n" horiz-adv-x="1331" 
d="M135 0v1171h230v-213q40 111 139 172.5t244 61.5q241 0 357 -138.5t116 -418.5v-635h-230v616q0 193 -76.5 285t-238.5 92t-236.5 -102t-74.5 -301v-590h-230z" />
    <glyph glyph-name="o" unicode="o" horiz-adv-x="1374" 
d="M688 -27q-92 0 -177.5 22.5t-161.5 71t-132.5 119t-89.5 173.5t-33 227q0 123 33 225t89 172t132.5 118t161 70.5t176.5 22.5t177 -22.5t161.5 -70.5t133 -118t89.5 -172t33 -225q0 -154 -50 -274.5t-134.5 -192.5t-188 -109t-219.5 -37zM688 170q164 0 263.5 112
t99.5 304q0 190 -100.5 301.5t-264.5 111.5t-263 -110.5t-99 -302.5q0 -193 99 -304.5t265 -111.5z" />
    <glyph glyph-name="p" unicode="p" horiz-adv-x="1411" 
d="M135 -379v1550h230v-221q46 113 157 179.5t258 66.5q106 0 200 -36.5t170.5 -107.5t121.5 -191t45 -273q0 -123 -30 -224.5t-81 -171.5t-120 -118t-146.5 -70t-161.5 -22q-146 0 -256.5 66.5t-156.5 180.5v-608h-230zM721 174q166 0 266 111.5t100 302.5q0 192 -99 304
t-263 112q-166 0 -266.5 -111.5t-100.5 -304.5q0 -191 100 -302.5t263 -111.5z" />
    <glyph glyph-name="q" unicode="q" horiz-adv-x="1411" 
d="M1047 -381v610q-46 -113 -157.5 -181t-256.5 -68q-84 0 -161.5 22t-146.5 70t-120 118t-81 171.5t-30 224.5q0 153 45 273t121.5 192t170.5 108.5t200 36.5q147 0 258.5 -67.5t157.5 -180.5v221h229v-1550h-229zM690 174q163 0 263 110.5t100 301.5q0 193 -100.5 304
t-266.5 111q-164 0 -263 -111.5t-99 -303.5q0 -190 100 -301t266 -111z" />
    <glyph glyph-name="r" unicode="r" horiz-adv-x="794" 
d="M135 0v1171h230v-196q18 50 49 90t82 72.5t119 42.5t161 0l-24 -222q-194 36 -290.5 -61.5t-96.5 -316.5v-580h-230z" />
    <glyph glyph-name="s" unicode="s" horiz-adv-x="1177" 
d="M608 -20q-198 0 -347.5 82.5t-203.5 220.5l209 57q43 -79 131 -121.5t211 -42.5q136 0 208.5 42t72.5 122q0 43 -26.5 72t-72 45t-104 26.5t-123 20.5t-129 22.5t-123 37t-104 59.5t-72 94.5t-26.5 138.5q0 148 138.5 242t344.5 94q163 0 304.5 -74.5t193.5 -193.5
l-205 -56q-36 64 -115 100t-174 36q-123 0 -192.5 -40t-69.5 -112q0 -47 34 -78t89 -45t125.5 -26.5t144.5 -21.5t144.5 -32t125.5 -56.5t89 -96.5t34 -150q0 -169 -138.5 -267.5t-373.5 -98.5z" />
    <glyph glyph-name="t" unicode="t" horiz-adv-x="835" 
d="M641 -16q-230 0 -334 109.5t-104 373.5v526h-170v178h170v215l231 50v-265h346v-178h-346v-499q0 -181 54 -253.5t188 -72.5q19 0 94 10l31 -178q-72 -16 -160 -16z" />
    <glyph glyph-name="u" unicode="u" horiz-adv-x="1339" 
d="M584 -23q-241 0 -357 139.5t-116 418.5v636h229v-618q0 -193 74.5 -284t238.5 -91q162 0 237 102.5t75 301.5v589h229v-1171h-229v213q-39 -111 -138 -173.5t-243 -62.5z" />
    <glyph glyph-name="v" unicode="v" horiz-adv-x="1267" 
d="M518 -2l-512 1173h250l377 -921l377 921h254l-516 -1173h-230z" />
    <glyph glyph-name="w" unicode="w" horiz-adv-x="1945" 
d="M457 0l-451 1171h248l326 -903l303 903h180l303 -903l326 903h250l-455 -1171h-232l-282 856l-283 -856h-233z" />
    <glyph glyph-name="x" unicode="x" horiz-adv-x="1214" 
d="M-8 0l481 616l-428 555h270l293 -391l291 391h275l-431 -555l478 -616h-267l-344 461l-350 -461h-268z" />
    <glyph glyph-name="y" unicode="y" horiz-adv-x="1267" 
d="M340 -379l172 387l-506 1163h252l377 -915l377 915h252l-672 -1550h-252z" />
    <glyph glyph-name="z" unicode="z" horiz-adv-x="1175" 
d="M102 0v193l693 790h-682v188h960v-192l-694 -789h684v-190h-961z" />
    <glyph glyph-name="braceleft" unicode="{" horiz-adv-x="749" 
d="M238 -379v633q0 146 -40.5 198t-148.5 64v189q56 6 89 18.5t57 41.5t33.5 77t9.5 125v600h483v-185h-287v-477q0 -125 -34 -194.5t-119 -100.5q84 -34 118.5 -104t34.5 -191v-512h287v-182h-483z" />
    <glyph glyph-name="bar" unicode="|" horiz-adv-x="518" 
d="M156 -379v1931h204v-1931h-204z" />
    <glyph glyph-name="braceright" unicode="}" horiz-adv-x="749" 
d="M29 -379v184h288v508q0 122 34.5 191.5t119.5 103.5q-85 33 -119.5 102.5t-34.5 192.5v481h-288v183h483v-602q0 -102 19 -156.5t57 -76t112 -30.5v-188q-108 -12 -148 -64t-40 -198v-631h-483z" />
    <glyph glyph-name="asciitilde" unicode="~" horiz-adv-x="995" 
d="M176 510l-94 139q97 92 225 92q65 0 188.5 -33.5t178.5 -33.5q89 0 147 55l92 -139q-101 -96 -235 -96q-69 0 -192 33.5t-173 33.5q-83 0 -137 -51z" />
    <glyph glyph-name="uni00A0" unicode="&#xa0;" horiz-adv-x="571" 
 />
    <glyph glyph-name="exclamdown" unicode="&#xa1;" horiz-adv-x="505" 
d="M254 1501q57 0 96 -34t39 -91t-38.5 -90t-96.5 -33q-60 0 -97.5 33t-37.5 90t37.5 91t97.5 34zM172 1102h164l51 -1102h-268z" />
    <glyph glyph-name="cent" unicode="&#xa2;" horiz-adv-x="1300" 
d="M674 174q118 0 203.5 64t123.5 180l193 -39q-40 -165 -151.5 -267.5t-278.5 -127.5l27 -281h-236l27 281q-218 29 -353 194.5t-135 407.5t135 407.5t351 194.5l-25 262h236l-25 -262q337 -43 432 -395l-192 -39q-43 125 -124.5 185t-207.5 60q-157 0 -256 -114.5
t-99 -298.5q0 -183 99 -297.5t256 -114.5z" />
    <glyph glyph-name="sterling" unicode="&#xa3;" horiz-adv-x="1390" 
d="M498 618q77 -296 -133 -405h944v-213h-1235v213q71 23 120 50.5t76 59.5t39.5 63.5t10 72t-11.5 75.5t-27 84h-215v195h141q-39 115 -39 213q0 227 152 350t432 123q238 0 381.5 -95t181.5 -278l-219 -41q-61 211 -342 211q-172 0 -263.5 -74.5t-91.5 -215.5
q0 -71 43 -193h582v-195h-526z" />
    <glyph glyph-name="yen" unicode="&#xa5;" horiz-adv-x="1402" 
d="M1423 1483l-528 -910h332v-184h-410v-389h-237v389h-402v184h324l-522 910h268l450 -805l455 805h270z" />
    <glyph glyph-name="brokenbar" unicode="&#xa6;" horiz-adv-x="518" 
d="M156 707v843h204v-843h-204zM156 -379v844h204v-844h-204z" />
    <glyph glyph-name="section" unicode="&#xa7;" horiz-adv-x="1081" 
d="M539 -12q-168 0 -299 67.5t-191 196.5l211 55q78 -129 279 -129q122 0 188 31t66 88q0 49 -39.5 79t-102.5 44.5t-139.5 25t-153.5 26.5t-140.5 43t-104 81.5t-41.5 134.5q-1 87 50.5 151.5t139.5 86.5q-84 32 -129 90t-45 133q0 143 118 222t324 79q164 0 289.5 -68.5
t177.5 -199.5l-206 -45q-35 60 -101 94.5t-155 34.5q-103 0 -162.5 -28.5t-59.5 -78.5q0 -41 30 -69.5t79 -42.5t112 -26.5t128.5 -21.5t128.5 -29t112.5 -47t80.5 -76.5t32 -117.5q1 -85 -50 -149.5t-137 -87.5q90 -29 139.5 -89.5t49.5 -140.5q0 -152 -126 -234.5
t-353 -82.5zM545 621q121 0 185.5 34t64.5 97q0 131 -250 131q-254 0 -254 -131q0 -63 65.5 -97t188.5 -34z" />
    <glyph glyph-name="dieresis" unicode="&#xa8;" horiz-adv-x="1148" 
d="M379 1327q-45 0 -77 33.5t-32 79.5t31.5 78t77.5 32q44 0 76 -32t32 -78t-32 -79.5t-76 -33.5zM741 1327q-45 0 -77.5 33.5t-32.5 79.5t32 78t78 32q44 0 75.5 -32t31.5 -78t-31.5 -79.5t-75.5 -33.5z" />
    <glyph glyph-name="copyright" unicode="&#xa9;" horiz-adv-x="1654" 
d="M825 -23q-114 0 -217 27t-195 86.5t-159 147t-106 216t-39 285.5q0 154 39.5 281.5t107 215t160 147.5t196 88t217.5 28q112 0 215 -28t195 -88t160 -147.5t107.5 -215t39.5 -281.5q0 -157 -39.5 -285.5t-107 -216t-160.5 -147t-196.5 -86.5t-217.5 -27zM825 164
q239 0 381 151t142 424q0 267 -143 420.5t-378 153.5q-240 0 -383 -152.5t-143 -421.5q0 -274 140.5 -424.5t383.5 -150.5zM821 334q-158 0 -263 114.5t-105 292.5q0 179 105 294.5t263 115.5q134 0 222 -61.5t122 -178.5l-166 -57q-43 113 -172 113q-82 0 -135 -62.5
t-53 -163.5t53 -164t135 -63q130 0 172 117l168 -51q-32 -120 -120.5 -183t-225.5 -63z" />
    <glyph glyph-name="ordfeminine" unicode="&#xaa;" horiz-adv-x="1372" 
d="M608 369q-107 0 -198.5 35.5t-162.5 104t-112 179.5t-41 252q0 140 40.5 250t111 178.5t162 103.5t198.5 35q138 0 242 -56.5t149 -174.5v209h230v-1094h-230v207q-45 -118 -148 -173.5t-241 -55.5zM666 565q154 0 246 98t92 277q0 177 -92.5 275t-249.5 98
q-154 0 -246 -97.5t-92 -275.5q0 -181 92.5 -278t249.5 -97z" />
    <glyph glyph-name="guillemotleft" unicode="&#xab;" horiz-adv-x="1282" 
d="M524 92l-446 483l446 482h199l-389 -482l391 -483h-201zM1008 92l-447 483l447 482h198l-389 -482l391 -483h-200z" />
    <glyph glyph-name="registered" unicode="&#xae;" horiz-adv-x="1654" 
d="M825 -23q-114 0 -217 27t-195 86.5t-159 147t-106 216t-39 285.5q0 154 39.5 281.5t107 215t160 147.5t196 88t217.5 28q112 0 215 -28t195 -88t160 -147.5t107.5 -215t39.5 -281.5q0 -157 -39.5 -285.5t-107 -216t-160.5 -147t-196.5 -86.5t-217.5 -27zM825 164
q239 0 381 151t142 424q0 267 -143 420.5t-378 153.5q-240 0 -383 -152.5t-143 -421.5q0 -274 140.5 -424.5t383.5 -150.5zM547 367v757h252q180 0 269 -64.5t89 -201.5q0 -192 -180 -248l180 -243h-223l-137 223h-66v-223h-184zM731 752h74q92 0 130 21t38 83t-37.5 82
t-130.5 20h-74v-206z" />
    <glyph glyph-name="macron" unicode="&#xaf;" horiz-adv-x="1032" 
d="M184 1333v158h658v-158h-658z" />
    <glyph glyph-name="degree" unicode="&#xb0;" horiz-adv-x="792" 
d="M397 887q-136 0 -226.5 82t-90.5 223q0 139 90.5 220t226.5 81t225 -81t89 -220q0 -141 -89 -223t-225 -82zM397 1055q62 0 98.5 37t36.5 100t-36.5 99t-98.5 36t-99.5 -36.5t-37.5 -98.5q0 -63 37.5 -100t99.5 -37z" />
    <glyph glyph-name="uni00B2" unicode="&#xb2;" horiz-adv-x="1060" 
d="M98 410v168q172 100 275.5 164t190 124t128 104t63 87t21.5 90q0 89 -65.5 137.5t-188.5 48.5q-102 0 -168 -45.5t-88 -130.5l-172 33q28 151 138 231t290 80q212 0 328.5 -87.5t116.5 -250.5q0 -65 -24 -124t-66.5 -111.5t-117.5 -110.5t-160.5 -112t-211.5 -125h563
v-170h-852z" />
    <glyph glyph-name="uni00B3" unicode="&#xb3;" horiz-adv-x="1046" 
d="M514 393q-181 0 -298 81t-142 222l176 31q15 -80 83 -121t179 -41q250 0 250 164q0 86 -56 119t-194 33h-86v155h72q123 0 182 33.5t59 108.5q0 83 -55.5 118t-177.5 35q-94 0 -155 -37.5t-81 -109.5l-170 28q25 133 134.5 210t275.5 77q204 0 311 -77t107 -226
q0 -84 -48 -147.5t-128 -85.5q98 -22 148 -87.5t50 -168.5q0 -148 -116 -231t-320 -83z" />
    <glyph glyph-name="acute" unicode="&#xb4;" horiz-adv-x="872" 
d="M252 1311l166 352h215l-205 -352h-176z" />
    <glyph glyph-name="paragraph" unicode="&#xb6;" horiz-adv-x="690" 
d="M328 2l2 1036h-19q-77 0 -127.5 17t-74 50.5t-31.5 68.5t-8 86q0 50 10.5 87t37.5 69.5t79.5 49.5t130.5 17h204v-1481h-204z" />
    <glyph glyph-name="periodcentered" unicode="&#xb7;" horiz-adv-x="434" 
d="M217 504q-59 0 -97 33.5t-38 89.5q0 57 37.5 90t97.5 33q58 0 96.5 -33t38.5 -90q0 -56 -39 -89.5t-96 -33.5z" />
    <glyph glyph-name="cedilla" unicode="&#xb8;" horiz-adv-x="927" 
d="M209 -279l199 312h167l-141 -312h-225z" />
    <glyph glyph-name="uni00B9" unicode="&#xb9;" horiz-adv-x="532" 
d="M215 410v903h-174v170h360v-1073h-186z" />
    <glyph glyph-name="ordmasculine" unicode="&#xba;" horiz-adv-x="1325" 
d="M664 365q-89 0 -170.5 20t-155 64t-127.5 109t-85.5 162t-31.5 216q0 117 31.5 213t85.5 161t127.5 109t154.5 64t169 20q89 0 170.5 -20t154.5 -64t127 -109t85.5 -161t31.5 -213q0 -119 -31.5 -216t-85 -162t-127 -109t-154 -64t-169.5 -20zM664 561q155 0 246 97.5
t91 277.5q0 178 -92 275.5t-247 97.5t-246.5 -97.5t-91.5 -275.5q0 -180 91.5 -277.5t248.5 -97.5z" />
    <glyph glyph-name="guillemotright" unicode="&#xbb;" horiz-adv-x="1282" 
d="M74 92l393 483l-391 482h198l447 -482l-447 -483h-200zM557 92l393 483l-391 482h199l446 -482l-446 -483h-201z" />
    <glyph glyph-name="onequarter" unicode="&#xbc;" horiz-adv-x="2037" 
d="M213 410v903h-170v170h352v-1073h-182zM328 0l944 1483h194l-944 -1483h-194zM1671 0v209h-586v164l560 704h213v-708h122v-160h-122v-209h-187zM1262 369h409v503z" />
    <glyph glyph-name="onehalf" unicode="&#xbd;" horiz-adv-x="2273" 
d="M211 410v903h-170v170h356v-1073h-186zM336 0l944 1483h195l-943 -1483h-196zM1321 0v168q169 101 270 164.5t186 124t125.5 104t61.5 86.5t21 90q0 90 -64.5 138.5t-185.5 48.5q-98 0 -163 -45.5t-87 -130.5l-170 32q28 151 136.5 231.5t283.5 80.5q208 0 323 -87.5
t115 -250.5q0 -81 -33 -151t-109 -141.5t-173 -137t-252 -154.5h551v-170h-836z" />
    <glyph glyph-name="threequarters" unicode="&#xbe;" horiz-adv-x="2424" 
d="M514 393q-181 0 -298 81t-142 222l176 31q15 -80 83 -121t179 -41q250 0 250 164q0 86 -56 119t-194 33h-86v155h72q123 0 182 33.5t59 108.5q0 83 -55.5 118t-177.5 35q-94 0 -155 -37.5t-81 -109.5l-170 28q25 133 134.5 210t275.5 77q204 0 311 -77t107 -226
q0 -84 -48 -147.5t-128 -85.5q98 -22 148 -87.5t50 -168.5q0 -148 -116 -231t-320 -83zM743 0l945 1483h194l-942 -1483h-197zM2058 0v209h-588v164l562 704h213v-708h122v-160h-122v-209h-187zM1649 369h409v503z" />
    <glyph glyph-name="questiondown" unicode="&#xbf;" horiz-adv-x="1320" 
d="M707 1503q60 0 97.5 -33t37.5 -90t-37.5 -90t-97.5 -33q-58 0 -98 33.5t-40 89.5t40 89.5t98 33.5zM784 1106l21 -340q-252 5 -387 -71t-135 -222q0 -137 104 -210t299 -73q150 0 249.5 66t133.5 188l211 -24q-38 -205 -198 -320.5t-406 -115.5q-289 0 -456 128t-167 349
q0 195 144.5 316t402.5 143l21 186h163z" />
    <glyph glyph-name="Agrave" unicode="&#xc0;" horiz-adv-x="1435" 
d="M807 1610h-176l-207 352h217zM1204 0l-117 291h-741l-115 -291h-251l618 1483h238l620 -1483h-252zM422 481h590l-295 740z" />
    <glyph glyph-name="Aacute" unicode="&#xc1;" horiz-adv-x="1435" 
d="M1010 1962l-205 -352h-176l166 352h215zM1204 0l-117 291h-741l-115 -291h-251l618 1483h238l620 -1483h-252zM422 481h590l-295 740z" />
    <glyph glyph-name="Acircumflex" unicode="&#xc2;" horiz-adv-x="1435" 
d="M717 1835l-215 -223h-187l279 348h246l280 -348h-188zM1204 0l-117 291h-741l-115 -291h-251l618 1483h238l620 -1483h-252zM422 481h590l-295 740z" />
    <glyph glyph-name="Atilde" unicode="&#xc3;" horiz-adv-x="1435" 
d="M1112 1712q-52 -53 -109 -79t-109.5 -26.5t-105.5 9t-103.5 22.5t-96 19t-90.5 -6.5t-80 -48.5l-96 127q49 52 104.5 76t107 24t104.5 -9.5t104 -22t98 -17.5t93 9t83 52zM1204 0l-117 291h-741l-115 -291h-251l618 1483h238l620 -1483h-252zM422 481h590l-295 740z" />
    <glyph glyph-name="Adieresis" unicode="&#xc4;" horiz-adv-x="1435" 
d="M532 1626q-45 0 -77.5 33.5t-32.5 79.5t32 78t78 32t78.5 -32t32.5 -78t-32.5 -79.5t-78.5 -33.5zM903 1626q-47 0 -79.5 33.5t-32.5 79.5t32.5 78t79.5 32q45 0 77 -32.5t32 -77.5q0 -46 -32.5 -79.5t-76.5 -33.5zM1204 0l-117 291h-741l-115 -291h-251l618 1483h238
l620 -1483h-252zM422 481h590l-295 740z" />
    <glyph glyph-name="Aring" unicode="&#xc5;" horiz-adv-x="1435" 
d="M717 1606q-110 0 -181 66.5t-71 176.5q0 107 71.5 173.5t180.5 66.5q110 0 181 -66t71 -174q0 -111 -70.5 -177t-181.5 -66zM717 1946q-45 0 -70.5 -26t-25.5 -71q0 -44 26.5 -72t69.5 -28q44 0 71 28t27 72q0 45 -26.5 71t-71.5 26zM1204 0l-117 291h-741l-115 -291
h-251l618 1483h238l620 -1483h-252zM422 481h590l-295 740z" />
    <glyph glyph-name="AE" unicode="&#xc6;" horiz-adv-x="2045" 
d="M1944 1268h-717v-414h686v-205h-686v-434h717v-215h-955v291h-606l-193 -291h-258l994 1483h1018v-215zM510 481h479v721z" />
    <glyph glyph-name="Ccedilla" unicode="&#xc7;" horiz-adv-x="1552" 
d="M1464 496q-23 -99 -65 -180t-95.5 -138t-120 -98.5t-135 -64.5t-143.5 -33l-119 -261h-229l168 259q-100 10 -188.5 43t-168 94.5t-136.5 146.5t-90 206t-33 267q0 153 38.5 281t105 216t156 149t190 89.5t208.5 28.5q83 0 162 -16.5t157.5 -54.5t142.5 -95t115 -144.5
t78 -197.5l-233 -43q-43 161 -155.5 246.5t-266.5 85.5q-206 0 -330.5 -147.5t-124.5 -397.5q0 -252 123 -396t332 -144q157 0 269.5 87.5t154.5 254.5z" />
    <glyph glyph-name="Egrave" unicode="&#xc8;" horiz-adv-x="1224" 
d="M565 1595l-207 353h217l166 -353h-176zM156 0v1483h966v-215h-729v-414h692v-205h-692v-434h729v-215h-966z" />
    <glyph glyph-name="Eacute" unicode="&#xc9;" horiz-adv-x="1224" 
d="M563 1595l166 353h215l-205 -353h-176zM156 0v1483h966v-215h-729v-414h692v-205h-692v-434h729v-215h-966z" />
    <glyph glyph-name="Ecircumflex" unicode="&#xca;" horiz-adv-x="1224" 
d="M250 1597l278 349h246l281 -349h-189l-215 224l-215 -224h-186zM156 0v1483h966v-215h-729v-414h692v-205h-692v-434h729v-215h-966z" />
    <glyph glyph-name="Edieresis" unicode="&#xcb;" horiz-adv-x="1224" 
d="M467 1612q-46 0 -78.5 33t-32.5 79t32.5 78.5t78.5 32.5t78.5 -32.5t32.5 -78.5t-32.5 -79t-78.5 -33zM838 1612q-47 0 -80 33t-33 79t33 78.5t80 32.5q44 0 76 -32.5t32 -78.5t-32 -79t-76 -33zM156 0v1483h966v-215h-729v-414h692v-205h-692v-434h729v-215h-966z" />
    <glyph glyph-name="Igrave" unicode="&#xcc;" horiz-adv-x="550" 
d="M190 1610l-206 352h217l166 -352h-177zM156 0v1483h237v-1483h-237z" />
    <glyph glyph-name="Iacute" unicode="&#xcd;" horiz-adv-x="550" 
d="M188 1610l166 352h215l-204 -352h-177zM156 0v1483h237v-1483h-237z" />
    <glyph glyph-name="Icircumflex" unicode="&#xce;" horiz-adv-x="550" 
d="M-125 1612l279 348h245l281 -348h-188l-216 223l-215 -223h-186zM156 0v1483h237v-1483h-237z" />
    <glyph glyph-name="Idieresis" unicode="&#xcf;" horiz-adv-x="550" 
d="M92 1626q-45 0 -77.5 33.5t-32.5 79.5t32 78t78 32t78.5 -32t32.5 -78t-32.5 -79.5t-78.5 -33.5zM463 1626q-47 0 -80 33.5t-33 79.5t33 78t80 32q44 0 76 -32t32 -78t-32 -79.5t-76 -33.5zM156 0v1483h237v-1483h-237z" />
    <glyph glyph-name="Eth" unicode="&#xd0;" horiz-adv-x="1525" 
d="M573 1483q445 0 644.5 -180.5t199.5 -561.5q0 -378 -199.5 -559.5t-644.5 -181.5h-391v668h-137v176h137v639h391zM582 215q321 0 458.5 125t137.5 403q0 277 -138 402t-460 125h-160v-426h307v-176h-307v-453h162z" />
    <glyph glyph-name="Ntilde" unicode="&#xd1;" horiz-adv-x="1554" 
d="M467 1593l-96 127q49 52 104.5 76t107 24.5t104.5 -9.5t104 -22t98 -17.5t93 9t83 52.5l96 -129q-52 -53 -109 -79t-109.5 -26.5t-105.5 9t-103.5 22t-96 18.5t-90.5 -6.5t-80 -48.5zM156 0v1483h239l764 -1118v1118h238v-1483h-236l-768 1124v-1124h-237z" />
    <glyph glyph-name="Ograve" unicode="&#xd2;" horiz-adv-x="1615" 
d="M721 1610l-207 352h217l166 -352h-176zM805 -23q-114 0 -215 27t-190 86.5t-153 147t-101 216t-37 285.5q0 154 37.5 281t102 215t154 148t191.5 88t215 28q112 0 213 -28t190 -88t154.5 -147.5t103 -215t37.5 -281.5q0 -157 -37.5 -285.5t-102.5 -216t-155 -147
t-191.5 -86.5t-215.5 -27zM805 193q217 0 341 143t124 403q0 255 -124.5 400t-336.5 145q-217 0 -342 -144.5t-125 -400.5q0 -261 122.5 -403.5t340.5 -142.5z" />
    <glyph glyph-name="Oacute" unicode="&#xd3;" horiz-adv-x="1615" 
d="M719 1610l166 352h215l-205 -352h-176zM805 -23q-114 0 -215 27t-190 86.5t-153 147t-101 216t-37 285.5q0 154 37.5 281t102 215t154 148t191.5 88t215 28q112 0 213 -28t190 -88t154.5 -147.5t103 -215t37.5 -281.5q0 -157 -37.5 -285.5t-102.5 -216t-155 -147
t-191.5 -86.5t-215.5 -27zM805 193q217 0 341 143t124 403q0 255 -124.5 400t-336.5 145q-217 0 -342 -144.5t-125 -400.5q0 -261 122.5 -403.5t340.5 -142.5z" />
    <glyph glyph-name="Ocircumflex" unicode="&#xd4;" horiz-adv-x="1615" 
d="M406 1612l278 348h246l280 -348h-188l-215 223l-215 -223h-186zM805 -23q-114 0 -215 27t-190 86.5t-153 147t-101 216t-37 285.5q0 154 37.5 281t102 215t154 148t191.5 88t215 28q112 0 213 -28t190 -88t154.5 -147.5t103 -215t37.5 -281.5q0 -157 -37.5 -285.5
t-102.5 -216t-155 -147t-191.5 -86.5t-215.5 -27zM805 193q217 0 341 143t124 403q0 255 -124.5 400t-336.5 145q-217 0 -342 -144.5t-125 -400.5q0 -261 122.5 -403.5t340.5 -142.5z" />
    <glyph glyph-name="Otilde" unicode="&#xd5;" horiz-adv-x="1615" 
d="M508 1602l-96 127q49 52 104.5 76t107 24t104.5 -9.5t104 -22t98 -17.5t93 9t83 52l96 -129q-52 -53 -109 -79t-109.5 -26.5t-105.5 9t-103.5 22.5t-96 19t-90.5 -6.5t-80 -48.5zM805 -23q-114 0 -215 27t-190 86.5t-153 147t-101 216t-37 285.5q0 154 37.5 281t102 215
t154 148t191.5 88t215 28q112 0 213 -28t190 -88t154.5 -147.5t103 -215t37.5 -281.5q0 -157 -37.5 -285.5t-102.5 -216t-155 -147t-191.5 -86.5t-215.5 -27zM805 193q217 0 341 143t124 403q0 255 -124.5 400t-336.5 145q-217 0 -342 -144.5t-125 -400.5
q0 -261 122.5 -403.5t340.5 -142.5z" />
    <glyph glyph-name="Odieresis" unicode="&#xd6;" horiz-adv-x="1615" 
d="M623 1626q-46 0 -78.5 33.5t-32.5 79.5t32.5 78t78.5 32t78 -32t32 -78t-32.5 -79.5t-77.5 -33.5zM993 1626q-47 0 -79.5 33.5t-32.5 79.5t32.5 78t79.5 32q45 0 77 -32.5t32 -77.5q0 -46 -32.5 -79.5t-76.5 -33.5zM805 -23q-114 0 -215 27t-190 86.5t-153 147t-101 216
t-37 285.5q0 154 37.5 281t102 215t154 148t191.5 88t215 28q112 0 213 -28t190 -88t154.5 -147.5t103 -215t37.5 -281.5q0 -157 -37.5 -285.5t-102.5 -216t-155 -147t-191.5 -86.5t-215.5 -27zM805 193q217 0 341 143t124 403q0 255 -124.5 400t-336.5 145
q-217 0 -342 -144.5t-125 -400.5q0 -261 122.5 -403.5t340.5 -142.5z" />
    <glyph glyph-name="multiply" unicode="&#xd7;" horiz-adv-x="1081" 
d="M201 262l-133 135l340 348l-340 349l133 133l340 -348l342 350l131 -133l-340 -351l340 -348l-131 -133l-342 346z" />
    <glyph glyph-name="Oslash" unicode="&#xd8;" horiz-adv-x="1615" 
d="M1233 1370q129 -95 201.5 -253t72.5 -378q0 -157 -37.5 -285.5t-102.5 -216t-155 -147t-191.5 -86.5t-215.5 -27q-133 0 -248 37l-68 -135h-223l113 225q-127 93 -198.5 252.5t-71.5 382.5q0 154 37.5 281t102 215t154 148t191.5 88t215 28q132 0 248 -39l65 133h221z
M342 739q0 -280 141 -424l473 949q-75 20 -147 20q-217 0 -342 -144.5t-125 -400.5zM805 193q217 0 341 143t124 403q0 273 -144 420l-471 -946q64 -20 150 -20z" />
    <glyph glyph-name="Ugrave" unicode="&#xd9;" horiz-adv-x="1505" 
d="M668 1610l-207 352h217l166 -352h-176zM752 -20q-309 0 -463 175t-154 537v791h238v-789q0 -263 91 -380t288 -117t287.5 116.5t90.5 378.5v791h238v-791q0 -361 -154 -536.5t-462 -175.5z" />
    <glyph glyph-name="Uacute" unicode="&#xda;" horiz-adv-x="1505" 
d="M666 1610l165 352h216l-205 -352h-176zM752 -20q-309 0 -463 175t-154 537v791h238v-789q0 -263 91 -380t288 -117t287.5 116.5t90.5 378.5v791h238v-791q0 -361 -154 -536.5t-462 -175.5z" />
    <glyph glyph-name="Ucircumflex" unicode="&#xdb;" horiz-adv-x="1505" 
d="M352 1612l279 348h246l280 -348h-188l-215 223l-215 -223h-187zM752 -20q-309 0 -463 175t-154 537v791h238v-789q0 -263 91 -380t288 -117t287.5 116.5t90.5 378.5v791h238v-791q0 -361 -154 -536.5t-462 -175.5z" />
    <glyph glyph-name="Udieresis" unicode="&#xdc;" horiz-adv-x="1505" 
d="M569 1626q-45 0 -77.5 33.5t-32.5 79.5t32 78t78 32t78.5 -32t32.5 -78t-32.5 -79.5t-78.5 -33.5zM940 1626q-47 0 -80 33.5t-33 79.5t33 78t80 32q44 0 76.5 -32.5t32.5 -77.5q0 -46 -32.5 -79.5t-76.5 -33.5zM752 -20q-309 0 -463 175t-154 537v791h238v-789
q0 -263 91 -380t288 -117t287.5 116.5t90.5 378.5v791h238v-791q0 -361 -154 -536.5t-462 -175.5z" />
    <glyph glyph-name="Yacute" unicode="&#xdd;" horiz-adv-x="1402" 
d="M614 1610l166 352h215l-204 -352h-177zM580 0v416l-600 1067h268l450 -821l455 821h270l-606 -1067v-416h-237z" />
    <glyph glyph-name="Thorn" unicode="&#xde;" horiz-adv-x="1366" 
d="M156 0v1483h237v-211h215q360 0 523 -118.5t163 -403.5q0 -284 -163.5 -403.5t-522.5 -119.5h-215v-227h-237zM393 444h240q220 0 320 67t100 243q0 90 -25.5 150t-80.5 94.5t-130 48.5t-184 14h-240v-617z" />
    <glyph glyph-name="germandbls" unicode="&#xdf;" horiz-adv-x="1396" 
d="M180 0v989h-147v182h147q0 193 122 304.5t360 111.5q235 0 364 -82t129 -231q0 -100 -50 -162.5t-144 -81.5q167 -32 262.5 -159t95.5 -318q0 -259 -139 -411t-377 -152q-145 0 -268 26l32 189q93 -21 178 -21q162 -2 253.5 101.5t91.5 289.5q0 184 -116 277t-341 88v182
h78q118 0 172.5 32t54.5 101q0 71 -65 108.5t-189 37.5q-139 0 -205.5 -68.5t-66.5 -210.5v-1122h-232z" />
    <glyph glyph-name="agrave" unicode="&#xe0;" horiz-adv-x="1421" 
d="M618 1311l-206 352h217l166 -352h-177zM633 -27q-111 0 -207.5 39.5t-171 114t-117.5 193t-43 266.5q0 147 42.5 264.5t117 191.5t170.5 113t207 39q141 0 253.5 -66.5t162.5 -185.5v229h229v-1169h-229v221q-49 -117 -162 -183.5t-252 -66.5zM690 170q163 0 263 112.5
t100 303.5q0 190 -101 301.5t-266 111.5q-163 0 -262.5 -111t-99.5 -302q0 -193 100 -304.5t266 -111.5z" />
    <glyph glyph-name="aacute" unicode="&#xe1;" horiz-adv-x="1421" 
d="M616 1311l166 352h215l-204 -352h-177zM633 -27q-111 0 -207.5 39.5t-171 114t-117.5 193t-43 266.5q0 147 42.5 264.5t117 191.5t170.5 113t207 39q141 0 253.5 -66.5t162.5 -185.5v229h229v-1169h-229v221q-49 -117 -162 -183.5t-252 -66.5zM690 170q163 0 263 112.5
t100 303.5q0 190 -101 301.5t-266 111.5q-163 0 -262.5 -111t-99.5 -302q0 -193 100 -304.5t266 -111.5z" />
    <glyph glyph-name="acircumflex" unicode="&#xe2;" horiz-adv-x="1421" 
d="M303 1313l279 348h245l281 -348h-188l-215 223l-216 -223h-186zM633 -27q-111 0 -207.5 39.5t-171 114t-117.5 193t-43 266.5q0 147 42.5 264.5t117 191.5t170.5 113t207 39q141 0 253.5 -66.5t162.5 -185.5v229h229v-1169h-229v221q-49 -117 -162 -183.5t-252 -66.5z
M690 170q163 0 263 112.5t100 303.5q0 190 -101 301.5t-266 111.5q-163 0 -262.5 -111t-99.5 -302q0 -193 100 -304.5t266 -111.5z" />
    <glyph glyph-name="atilde" unicode="&#xe3;" horiz-adv-x="1421" 
d="M406 1303l-97 127q57 59 123 83t124 17t122 -20t118 -25t109.5 0.5t98.5 56.5l96 -129q-52 -53 -109 -79t-109.5 -26.5t-105.5 9t-103.5 22.5t-96 19t-90.5 -6.5t-80 -48.5zM633 -27q-111 0 -207.5 39.5t-171 114t-117.5 193t-43 266.5q0 147 42.5 264.5t117 191.5
t170.5 113t207 39q141 0 253.5 -66.5t162.5 -185.5v229h229v-1169h-229v221q-49 -117 -162 -183.5t-252 -66.5zM690 170q163 0 263 112.5t100 303.5q0 190 -101 301.5t-266 111.5q-163 0 -262.5 -111t-99.5 -302q0 -193 100 -304.5t266 -111.5z" />
    <glyph glyph-name="adieresis" unicode="&#xe4;" horiz-adv-x="1421" 
d="M520 1327q-45 0 -77.5 33.5t-32.5 79.5t32 78t78 32t78.5 -32t32.5 -78t-32.5 -79.5t-78.5 -33.5zM891 1327q-47 0 -80 33.5t-33 79.5t33 78t80 32q44 0 76 -32t32 -78t-32 -79.5t-76 -33.5zM633 -27q-111 0 -207.5 39.5t-171 114t-117.5 193t-43 266.5q0 147 42.5 264.5
t117 191.5t170.5 113t207 39q141 0 253.5 -66.5t162.5 -185.5v229h229v-1169h-229v221q-49 -117 -162 -183.5t-252 -66.5zM690 170q163 0 263 112.5t100 303.5q0 190 -101 301.5t-266 111.5q-163 0 -262.5 -111t-99.5 -302q0 -193 100 -304.5t266 -111.5z" />
    <glyph glyph-name="aring" unicode="&#xe5;" horiz-adv-x="1421" 
d="M705 1307q-110 0 -181 66.5t-71 176.5q0 107 71.5 173.5t180.5 66.5q110 0 180.5 -66t70.5 -174q0 -111 -70 -177t-181 -66zM705 1450q44 0 71 28t27 72q0 45 -26.5 71t-71.5 26t-71 -26t-26 -71q0 -44 27 -72t70 -28zM633 -27q-111 0 -207.5 39.5t-171 114t-117.5 193
t-43 266.5q0 147 42.5 264.5t117 191.5t170.5 113t207 39q141 0 253.5 -66.5t162.5 -185.5v229h229v-1169h-229v221q-49 -117 -162 -183.5t-252 -66.5zM690 170q163 0 263 112.5t100 303.5q0 190 -101 301.5t-266 111.5q-163 0 -262.5 -111t-99.5 -302q0 -193 100 -304.5
t266 -111.5z" />
    <glyph glyph-name="ae" unicode="&#xe6;" horiz-adv-x="2308" 
d="M633 -27q-111 0 -207.5 39.5t-171 114t-117.5 193t-43 266.5q0 147 42.5 264.5t117 191.5t170.5 113t207 39q141 0 253.5 -66.5t162.5 -185.5v229h229v-176q131 199 407 199q262 0 406.5 -182.5t122.5 -479.5h-932q6 -175 107.5 -268.5t269.5 -93.5q243 0 328 168
l210 -33q-143 -328 -501 -328q-285 0 -418 195v-170h-229v221q-49 -117 -162 -183.5t-252 -66.5zM1286 707h711q-12 141 -104 223t-246 82q-151 0 -246 -78t-115 -227zM690 170q163 0 263 112.5t100 303.5q0 190 -101 301.5t-266 111.5q-163 0 -262.5 -111t-99.5 -302
q0 -193 100 -304.5t266 -111.5z" />
    <glyph glyph-name="ccedilla" unicode="&#xe7;" horiz-adv-x="1302" 
d="M684 174q120 0 208 64t126 180l196 -39q-43 -169 -161.5 -273t-294.5 -124l-121 -261h-229l172 263q-217 32 -351.5 197.5t-134.5 404.5q0 266 163.5 437t416.5 171q220 0 354.5 -100t190.5 -301l-197 -39q-84 245 -338 245q-160 0 -260 -114.5t-100 -298.5
q0 -183 100 -297.5t260 -114.5z" />
    <glyph glyph-name="egrave" unicode="&#xe8;" horiz-adv-x="1351" 
d="M592 1311l-207 352h217l166 -352h-176zM696 -23q-273 0 -437.5 166.5t-164.5 442.5q0 270 164.5 439t427.5 169q184 0 318.5 -85t199.5 -236.5t51 -346.5h-931q6 -169 105.5 -262.5t270.5 -93.5q243 0 328 168l211 -33q-142 -328 -543 -328zM330 707h710
q-12 141 -104 223t-246 82q-151 0 -245.5 -77.5t-114.5 -227.5z" />
    <glyph glyph-name="eacute" unicode="&#xe9;" horiz-adv-x="1351" 
d="M590 1311l166 352h215l-205 -352h-176zM696 -23q-273 0 -437.5 166.5t-164.5 442.5q0 270 164.5 439t427.5 169q184 0 318.5 -85t199.5 -236.5t51 -346.5h-931q6 -169 105.5 -262.5t270.5 -93.5q243 0 328 168l211 -33q-142 -328 -543 -328zM330 707h710
q-12 141 -104 223t-246 82q-151 0 -245.5 -77.5t-114.5 -227.5z" />
    <glyph glyph-name="ecircumflex" unicode="&#xea;" horiz-adv-x="1351" 
d="M276 1313l279 348h246l280 -348h-188l-215 223l-215 -223h-187zM696 -23q-273 0 -437.5 166.5t-164.5 442.5q0 270 164.5 439t427.5 169q184 0 318.5 -85t199.5 -236.5t51 -346.5h-931q6 -169 105.5 -262.5t270.5 -93.5q243 0 328 168l211 -33q-142 -328 -543 -328z
M330 707h710q-12 141 -104 223t-246 82q-151 0 -245.5 -77.5t-114.5 -227.5z" />
    <glyph glyph-name="edieresis" unicode="&#xeb;" horiz-adv-x="1351" 
d="M494 1327q-46 0 -78.5 33.5t-32.5 79.5t32.5 78t78.5 32t78 -32t32 -78t-32.5 -79.5t-77.5 -33.5zM864 1327q-47 0 -79.5 33.5t-32.5 79.5t32.5 78t79.5 32q44 0 76.5 -32t32.5 -78t-32.5 -79.5t-76.5 -33.5zM696 -23q-273 0 -437.5 166.5t-164.5 442.5q0 270 164.5 439
t427.5 169q184 0 318.5 -85t199.5 -236.5t51 -346.5h-931q6 -169 105.5 -262.5t270.5 -93.5q243 0 328 168l211 -33q-142 -328 -543 -328zM330 707h710q-12 141 -104 223t-246 82q-151 0 -245.5 -77.5t-114.5 -227.5z" />
    <glyph glyph-name="igrave" unicode="&#xec;" horiz-adv-x="493" 
d="M162 1311l-203 352h213l164 -352h-174zM133 0v1171h227v-1171h-227z" />
    <glyph glyph-name="iacute" unicode="&#xed;" horiz-adv-x="493" 
d="M162 1311l162 352h211l-201 -352h-172zM133 0v1171h227v-1171h-227z" />
    <glyph glyph-name="icircumflex" unicode="&#xee;" horiz-adv-x="493" 
d="M-145 1313l272 348h242l276 -348h-186l-211 223l-211 -223h-182zM133 0v1171h227v-1171h-227z" />
    <glyph glyph-name="idieresis" unicode="&#xef;" horiz-adv-x="493" 
d="M68 1327q-45 0 -77 33.5t-32 79.5t31.5 78t77.5 32q44 0 76 -32t32 -78t-32 -79.5t-76 -33.5zM430 1327q-46 0 -78.5 33.5t-32.5 79.5t32.5 78t78.5 32q44 0 75.5 -32t31.5 -78t-31.5 -79.5t-75.5 -33.5zM133 0v1171h227v-1171h-227z" />
    <glyph glyph-name="eth" unicode="&#xf0;" horiz-adv-x="1372" 
d="M930 1260q182 -192 265 -347.5t83 -326.5q0 -124 -33 -227t-89 -173.5t-132 -119t-161 -71t-177 -22.5t-177 22.5t-161 71t-132 119t-89 173.5t-33 227q0 115 31 210.5t84 159.5t122.5 109t146 64t154 18.5t148.5 -21.5q-19 19 -125 134h-372v153h219q-78 72 -172 139
h301l147 -139h330v-153h-178zM688 170q164 0 263.5 112t99.5 304q0 190 -100.5 301.5t-266.5 111.5q-163 0 -261.5 -111t-98.5 -302q0 -193 99 -304.5t265 -111.5z" />
    <glyph glyph-name="ntilde" unicode="&#xf1;" horiz-adv-x="1331" 
d="M367 1303l-97 127q57 59 123 83t124 17t122 -20t118 -25t109.5 0.5t98.5 56.5l96 -129q-52 -53 -109 -79t-109.5 -26.5t-105.5 9t-103.5 22.5t-96 19t-90.5 -6.5t-80 -48.5zM135 0v1171h230v-213q40 111 139 172.5t244 61.5q241 0 357 -138.5t116 -418.5v-635h-230v616
q0 193 -76.5 285t-238.5 92t-236.5 -102t-74.5 -301v-590h-230z" />
    <glyph glyph-name="ograve" unicode="&#xf2;" horiz-adv-x="1374" 
d="M602 1311l-207 352h217l166 -352h-176zM688 -27q-92 0 -177.5 22.5t-161.5 71t-132.5 119t-89.5 173.5t-33 227q0 123 33 225t89 172t132.5 118t161 70.5t176.5 22.5t177 -22.5t161.5 -70.5t133 -118t89.5 -172t33 -225q0 -154 -50 -274.5t-134.5 -192.5t-188 -109
t-219.5 -37zM688 170q164 0 263.5 112t99.5 304q0 190 -100.5 301.5t-264.5 111.5t-263 -110.5t-99 -302.5q0 -193 99 -304.5t265 -111.5z" />
    <glyph glyph-name="oacute" unicode="&#xf3;" horiz-adv-x="1374" 
d="M600 1311l166 352h215l-205 -352h-176zM688 -27q-92 0 -177.5 22.5t-161.5 71t-132.5 119t-89.5 173.5t-33 227q0 123 33 225t89 172t132.5 118t161 70.5t176.5 22.5t177 -22.5t161.5 -70.5t133 -118t89.5 -172t33 -225q0 -154 -50 -274.5t-134.5 -192.5t-188 -109
t-219.5 -37zM688 170q164 0 263.5 112t99.5 304q0 190 -100.5 301.5t-264.5 111.5t-263 -110.5t-99 -302.5q0 -193 99 -304.5t265 -111.5z" />
    <glyph glyph-name="ocircumflex" unicode="&#xf4;" horiz-adv-x="1374" 
d="M287 1313l278 348h246l281 -348h-189l-215 223l-215 -223h-186zM688 -27q-92 0 -177.5 22.5t-161.5 71t-132.5 119t-89.5 173.5t-33 227q0 123 33 225t89 172t132.5 118t161 70.5t176.5 22.5t177 -22.5t161.5 -70.5t133 -118t89.5 -172t33 -225q0 -154 -50 -274.5
t-134.5 -192.5t-188 -109t-219.5 -37zM688 170q164 0 263.5 112t99.5 304q0 190 -100.5 301.5t-264.5 111.5t-263 -110.5t-99 -302.5q0 -193 99 -304.5t265 -111.5z" />
    <glyph glyph-name="otilde" unicode="&#xf5;" horiz-adv-x="1374" 
d="M389 1303l-96 127q49 52 104.5 76t107 24t104.5 -9.5t104 -22t98 -17.5t93 9t83 52l96 -129q-52 -53 -109 -79t-109.5 -26.5t-105.5 9t-103.5 22.5t-96 19t-90.5 -6.5t-80 -48.5zM688 -27q-92 0 -177.5 22.5t-161.5 71t-132.5 119t-89.5 173.5t-33 227q0 123 33 225
t89 172t132.5 118t161 70.5t176.5 22.5t177 -22.5t161.5 -70.5t133 -118t89.5 -172t33 -225q0 -154 -50 -274.5t-134.5 -192.5t-188 -109t-219.5 -37zM688 170q164 0 263.5 112t99.5 304q0 190 -100.5 301.5t-264.5 111.5t-263 -110.5t-99 -302.5q0 -193 99 -304.5
t265 -111.5z" />
    <glyph glyph-name="odieresis" unicode="&#xf6;" horiz-adv-x="1374" 
d="M504 1327q-46 0 -78.5 33.5t-32.5 79.5t32.5 78t78.5 32t78 -32t32 -78t-32.5 -79.5t-77.5 -33.5zM874 1327q-47 0 -79.5 33.5t-32.5 79.5t32.5 78t79.5 32q44 0 76.5 -32t32.5 -78t-32.5 -79.5t-76.5 -33.5zM688 -27q-92 0 -177.5 22.5t-161.5 71t-132.5 119
t-89.5 173.5t-33 227q0 123 33 225t89 172t132.5 118t161 70.5t176.5 22.5t177 -22.5t161.5 -70.5t133 -118t89.5 -172t33 -225q0 -154 -50 -274.5t-134.5 -192.5t-188 -109t-219.5 -37zM688 170q164 0 263.5 112t99.5 304q0 190 -100.5 301.5t-264.5 111.5t-263 -110.5
t-99 -302.5q0 -193 99 -304.5t265 -111.5z" />
    <glyph glyph-name="divide" unicode="&#xf7;" horiz-adv-x="1267" 
d="M635 1057q-60 0 -97.5 33t-37.5 90t37.5 90t97.5 33q58 0 96.5 -33t38.5 -90t-38.5 -90t-96.5 -33zM86 651v201h1094v-201h-1094zM635 201q-60 0 -97.5 33t-37.5 90t37.5 89.5t97.5 32.5q58 0 96.5 -32.5t38.5 -89.5t-38.5 -90t-96.5 -33z" />
    <glyph glyph-name="oslash" unicode="&#xf8;" horiz-adv-x="1374" 
d="M1049 1085q108 -76 169.5 -201t61.5 -298q0 -154 -50 -274.5t-134.5 -192.5t-188 -109t-219.5 -37q-94 0 -186 25l-64 -125h-223l107 211q-228 166 -228 502q0 123 33 225t89 172t132.5 118t161 70.5t176.5 22.5t184 -25l54 107h221zM324 586q0 -191 98 -303l356 706
q-48 10 -92 10q-164 0 -263 -110.5t-99 -302.5zM688 170q164 0 263.5 112t99.5 304q0 188 -101 303l-356 -709q48 -10 94 -10z" />
    <glyph glyph-name="ugrave" unicode="&#xf9;" horiz-adv-x="1339" 
d="M586 1311l-207 352h217l166 -352h-176zM584 -23q-241 0 -357 139.5t-116 418.5v636h229v-618q0 -193 74.5 -284t238.5 -91q162 0 237 102.5t75 301.5v589h229v-1171h-229v213q-39 -111 -138 -173.5t-243 -62.5z" />
    <glyph glyph-name="uacute" unicode="&#xfa;" horiz-adv-x="1339" 
d="M584 1311l166 352h215l-205 -352h-176zM584 -23q-241 0 -357 139.5t-116 418.5v636h229v-618q0 -193 74.5 -284t238.5 -91q162 0 237 102.5t75 301.5v589h229v-1171h-229v213q-39 -111 -138 -173.5t-243 -62.5z" />
    <glyph glyph-name="ucircumflex" unicode="&#xfb;" horiz-adv-x="1339" 
d="M270 1313l279 348h246l280 -348h-188l-215 223l-215 -223h-187zM584 -23q-241 0 -357 139.5t-116 418.5v636h229v-618q0 -193 74.5 -284t238.5 -91q162 0 237 102.5t75 301.5v589h229v-1171h-229v213q-39 -111 -138 -173.5t-243 -62.5z" />
    <glyph glyph-name="udieresis" unicode="&#xfc;" horiz-adv-x="1339" 
d="M487 1327q-45 0 -77.5 33.5t-32.5 79.5t32 78t78 32t78.5 -32t32.5 -78t-32.5 -79.5t-78.5 -33.5zM858 1327q-47 0 -80 33.5t-33 79.5t33 78t80 32q44 0 76.5 -32t32.5 -78t-32.5 -79.5t-76.5 -33.5zM584 -23q-241 0 -357 139.5t-116 418.5v636h229v-618
q0 -193 74.5 -284t238.5 -91q162 0 237 102.5t75 301.5v589h229v-1171h-229v213q-39 -111 -138 -173.5t-243 -62.5z" />
    <glyph glyph-name="yacute" unicode="&#xfd;" horiz-adv-x="1267" 
d="M563 1311l166 352h215l-205 -352h-176zM340 -379l172 387l-506 1163h252l377 -915l377 915h252l-672 -1550h-252z" />
    <glyph glyph-name="thorn" unicode="&#xfe;" horiz-adv-x="1411" 
d="M135 -379v1931h230v-604q46 111 157 177.5t256 66.5q84 0 161.5 -22t146.5 -70t120 -118t81 -171.5t30 -224.5q0 -153 -45 -273t-121.5 -191.5t-170.5 -108t-200 -36.5q-147 0 -258 68t-157 182v-606h-230zM725 170q164 0 263 112t99 304q0 190 -100 301.5t-266 111.5
q-163 0 -263 -111t-100 -302q0 -193 100.5 -304.5t266.5 -111.5z" />
    <glyph glyph-name="ydieresis" unicode="&#xff;" horiz-adv-x="1267" 
d="M467 1327q-46 0 -78.5 33.5t-32.5 79.5t32.5 78t78.5 32t78.5 -32t32.5 -78t-32.5 -79.5t-78.5 -33.5zM838 1327q-47 0 -80 33.5t-33 79.5t33 78t80 32q44 0 76 -32t32 -78t-32 -79.5t-76 -33.5zM340 -379l172 387l-506 1163h252l377 -915l377 915h252l-672 -1550h-252z
" />
    <glyph glyph-name="Amacron" unicode="&#x100;" horiz-adv-x="1435" 
d="M1051 1806v-157h-670v157h670zM1204 0l-117 291h-741l-115 -291h-251l618 1483h238l620 -1483h-252zM422 481h590l-295 740z" />
    <glyph glyph-name="amacron" unicode="&#x101;" horiz-adv-x="1421" 
d="M369 1350v157h669v-157h-669zM633 -27q-111 0 -207.5 39.5t-171 114t-117.5 193t-43 266.5q0 147 42.5 264.5t117 191.5t170.5 113t207 39q141 0 253.5 -66.5t162.5 -185.5v229h229v-1169h-229v221q-49 -117 -162 -183.5t-252 -66.5zM690 170q163 0 263 112.5t100 303.5
q0 190 -101 301.5t-266 111.5q-163 0 -262.5 -111t-99.5 -302q0 -193 100 -304.5t266 -111.5z" />
    <glyph glyph-name="Abreve" unicode="&#x102;" horiz-adv-x="1435" 
d="M719 1612q-171 0 -271 86.5t-100 251.5h172q0 -86 44.5 -134.5t154.5 -48.5t154.5 48t44.5 135h172q0 -165 -100 -251.5t-271 -86.5zM1204 0l-117 291h-741l-115 -291h-251l618 1483h238l620 -1483h-252zM422 481h590l-295 740z" />
    <glyph glyph-name="abreve" unicode="&#x103;" horiz-adv-x="1421" 
d="M707 1313q-171 0 -271 86.5t-100 251.5h172q0 -86 44.5 -134.5t154.5 -48.5t154 48t44 135h172q0 -165 -100 -251.5t-270 -86.5zM633 -27q-111 0 -207.5 39.5t-171 114t-117.5 193t-43 266.5q0 147 42.5 264.5t117 191.5t170.5 113t207 39q141 0 253.5 -66.5
t162.5 -185.5v229h229v-1169h-229v221q-49 -117 -162 -183.5t-252 -66.5zM690 170q163 0 263 112.5t100 303.5q0 190 -101 301.5t-266 111.5q-163 0 -262.5 -111t-99.5 -302q0 -193 100 -304.5t266 -111.5z" />
    <glyph glyph-name="Aogonek" unicode="&#x104;" horiz-adv-x="1435" 
d="M1313 -201q0 -66 49 -96t123 -18v-154q-55 -10 -90 -10q-120 0 -189 64.5t-69 162.5q0 59 32 127.5t99 124.5h-64l-117 291h-741l-115 -291h-251l618 1483h238l618 -1481l14 -2q-74 -32 -114.5 -88.5t-40.5 -112.5zM422 481h590l-295 740z" />
    <glyph glyph-name="aogonek" unicode="&#x105;" horiz-adv-x="1421" 
d="M1120 -199q0 -66 49 -96t123 -18v-154q-55 -10 -90 -10q-120 0 -189 64.5t-69 162.5q0 59 32 127.5t99 124.5h-28v221q-49 -117 -162 -183.5t-252 -66.5q-111 0 -207.5 39.5t-171 114t-117.5 193t-43 266.5q0 147 42.5 264.5t117 191.5t170.5 113t207 39
q141 0 253.5 -66.5t162.5 -185.5v229h229v-1169q-74 -32 -115 -88.5t-41 -112.5zM690 170q163 0 263 112.5t100 303.5q0 190 -101 301.5t-266 111.5q-163 0 -262.5 -111t-99.5 -302q0 -193 100 -304.5t266 -111.5z" />
    <glyph glyph-name="Cacute" unicode="&#x106;" horiz-adv-x="1552" 
d="M692 1610l166 352h215l-205 -352h-176zM807 -25q-109 0 -208.5 27t-189.5 86t-156 146.5t-105 216.5t-39 286q0 153 38.5 281t105 216t156 149t190 89.5t208.5 28.5q83 0 162 -16.5t157.5 -54.5t142.5 -95t115 -144.5t78 -197.5l-233 -43q-43 161 -155.5 246.5
t-266.5 85.5q-206 0 -330.5 -147.5t-124.5 -397.5q0 -252 123 -396t332 -144q157 0 269.5 87.5t154.5 254.5l233 -43q-26 -112 -76.5 -201.5t-115 -148.5t-143.5 -98t-158.5 -56t-163.5 -17z" />
    <glyph glyph-name="cacute" unicode="&#x107;" horiz-adv-x="1302" 
d="M592 1311l166 352h215l-205 -352h-176zM674 -23q-253 0 -416.5 171.5t-163.5 437.5t163.5 437t416.5 171q220 0 354.5 -100t190.5 -301l-197 -39q-84 245 -338 245q-160 0 -260 -114.5t-100 -298.5q0 -183 100 -297.5t260 -114.5q120 0 208 64t126 180l196 -39
q-47 -190 -188.5 -296t-351.5 -106z" />
    <glyph glyph-name="Cdotaccent" unicode="&#x10a;" horiz-adv-x="1552" 
d="M780 1626q-45 0 -77.5 33.5t-32.5 79.5t32 78t78 32t78.5 -32t32.5 -78t-32.5 -79.5t-78.5 -33.5zM807 -25q-109 0 -208.5 27t-189.5 86t-156 146.5t-105 216.5t-39 286q0 153 38.5 281t105 216t156 149t190 89.5t208.5 28.5q83 0 162 -16.5t157.5 -54.5t142.5 -95
t115 -144.5t78 -197.5l-233 -43q-43 161 -155.5 246.5t-266.5 85.5q-206 0 -330.5 -147.5t-124.5 -397.5q0 -252 123 -396t332 -144q157 0 269.5 87.5t154.5 254.5l233 -43q-26 -112 -76.5 -201.5t-115 -148.5t-143.5 -98t-158.5 -56t-163.5 -17z" />
    <glyph glyph-name="cdotaccent" unicode="&#x10b;" horiz-adv-x="1302" 
d="M680 1327q-46 0 -78.5 33.5t-32.5 79.5t32.5 78t78.5 32t78.5 -32t32.5 -78t-32.5 -79.5t-78.5 -33.5zM674 -23q-253 0 -416.5 171.5t-163.5 437.5t163.5 437t416.5 171q220 0 354.5 -100t190.5 -301l-197 -39q-84 245 -338 245q-160 0 -260 -114.5t-100 -298.5
q0 -183 100 -297.5t260 -114.5q120 0 208 64t126 180l196 -39q-47 -190 -188.5 -296t-351.5 -106z" />
    <glyph glyph-name="Ccaron" unicode="&#x10c;" horiz-adv-x="1552" 
d="M649 1602l-278 348h186l215 -221l215 221h189l-281 -348h-246zM807 -25q-109 0 -208.5 27t-189.5 86t-156 146.5t-105 216.5t-39 286q0 153 38.5 281t105 216t156 149t190 89.5t208.5 28.5q83 0 162 -16.5t157.5 -54.5t142.5 -95t115 -144.5t78 -197.5l-233 -43
q-43 161 -155.5 246.5t-266.5 85.5q-206 0 -330.5 -147.5t-124.5 -397.5q0 -252 123 -396t332 -144q157 0 269.5 87.5t154.5 254.5l233 -43q-26 -112 -76.5 -201.5t-115 -148.5t-143.5 -98t-158.5 -56t-163.5 -17z" />
    <glyph glyph-name="ccaron" unicode="&#x10d;" horiz-adv-x="1302" 
d="M549 1303l-279 348h187l215 -221l215 221h188l-280 -348h-246zM674 -23q-253 0 -416.5 171.5t-163.5 437.5t163.5 437t416.5 171q220 0 354.5 -100t190.5 -301l-197 -39q-84 245 -338 245q-160 0 -260 -114.5t-100 -298.5q0 -183 100 -297.5t260 -114.5q120 0 208 64
t126 180l196 -39q-47 -190 -188.5 -296t-351.5 -106z" />
    <glyph glyph-name="Dcaron" unicode="&#x10e;" horiz-adv-x="1472" 
d="M598 1602l-272 348h182l211 -221l211 221h186l-276 -348h-242zM154 0v1483h383q438 0 633.5 -180.5t195.5 -561.5q0 -252 -83.5 -413.5t-267.5 -244.5t-478 -83h-383zM387 215h158q315 0 450 125t135 403q0 277 -135.5 402t-451.5 125h-156v-1055z" />
    <glyph glyph-name="dcaron" unicode="&#x10f;" horiz-adv-x="1583" 
d="M633 -27q-111 0 -207.5 39.5t-171 114t-117.5 193t-43 266.5q0 147 42.5 264.5t117 191.5t170.5 113t207 39q141 0 254.5 -66.5t161.5 -185.5v610h229v-1550h-229v221q-49 -117 -162 -183.5t-252 -66.5zM1364 1194l68 358h215l-119 -358h-164zM690 170q164 0 263.5 112
t99.5 304q0 190 -100.5 301.5t-266.5 111.5q-163 0 -262.5 -111t-99.5 -302q0 -193 100 -304.5t266 -111.5z" />
    <glyph glyph-name="Dcroat" unicode="&#x110;" horiz-adv-x="1497" 
d="M563 1483q438 0 633 -180.5t195 -561.5q0 -379 -195.5 -560t-632.5 -181h-385v668h-133v176h133v639h385zM571 215q315 0 450.5 125t135.5 403q0 277 -136 402t-452 125h-157v-426h303v-176h-303v-453h159z" />
    <glyph glyph-name="dcroat" unicode="&#x111;" horiz-adv-x="1394" 
d="M1384 1438v-160h-131v-1276h-225v221q-49 -117 -159.5 -183.5t-247.5 -66.5q-108 0 -203 39.5t-168 114t-115.5 193t-42.5 266.5q0 147 42 264.5t114.5 191.5t167 113t202.5 39q139 0 250 -66.5t160 -185.5v336h-407v160h407v114h225v-114h131zM678 170q161 0 258.5 112
t97.5 304q0 190 -98.5 301.5t-261.5 111.5q-160 0 -258.5 -111t-98.5 -302q0 -193 99 -304.5t262 -111.5z" />
    <glyph glyph-name="Emacron" unicode="&#x112;" horiz-adv-x="1224" 
d="M315 1634v158h670v-158h-670zM156 0v1483h966v-215h-729v-414h692v-205h-692v-434h729v-215h-966z" />
    <glyph glyph-name="emacron" unicode="&#x113;" horiz-adv-x="1351" 
d="M342 1350v157h670v-157h-670zM696 -23q-273 0 -437.5 166.5t-164.5 442.5q0 270 164.5 439t427.5 169q184 0 318.5 -85t199.5 -236.5t51 -346.5h-931q6 -169 105.5 -262.5t270.5 -93.5q243 0 328 168l211 -33q-142 -328 -543 -328zM330 707h710q-12 141 -104 223t-246 82
q-151 0 -245.5 -77.5t-114.5 -227.5z" />
    <glyph glyph-name="Edotaccent" unicode="&#x116;" horiz-adv-x="1224" 
d="M651 1612q-46 0 -78 33t-32 79t32 78.5t78 32.5t78.5 -32.5t32.5 -78.5t-32.5 -79t-78.5 -33zM156 0v1483h966v-215h-729v-414h692v-205h-692v-434h729v-215h-966z" />
    <glyph glyph-name="edotaccent" unicode="&#x117;" horiz-adv-x="1351" 
d="M678 1327q-46 0 -78.5 33.5t-32.5 79.5t32.5 78t78.5 32t78 -32t32 -78t-32.5 -79.5t-77.5 -33.5zM696 -23q-273 0 -437.5 166.5t-164.5 442.5q0 270 164.5 439t427.5 169q184 0 318.5 -85t199.5 -236.5t51 -346.5h-931q6 -169 105.5 -262.5t270.5 -93.5q243 0 328 168
l211 -33q-142 -328 -543 -328zM330 707h710q-12 141 -104 223t-246 82q-151 0 -245.5 -77.5t-114.5 -227.5z" />
    <glyph glyph-name="Eogonek" unicode="&#x118;" horiz-adv-x="1224" 
d="M967 -201q0 -66 49 -96t123 -18v-154q-55 -10 -90 -10q-120 0 -189 64.5t-69 162.5q0 59 32 127.5t99 124.5h-766v1483h966v-215h-729v-414h692v-205h-692v-434h729v-215q-74 -32 -114.5 -88.5t-40.5 -112.5z" />
    <glyph glyph-name="eogonek" unicode="&#x119;" horiz-adv-x="1351" 
d="M686 1194q184 0 318.5 -85t199.5 -236.5t51 -346.5h-931q6 -169 105.5 -262.5t270.5 -93.5q243 0 328 168l211 -33q-123 -283 -440 -321q-44 -34 -68 -78.5t-24 -85.5q0 -66 49 -96.5t123 -18.5v-154q-55 -10 -91 -10q-119 0 -188.5 64.5t-69.5 163.5q0 49 22.5 105.5
t68.5 107.5q-242 23 -384.5 186t-142.5 418q0 270 164.5 439t427.5 169zM330 707h710q-12 141 -104 223t-246 82q-151 0 -245.5 -77.5t-114.5 -227.5z" />
    <glyph glyph-name="Ecaron" unicode="&#x11a;" horiz-adv-x="1224" 
d="M520 1587l-278 348h186l215 -221l215 221h189l-281 -348h-246zM156 0v1483h966v-215h-729v-414h692v-205h-692v-434h729v-215h-966z" />
    <glyph glyph-name="ecaron" unicode="&#x11b;" horiz-adv-x="1351" 
d="M547 1303l-279 348h187l215 -221l215 221h188l-280 -348h-246zM696 -23q-273 0 -437.5 166.5t-164.5 442.5q0 270 164.5 439t427.5 169q184 0 318.5 -85t199.5 -236.5t51 -346.5h-931q6 -169 105.5 -262.5t270.5 -93.5q243 0 328 168l211 -33q-142 -328 -543 -328z
M330 707h710q-12 141 -104 223t-246 82q-151 0 -245.5 -77.5t-114.5 -227.5z" />
    <glyph glyph-name="Gbreve" unicode="&#x11e;" horiz-adv-x="1605" 
d="M805 1624q-171 0 -271 86.5t-100 251.5h172q0 -86 44.5 -134t154.5 -48t154.5 47.5t44.5 134.5h172q0 -165 -100 -251.5t-271 -86.5zM801 -16q-316 0 -504 207t-188 554q0 224 87.5 397t246 268t364.5 95q476 0 623 -379l-232 -49q-54 113 -149 167t-238 54
q-210 0 -337.5 -152t-127.5 -403q0 -256 125.5 -405.5t339.5 -149.5q199 0 315 110.5t125 322.5h-440v202h684q2 -39 2 -108q0 -339 -187 -535t-509 -196z" />
    <glyph glyph-name="gbreve" unicode="&#x11f;" horiz-adv-x="1421" 
d="M743 1313q-170 0 -270 86.5t-100 251.5h172q0 -86 44.5 -134.5t153.5 -48.5q110 0 154.5 48t44.5 135h172q0 -165 -100 -251.5t-271 -86.5zM682 -424q-206 0 -352.5 86t-206.5 242l217 53q43 -92 134 -145.5t210 -53.5q179 0 271 97t92 311v102q-47 -124 -157.5 -182.5
t-256.5 -58.5q-111 0 -208 37t-171 108t-117 183.5t-43 254.5q0 141 42.5 253.5t117 183.5t170.5 108t207 37q148 0 258.5 -59.5t157.5 -184.5v223h229v-968q0 -323 -149 -475t-445 -152zM688 203q164 0 263.5 109t99.5 298q0 188 -99.5 297t-265.5 109q-164 0 -263 -109.5
t-99 -296.5q0 -190 99 -298.5t265 -108.5z" />
    <glyph glyph-name="Gdotaccent" unicode="&#x120;" horiz-adv-x="1605" 
d="M803 1638q-46 0 -78.5 33.5t-32.5 79.5t32.5 78.5t78.5 32.5t78 -32.5t32 -78.5t-32.5 -79.5t-77.5 -33.5zM801 -16q-316 0 -504 207t-188 554q0 224 87.5 397t246 268t364.5 95q476 0 623 -379l-232 -49q-54 113 -149 167t-238 54q-210 0 -337.5 -152t-127.5 -403
q0 -256 125.5 -405.5t339.5 -149.5q199 0 315 110.5t125 322.5h-440v202h684q2 -39 2 -108q0 -339 -187 -535t-509 -196z" />
    <glyph glyph-name="gdotaccent" unicode="&#x121;" horiz-adv-x="1421" 
d="M741 1327q-45 0 -77.5 33.5t-32.5 79.5t32 78t78 32t78.5 -32t32.5 -78t-32.5 -79.5t-78.5 -33.5zM682 -424q-206 0 -352.5 86t-206.5 242l217 53q43 -92 134 -145.5t210 -53.5q179 0 271 97t92 311v102q-47 -124 -157.5 -182.5t-256.5 -58.5q-111 0 -208 37t-171 108
t-117 183.5t-43 254.5q0 141 42.5 253.5t117 183.5t170.5 108t207 37q148 0 258.5 -59.5t157.5 -184.5v223h229v-968q0 -323 -149 -475t-445 -152zM688 203q164 0 263.5 109t99.5 298q0 188 -99.5 297t-265.5 109q-164 0 -263 -109.5t-99 -296.5q0 -190 99 -298.5
t265 -108.5z" />
    <glyph glyph-name="uni0122" unicode="&#x122;" horiz-adv-x="1605" 
d="M801 -16q-316 0 -504 207t-188 554q0 224 87.5 397t246 268t364.5 95q476 0 623 -379l-232 -49q-54 113 -149 167t-238 54q-210 0 -337.5 -152t-127.5 -403q0 -256 125.5 -405.5t339.5 -149.5q199 0 315 110.5t125 322.5h-440v202h684q2 -39 2 -108q0 -339 -187 -535
t-509 -196zM590 -471l129 362h239l-186 -362h-182z" />
    <glyph glyph-name="uni0123" unicode="&#x123;" horiz-adv-x="1421" 
d="M561 1311l248 458h182l-190 -458h-240zM682 -424q-206 0 -352.5 86t-206.5 242l217 53q43 -92 134 -145.5t210 -53.5q179 0 271 97t92 311v102q-47 -124 -157.5 -182.5t-256.5 -58.5q-111 0 -208 37t-171 108t-117 183.5t-43 254.5q0 141 42.5 253.5t117 183.5t170.5 108
t207 37q148 0 258.5 -59.5t157.5 -184.5v223h229v-968q0 -323 -149 -475t-445 -152zM688 203q164 0 263.5 109t99.5 298q0 188 -99.5 297t-265.5 109q-164 0 -263 -109.5t-99 -296.5q0 -190 99 -298.5t265 -108.5z" />
    <glyph glyph-name="Hbar" unicode="&#x126;" horiz-adv-x="1492" 
d="M1468 1243v-160h-133v-1083h-237v649h-705v-649h-237v1083h-97v160h97v240h237v-240h705v240h237v-240h133zM1098 854v229h-705v-229h705z" />
    <glyph glyph-name="hbar" unicode="&#x127;" horiz-adv-x="1331" 
d="M748 1192q236 0 354.5 -135t118.5 -422v-635h-230v616q0 196 -76 286.5t-239 90.5q-159 0 -235 -101t-76 -302v-590h-230v1280h-112v160h112v112h230v-112h436v-160h-436v-322q37 107 134.5 170.5t248.5 63.5z" />
    <glyph glyph-name="Imacron" unicode="&#x12a;" horiz-adv-x="550" 
d="M-59 1649v157h669v-157h-669zM156 0v1483h237v-1483h-237z" />
    <glyph glyph-name="imacron" unicode="&#x12b;" horiz-adv-x="481" 
d="M-23 1346v157h537v-157h-537zM129 0v1171h229v-1171h-229z" />
    <glyph glyph-name="Iogonek" unicode="&#x12e;" horiz-adv-x="550" 
d="M238 -201q0 -66 49 -96t123 -18v-154q-55 -10 -91 -10q-120 0 -189 64.5t-69 162.5q0 59 32.5 127.5t99.5 124.5h-37v1483h237v-1483q-74 -32 -114.5 -88.5t-40.5 -112.5z" />
    <glyph glyph-name="iogonek" unicode="&#x12f;" horiz-adv-x="487" 
d="M246 1329q-60 0 -97.5 33t-37.5 90t37.5 90t97.5 33q56 0 95.5 -33.5t39.5 -89.5t-39.5 -89.5t-95.5 -33.5zM205 -201q0 -66 49 -97t123 -17v-154q-52 -10 -90 -10q-118 0 -188 64.5t-70 162.5q0 143 129 252h-27v1171h231v-1171q-74 -32 -115.5 -88.5t-41.5 -112.5z" />
    <glyph glyph-name="Idotaccent" unicode="&#x130;" horiz-adv-x="550" 
d="M276 1626q-45 0 -77.5 33.5t-32.5 79.5t32 78t78 32t78.5 -32t32.5 -78t-32.5 -79.5t-78.5 -33.5zM156 0v1483h237v-1483h-237z" />
    <glyph glyph-name="dotlessi" unicode="&#x131;" horiz-adv-x="501" 
d="M135 0v1171h232v-1171h-232z" />
    <glyph glyph-name="uni0136" unicode="&#x136;" horiz-adv-x="1331" 
d="M156 0v1483h237v-637l631 637h315l-714 -703l727 -780h-305l-654 717v-717h-237zM487 -471l129 362h240l-186 -362h-183z" />
    <glyph glyph-name="uni0137" unicode="&#x137;" horiz-adv-x="1230" 
d="M625 608l600 -608h-307l-541 578v-578h-230v1552h230v-919l518 538h305zM416 -471l129 362h239l-186 -362h-182z" />
    <glyph glyph-name="Lacute" unicode="&#x139;" horiz-adv-x="1073" 
d="M195 1597l165 353h215l-204 -353h-176zM156 0v1483h237v-1268h627v-215h-864z" />
    <glyph glyph-name="lacute" unicode="&#x13a;" horiz-adv-x="493" 
d="M168 1636l162 353h211l-201 -353h-172zM133 0v1552h227v-1552h-227z" />
    <glyph glyph-name="uni013B" unicode="&#x13b;" horiz-adv-x="1073" 
d="M156 0v1483h237v-1268h627v-215h-864zM362 -471l130 362h239l-186 -362h-183z" />
    <glyph glyph-name="uni013C" unicode="&#x13c;" horiz-adv-x="493" 
d="M133 0v1552h227v-1552h-227zM6 -471l127 362h236l-185 -362h-178z" />
    <glyph glyph-name="Lcaron" unicode="&#x13d;" horiz-adv-x="1073" 
d="M156 0v1483h237v-1268h627v-215h-864zM551 1124l67 359h216l-119 -359h-164z" />
    <glyph glyph-name="lcaron" unicode="&#x13e;" horiz-adv-x="622" 
d="M133 0v1552h227v-1552h-227zM442 1194l68 358h215l-119 -358h-164z" />
    <glyph glyph-name="Lslash" unicode="&#x141;" horiz-adv-x="1073" 
d="M393 215h627v-215h-864v532l-158 -43v193l158 43v758h237v-692l352 96v-193l-352 -96v-383z" />
    <glyph glyph-name="lslash" unicode="&#x142;" horiz-adv-x="571" 
d="M539 793v-150l-138 -39v-604h-229v541l-139 -39v149l139 39v862h229v-798z" />
    <glyph glyph-name="Nacute" unicode="&#x143;" horiz-adv-x="1554" 
d="M678 1602l166 352h215l-205 -352h-176zM156 0v1483h239l764 -1118v1118h238v-1483h-236l-768 1124v-1124h-237z" />
    <glyph glyph-name="nacute" unicode="&#x144;" horiz-adv-x="1331" 
d="M578 1311l165 352h215l-204 -352h-176zM135 0v1171h230v-213q40 111 139 172.5t244 61.5q241 0 357 -138.5t116 -418.5v-635h-230v616q0 193 -76.5 285t-238.5 92t-236.5 -102t-74.5 -301v-590h-230z" />
    <glyph glyph-name="uni0145" unicode="&#x145;" horiz-adv-x="1554" 
d="M156 0v1483h239l764 -1118v1118h238v-1483h-236l-768 1124v-1124h-237zM588 -471l129 362h239l-186 -362h-182z" />
    <glyph glyph-name="uni0146" unicode="&#x146;" horiz-adv-x="1331" 
d="M135 0v1171h230v-213q40 111 139 172.5t244 61.5q241 0 357 -138.5t116 -418.5v-635h-230v616q0 193 -76.5 285t-238.5 92t-236.5 -102t-74.5 -301v-590h-230zM467 -471l129 362h240l-187 -362h-182z" />
    <glyph glyph-name="Ncaron" unicode="&#x147;" horiz-adv-x="1554" 
d="M635 1593l-279 349h187l215 -222l215 222h188l-280 -349h-246zM156 0v1483h239l764 -1118v1118h238v-1483h-236l-768 1124v-1124h-237z" />
    <glyph glyph-name="ncaron" unicode="&#x148;" horiz-adv-x="1331" 
d="M535 1303l-279 348h186l215 -221l215 221h189l-281 -348h-245zM135 0v1171h230v-213q40 111 139 172.5t244 61.5q241 0 357 -138.5t116 -418.5v-635h-230v616q0 193 -76.5 285t-238.5 92t-236.5 -102t-74.5 -301v-590h-230z" />
    <glyph glyph-name="Eng" unicode="&#x14a;" horiz-adv-x="1554" 
d="M1063 -389q-69 0 -119 12l29 187q25 -5 45 -5q77 0 111 47t34 148v41l-770 1083v-1124h-237v1483h239l764 -1096v1096h238v-1485q0 -194 -78 -290.5t-256 -96.5z" />
    <glyph glyph-name="eng" unicode="&#x14b;" horiz-adv-x="1331" 
d="M889 -389q-69 0 -119 12l27 187q29 -5 45 -5q79 0 114 47.5t35 151.5v612q0 193 -76.5 285t-238.5 92t-236.5 -102t-74.5 -301v-590h-230v1171h230v-213q40 111 139 172.5t244 61.5q236 0 352 -133t121 -402v-659q0 -194 -77 -290.5t-255 -96.5z" />
    <glyph glyph-name="Omacron" unicode="&#x14c;" horiz-adv-x="1615" 
d="M471 1649v157h670v-157h-670zM805 -23q-114 0 -215 27t-190 86.5t-153 147t-101 216t-37 285.5q0 154 37.5 281t102 215t154 148t191.5 88t215 28q112 0 213 -28t190 -88t154.5 -147.5t103 -215t37.5 -281.5q0 -157 -37.5 -285.5t-102.5 -216t-155 -147t-191.5 -86.5
t-215.5 -27zM805 193q217 0 341 143t124 403q0 255 -124.5 400t-336.5 145q-217 0 -342 -144.5t-125 -400.5q0 -261 122.5 -403.5t340.5 -142.5z" />
    <glyph glyph-name="omacron" unicode="&#x14d;" horiz-adv-x="1374" 
d="M352 1350v157h670v-157h-670zM688 -27q-92 0 -177.5 22.5t-161.5 71t-132.5 119t-89.5 173.5t-33 227q0 123 33 225t89 172t132.5 118t161 70.5t176.5 22.5t177 -22.5t161.5 -70.5t133 -118t89.5 -172t33 -225q0 -154 -50 -274.5t-134.5 -192.5t-188 -109t-219.5 -37z
M688 170q164 0 263.5 112t99.5 304q0 190 -100.5 301.5t-264.5 111.5t-263 -110.5t-99 -302.5q0 -193 99 -304.5t265 -111.5z" />
    <glyph glyph-name="Ohungarumlaut" unicode="&#x150;" horiz-adv-x="1615" 
d="M528 1610l181 352h217l-219 -352h-179zM915 1610l181 352h217l-221 -352h-177zM805 -23q-114 0 -215 27t-190 86.5t-153 147t-101 216t-37 285.5q0 154 37.5 281t102 215t154 148t191.5 88t215 28q112 0 213 -28t190 -88t154.5 -147.5t103 -215t37.5 -281.5
q0 -157 -37.5 -285.5t-102.5 -216t-155 -147t-191.5 -86.5t-215.5 -27zM805 193q217 0 341 143t124 403q0 255 -124.5 400t-336.5 145q-217 0 -342 -144.5t-125 -400.5q0 -261 122.5 -403.5t340.5 -142.5z" />
    <glyph glyph-name="ohungarumlaut" unicode="&#x151;" horiz-adv-x="1374" 
d="M410 1311l180 352h217l-219 -352h-178zM797 1311l180 352h217l-221 -352h-176zM688 -27q-92 0 -177.5 22.5t-161.5 71t-132.5 119t-89.5 173.5t-33 227q0 123 33 225t89 172t132.5 118t161 70.5t176.5 22.5t177 -22.5t161.5 -70.5t133 -118t89.5 -172t33 -225
q0 -154 -50 -274.5t-134.5 -192.5t-188 -109t-219.5 -37zM688 170q164 0 263.5 112t99.5 304q0 190 -100.5 301.5t-264.5 111.5t-263 -110.5t-99 -302.5q0 -193 99 -304.5t265 -111.5z" />
    <glyph glyph-name="OE" unicode="&#x152;" horiz-adv-x="2338" 
d="M766 -23q-110 0 -206 27t-179.5 86.5t-143.5 147t-94 215.5t-34 286q0 192 52.5 340.5t144.5 238.5t209 135.5t255 45.5q380 0 500 -295v279h966v-215h-729v-414h693v-205h-693v-434h729v-215h-966v270q-118 -293 -504 -293zM805 193q217 0 341 143t124 403
q0 255 -124.5 400t-336.5 145q-217 0 -342 -144.5t-125 -400.5q0 -261 122.5 -403.5t340.5 -142.5z" />
    <glyph glyph-name="oe" unicode="&#x153;" horiz-adv-x="2310" 
d="M688 -27q-92 0 -177.5 22.5t-161.5 71t-132.5 119t-89.5 173.5t-33 227q0 123 33 225t89 172t132.5 118t161 70.5t176.5 22.5q158 0 284.5 -68.5t196.5 -203.5q67 130 189.5 201t288.5 71q184 0 318.5 -83t199.5 -233.5t51 -345.5h-932q3 -175 105.5 -268.5t271.5 -93.5
q243 0 328 168l211 -33q-143 -328 -543 -328q-174 0 -297.5 70t-190.5 199q-70 -136 -196 -204.5t-283 -68.5zM1288 707h711q-12 141 -104 223t-246 82q-151 0 -246 -78t-115 -227zM688 170q164 0 263.5 112t99.5 304q0 190 -100.5 301.5t-264.5 111.5t-263 -110.5
t-99 -302.5q0 -193 99 -304.5t265 -111.5z" />
    <glyph glyph-name="Racute" unicode="&#x154;" horiz-adv-x="1376" 
d="M979 1974l-205 -352h-176l166 352h215zM1294 0h-274l-326 500q-70 -4 -108 -4h-191v-496h-239v1483h434q352 0 516 -114t164 -376q0 -353 -340 -454zM393 694h215q112 0 185.5 12t129.5 43t81.5 88.5t25.5 145.5t-25.5 146t-81 90.5t-130 45.5t-185.5 13h-215v-584z" />
    <glyph glyph-name="racute" unicode="&#x155;" horiz-adv-x="794" 
d="M356 1311l166 352h215l-205 -352h-176zM135 0v1171h230v-196q18 50 49 90t82 72.5t119 42.5t161 0l-24 -222q-194 36 -290.5 -61.5t-96.5 -316.5v-580h-230z" />
    <glyph glyph-name="uni0156" unicode="&#x156;" horiz-adv-x="1376" 
d="M930 539l364 -539h-274l-326 500q-70 -4 -108 -4h-191v-496h-239v1483h434q352 0 516 -114t164 -376q0 -353 -340 -454zM393 694h215q112 0 185.5 12t129.5 43t81.5 88.5t25.5 145.5t-25.5 146t-81 90.5t-130 45.5t-185.5 13h-215v-584zM487 -471l129 362h240l-186 -362
h-183z" />
    <glyph glyph-name="uni0157" unicode="&#x157;" horiz-adv-x="794" 
d="M135 0v1171h230v-196q18 50 49 90t82 72.5t119 42.5t161 0l-24 -222q-194 36 -290.5 -61.5t-96.5 -316.5v-580h-230zM10 -471l129 362h240l-186 -362h-183z" />
    <glyph glyph-name="Rcaron" unicode="&#x158;" horiz-adv-x="1376" 
d="M801 1614h-246l-279 348h187l215 -221l215 221h188zM1294 0h-274l-326 500q-70 -4 -108 -4h-191v-496h-239v1483h434q352 0 516 -114t164 -376q0 -353 -340 -454zM393 694h215q112 0 185.5 12t129.5 43t81.5 88.5t25.5 145.5t-25.5 146t-81 90.5t-130 45.5t-185.5 13
h-215v-584z" />
    <glyph glyph-name="rcaron" unicode="&#x159;" horiz-adv-x="794" 
d="M313 1303l-278 348h186l215 -221l215 221h189l-281 -348h-246zM135 0v1171h230v-196q18 50 49 90t82 72.5t119 42.5t161 0l-24 -222q-194 36 -290.5 -61.5t-96.5 -316.5v-580h-230z" />
    <glyph glyph-name="Sacute" unicode="&#x15a;" horiz-adv-x="1282" 
d="M553 1610l166 352h215l-205 -352h-176zM666 -20q-233 0 -396.5 105.5t-220.5 295.5l223 45q46 -115 148.5 -177.5t243.5 -62.5q153 0 237 59t84 165q0 56 -30 96.5t-80.5 64.5t-115.5 42.5t-137.5 35t-145 36t-137.5 51.5t-115.5 75.5t-80.5 114t-30 161.5
q0 186 142.5 302t371.5 116q226 0 374 -97.5t205 -283.5l-217 -43q-95 213 -356 213q-138 0 -214.5 -55t-76.5 -152q0 -59 30 -101t81 -66.5t116.5 -42.5t138.5 -33.5t145.5 -33.5t138 -49t116.5 -74t81 -113.5t30 -163.5q0 -195 -150.5 -312.5t-402.5 -117.5z" />
    <glyph glyph-name="sacute" unicode="&#x15b;" horiz-adv-x="1177" 
d="M537 1311l165 352h216l-205 -352h-176zM608 -20q-198 0 -347.5 82.5t-203.5 220.5l209 57q43 -79 131 -121.5t211 -42.5q136 0 208.5 42t72.5 122q0 43 -26.5 72t-72 45t-104 26.5t-123 20.5t-129 22.5t-123 37t-104 59.5t-72 94.5t-26.5 138.5q0 148 138.5 242t344.5 94
q163 0 304.5 -74.5t193.5 -193.5l-205 -56q-36 64 -115 100t-174 36q-123 0 -192.5 -40t-69.5 -112q0 -47 34 -78t89 -45t125.5 -26.5t144.5 -21.5t144.5 -32t125.5 -56.5t89 -96.5t34 -150q0 -169 -138.5 -267.5t-373.5 -98.5z" />
    <glyph glyph-name="Scedilla" unicode="&#x15e;" horiz-adv-x="1282" 
d="M1219 410q0 -184 -136 -300t-366 -128l-119 -261h-229l174 267q-187 26 -316 128t-178 265l223 45q46 -115 148.5 -177.5t243.5 -62.5q153 0 237 59t84 165q0 56 -30 96.5t-80.5 64.5t-115.5 42.5t-137.5 35t-145 36t-137.5 51.5t-115.5 75.5t-80.5 114t-30 161.5
q0 186 142.5 302t371.5 116q226 0 374 -97.5t205 -283.5l-217 -43q-95 213 -356 213q-138 0 -214.5 -55t-76.5 -152q0 -59 30 -101t81 -66.5t116.5 -42.5t138.5 -33.5t145.5 -33.5t138 -49t116.5 -74t81 -113.5t30 -163.5z" />
    <glyph glyph-name="scedilla" unicode="&#x15f;" horiz-adv-x="1177" 
d="M1120 346q0 -149 -109 -244.5t-300 -115.5l-121 -265h-230l170 263q-171 15 -297.5 95t-175.5 204l209 57q43 -79 131 -121.5t211 -42.5q136 0 208.5 42t72.5 122q0 43 -26.5 72t-72 45t-104 26.5t-123 20.5t-129 22.5t-123 37t-104 59.5t-72 94.5t-26.5 138.5
q0 148 138.5 242t344.5 94q163 0 304.5 -74.5t193.5 -193.5l-205 -56q-36 64 -115 100t-174 36q-123 0 -192.5 -40t-69.5 -112q0 -47 34 -78t89 -45t125.5 -26.5t144.5 -21.5t144.5 -32t125.5 -56.5t89 -96.5t34 -150z" />
    <glyph glyph-name="Scaron" unicode="&#x160;" horiz-adv-x="1282" 
d="M510 1602l-279 348h187l215 -221l215 221h188l-280 -348h-246zM666 -20q-233 0 -396.5 105.5t-220.5 295.5l223 45q46 -115 148.5 -177.5t243.5 -62.5q153 0 237 59t84 165q0 56 -30 96.5t-80.5 64.5t-115.5 42.5t-137.5 35t-145 36t-137.5 51.5t-115.5 75.5t-80.5 114
t-30 161.5q0 186 142.5 302t371.5 116q226 0 374 -97.5t205 -283.5l-217 -43q-95 213 -356 213q-138 0 -214.5 -55t-76.5 -152q0 -59 30 -101t81 -66.5t116.5 -42.5t138.5 -33.5t145.5 -33.5t138 -49t116.5 -74t81 -113.5t30 -163.5q0 -195 -150.5 -312.5t-402.5 -117.5z
" />
    <glyph glyph-name="scaron" unicode="&#x161;" horiz-adv-x="1177" 
d="M494 1303l-279 348h186l215 -221l215 221h189l-281 -348h-245zM608 -20q-198 0 -347.5 82.5t-203.5 220.5l209 57q43 -79 131 -121.5t211 -42.5q136 0 208.5 42t72.5 122q0 43 -26.5 72t-72 45t-104 26.5t-123 20.5t-129 22.5t-123 37t-104 59.5t-72 94.5t-26.5 138.5
q0 148 138.5 242t344.5 94q163 0 304.5 -74.5t193.5 -193.5l-205 -56q-36 64 -115 100t-174 36q-123 0 -192.5 -40t-69.5 -112q0 -47 34 -78t89 -45t125.5 -26.5t144.5 -21.5t144.5 -32t125.5 -56.5t89 -96.5t34 -150q0 -169 -138.5 -267.5t-373.5 -98.5z" />
    <glyph glyph-name="uni0162" unicode="&#x162;" horiz-adv-x="1161" 
d="M61 1483h1039v-215h-400v-1268h-47l-129 -279h-229l182 279h-14v1268h-402v215z" />
    <glyph glyph-name="uni0163" unicode="&#x163;" horiz-adv-x="835" 
d="M801 0q-72 -16 -160 -16h-12l-115 -250h-229l176 270q-133 37 -195.5 147.5t-62.5 315.5v526h-170v178h170v215l231 50v-265h346v-178h-346v-499q0 -181 54 -253.5t188 -72.5q19 0 94 10z" />
    <glyph glyph-name="Tcaron" unicode="&#x164;" horiz-adv-x="1161" 
d="M451 1602l-279 348h186l215 -221l215 221h189l-281 -348h-245zM463 0v1268h-402v215h1039v-215h-400v-1268h-237z" />
    <glyph glyph-name="tcaron" unicode="&#x165;" horiz-adv-x="835" 
d="M561 1311l68 358h235l-119 -358h-184zM641 -16q-230 0 -334 109.5t-104 373.5v526h-170v178h170v215l231 50v-265h346v-178h-346v-499q0 -181 54 -253.5t188 -72.5q19 0 94 10l31 -178q-72 -16 -160 -16z" />
    <glyph glyph-name="Tbar" unicode="&#x166;" horiz-adv-x="1161" 
d="M1100 1268h-400v-486h230v-159h-230v-623h-237v623h-230v159h230v486h-402v215h1039v-215z" />
    <glyph glyph-name="tbar" unicode="&#x167;" horiz-adv-x="835" 
d="M770 178l31 -178q-72 -16 -160 -16q-230 0 -334 109.5t-104 373.5v102h-133v158h133v266h-170v178h170v215l231 50v-265h346v-178h-346v-266h328v-158h-328v-75q0 -181 54 -253.5t188 -72.5q19 0 94 10z" />
    <glyph glyph-name="Umacron" unicode="&#x16a;" horiz-adv-x="1505" 
d="M418 1649v157h669v-157h-669zM752 -20q-309 0 -463 175t-154 537v791h238v-789q0 -263 91 -380t288 -117t287.5 116.5t90.5 378.5v791h238v-791q0 -361 -154 -536.5t-462 -175.5z" />
    <glyph glyph-name="umacron" unicode="&#x16b;" horiz-adv-x="1339" 
d="M336 1350v157h670v-157h-670zM584 -23q-241 0 -357 139.5t-116 418.5v636h229v-618q0 -193 74.5 -284t238.5 -91q162 0 237 102.5t75 301.5v589h229v-1171h-229v213q-39 -111 -138 -173.5t-243 -62.5z" />
    <glyph glyph-name="Uring" unicode="&#x16e;" horiz-adv-x="1505" 
d="M754 1606q-110 0 -181 66.5t-71 176.5q0 107 71.5 173.5t180.5 66.5q110 0 181 -66t71 -174q0 -111 -70.5 -177t-181.5 -66zM754 1749q44 0 71 28t27 72q0 45 -26.5 71t-71.5 26t-71 -26t-26 -71q0 -44 27 -72t70 -28zM752 -20q-309 0 -463 175t-154 537v791h238v-789
q0 -263 91 -380t288 -117t287.5 116.5t90.5 378.5v791h238v-791q0 -361 -154 -536.5t-462 -175.5z" />
    <glyph glyph-name="uring" unicode="&#x16f;" horiz-adv-x="1339" 
d="M672 1307q-110 0 -181 66.5t-71 176.5q0 107 71.5 173.5t180.5 66.5q110 0 181 -66t71 -174q0 -111 -70.5 -177t-181.5 -66zM672 1450q44 0 71 28t27 72q0 45 -26.5 71t-71.5 26t-71 -26t-26 -71q0 -44 27 -72t70 -28zM584 -23q-241 0 -357 139.5t-116 418.5v636h229
v-618q0 -193 74.5 -284t238.5 -91q162 0 237 102.5t75 301.5v589h229v-1171h-229v213q-39 -111 -138 -173.5t-243 -62.5z" />
    <glyph glyph-name="Uhungarumlaut" unicode="&#x170;" horiz-adv-x="1505" 
d="M475 1610l180 352h217l-219 -352h-178zM862 1610l180 352h218l-222 -352h-176zM752 -20q-309 0 -463 175t-154 537v791h238v-789q0 -263 91 -380t288 -117t287.5 116.5t90.5 378.5v791h238v-791q0 -361 -154 -536.5t-462 -175.5z" />
    <glyph glyph-name="uhungarumlaut" unicode="&#x171;" horiz-adv-x="1339" 
d="M393 1311l180 352h218l-220 -352h-178zM780 1311l181 352h217l-222 -352h-176zM584 -23q-241 0 -357 139.5t-116 418.5v636h229v-618q0 -193 74.5 -284t238.5 -91q162 0 237 102.5t75 301.5v589h229v-1171h-229v213q-39 -111 -138 -173.5t-243 -62.5z" />
    <glyph glyph-name="Uogonek" unicode="&#x172;" horiz-adv-x="1505" 
d="M1130 1483h238v-791q0 -324 -122.5 -498t-368.5 -206q-52 -34 -79.5 -81.5t-27.5 -92.5q0 -66 49 -96.5t123 -18.5v-154q-55 -10 -90 -10q-120 0 -189 64.5t-69 162.5q0 51 23.5 109.5t72.5 110.5q-278 17 -416.5 191.5t-138.5 518.5v791h238v-789q0 -263 91 -380
t288 -117t287.5 116.5t90.5 378.5v791z" />
    <glyph glyph-name="uogonek" unicode="&#x173;" horiz-adv-x="1339" 
d="M1038 -201q0 -66 49 -96t123 -18v-154q-55 -10 -90 -10q-120 0 -189 64.5t-69 162.5q0 59 32 127.5t99 124.5h-28v213q-39 -111 -138 -173.5t-243 -62.5q-241 0 -357 139.5t-116 418.5v636h229v-618q0 -193 74.5 -284t238.5 -91q162 0 237 102.5t75 301.5v589h229v-1171
q-74 -32 -115 -88.5t-41 -112.5z" />
    <glyph glyph-name="Wcircumflex" unicode="&#x174;" horiz-adv-x="2084" 
d="M641 1612l279 348h245l281 -348h-189l-215 223l-215 -223h-186zM479 0l-499 1481h256l366 -1145l338 1145h201l340 -1145l368 1145h256l-501 -1481h-226l-338 1141l-335 -1141h-226z" />
    <glyph glyph-name="wcircumflex" unicode="&#x175;" horiz-adv-x="1945" 
d="M573 1313l279 348h246l280 -348h-188l-215 223l-215 -223h-187zM457 0l-451 1171h248l326 -903l303 903h180l303 -903l326 903h250l-455 -1171h-232l-282 856l-283 -856h-233z" />
    <glyph glyph-name="Ycircumflex" unicode="&#x176;" horiz-adv-x="1402" 
d="M301 1612l279 348h245l281 -348h-188l-216 223l-215 -223h-186zM580 0v416l-600 1067h268l450 -821l455 821h270l-606 -1067v-416h-237z" />
    <glyph glyph-name="ycircumflex" unicode="&#x177;" horiz-adv-x="1267" 
d="M250 1313l278 348h246l281 -348h-189l-215 223l-215 -223h-186zM340 -379l172 387l-506 1163h252l377 -915l377 915h252l-672 -1550h-252z" />
    <glyph glyph-name="Ydieresis" unicode="&#x178;" horiz-adv-x="1402" 
d="M518 1626q-45 0 -77.5 33.5t-32.5 79.5t32 78t78 32t78.5 -32t32.5 -78t-32.5 -79.5t-78.5 -33.5zM889 1626q-47 0 -80 33.5t-33 79.5t33 78t80 32q44 0 76 -32t32 -78t-32 -79.5t-76 -33.5zM580 0v416l-600 1067h268l450 -821l455 821h270l-606 -1067v-416h-237z" />
    <glyph glyph-name="Zacute" unicode="&#x179;" horiz-adv-x="1271" 
d="M569 1602l166 352h215l-205 -352h-176zM90 0v203l799 1065h-799v215h1073v-201l-796 -1067h796v-215h-1073z" />
    <glyph glyph-name="zacute" unicode="&#x17a;" horiz-adv-x="1175" 
d="M537 1311l165 352h216l-205 -352h-176zM102 0v193l693 790h-682v188h960v-192l-694 -789h684v-190h-961z" />
    <glyph glyph-name="Zdotaccent" unicode="&#x17b;" horiz-adv-x="1271" 
d="M657 1618q-45 0 -77.5 33.5t-32.5 79.5t32 78t78 32t78.5 -32t32.5 -78t-32.5 -79.5t-78.5 -33.5zM90 0v203l799 1065h-799v215h1073v-201l-796 -1067h796v-215h-1073z" />
    <glyph glyph-name="zdotaccent" unicode="&#x17c;" horiz-adv-x="1175" 
d="M625 1327q-46 0 -78.5 33.5t-32.5 79.5t32.5 78t78.5 32t78 -32t32 -78t-32.5 -79.5t-77.5 -33.5zM102 0v193l693 790h-682v188h960v-192l-694 -789h684v-190h-961z" />
    <glyph glyph-name="Zcaron" unicode="&#x17d;" horiz-adv-x="1271" 
d="M526 1593l-278 349h186l215 -222l215 222h189l-281 -349h-246zM90 0v203l799 1065h-799v215h1073v-201l-796 -1067h796v-215h-1073z" />
    <glyph glyph-name="zcaron" unicode="&#x17e;" horiz-adv-x="1175" 
d="M494 1303l-279 348h186l215 -221l215 221h189l-281 -348h-245zM102 0v193l693 790h-682v188h960v-192l-694 -789h684v-190h-961z" />
    <glyph glyph-name="florin" unicode="&#x192;" horiz-adv-x="800" 
d="M106 -389q-69 0 -118 12l28 187q25 -5 43 -5q80 0 114 47t34 152v989h-162v178h162v48q0 378 407 378q115 0 207 -18l-33 -174q-54 10 -129 10q-221 0 -221 -203v-41h332v-178h-332v-995q0 -194 -77 -290.5t-255 -96.5z" />
    <glyph glyph-name="uni0218" unicode="&#x218;" horiz-adv-x="1282" 
d="M666 -20q-233 0 -396.5 105.5t-220.5 295.5l223 45q46 -115 148.5 -177.5t243.5 -62.5q153 0 237 59t84 165q0 56 -30 96.5t-80.5 64.5t-115.5 42.5t-137.5 35t-145 36t-137.5 51.5t-115.5 75.5t-80.5 114t-30 161.5q0 186 142.5 302t371.5 116q226 0 374 -97.5
t205 -283.5l-217 -43q-95 213 -356 213q-138 0 -214.5 -55t-76.5 -152q0 -59 30 -101t81 -66.5t116.5 -42.5t138.5 -33.5t145.5 -33.5t138 -49t116.5 -74t81 -113.5t30 -163.5q0 -195 -150.5 -312.5t-402.5 -117.5zM434 -471l129 362h240l-187 -362h-182z" />
    <glyph glyph-name="uni0219" unicode="&#x219;" horiz-adv-x="1177" 
d="M608 -20q-198 0 -347.5 82.5t-203.5 220.5l209 57q43 -79 131 -121.5t211 -42.5q136 0 208.5 42t72.5 122q0 43 -26.5 72t-72 45t-104 26.5t-123 20.5t-129 22.5t-123 37t-104 59.5t-72 94.5t-26.5 138.5q0 148 138.5 242t344.5 94q163 0 304.5 -74.5t193.5 -193.5
l-205 -56q-36 64 -115 100t-174 36q-123 0 -192.5 -40t-69.5 -112q0 -47 34 -78t89 -45t125.5 -26.5t144.5 -21.5t144.5 -32t125.5 -56.5t89 -96.5t34 -150q0 -169 -138.5 -267.5t-373.5 -98.5zM426 -471l129 362h240l-187 -362h-182z" />
    <glyph glyph-name="uni021A" unicode="&#x21a;" horiz-adv-x="1161" 
d="M463 0v1268h-402v215h1039v-215h-400v-1268h-237zM360 -471l129 362h240l-186 -362h-183z" />
    <glyph glyph-name="uni021B" unicode="&#x21b;" horiz-adv-x="835" 
d="M641 -16q-230 0 -334 109.5t-104 373.5v526h-170v178h170v215l231 50v-265h346v-178h-346v-499q0 -181 54 -253.5t188 -72.5q19 0 94 10l31 -178q-72 -16 -160 -16zM350 -459l129 363h240l-187 -363h-182z" />
    <glyph glyph-name="uni0237" unicode="&#x237;" horiz-adv-x="491" 
d="M31 -389q-70 0 -117 12l25 174q23 -4 45 -4q77 0 110 47.5t33 151.5v1179h229v-1173q0 -195 -75.5 -291t-249.5 -96z" />
    <glyph glyph-name="circumflex" unicode="&#x2c6;" horiz-adv-x="1136" 
d="M152 1327l272 348h242l276 -348h-186l-211 223l-211 -223h-182z" />
    <glyph glyph-name="caron" unicode="&#x2c7;" horiz-adv-x="1136" 
d="M424 1284l-272 348h182l211 -221l211 221h186l-276 -348h-242z" />
    <glyph glyph-name="breve" unicode="&#x2d8;" horiz-adv-x="1124" 
d="M563 1313q-167 0 -265.5 86.5t-98.5 251.5h170q0 -87 43 -135t151 -48t151.5 48t43.5 135h170q0 -164 -98.5 -251t-266.5 -87z" />
    <glyph glyph-name="dotaccent" unicode="&#x2d9;" horiz-adv-x="665" 
d="M334 1327q-44 0 -76.5 33.5t-32.5 79.5t32.5 78t76.5 32t76 -32t32 -78t-32 -79.5t-76 -33.5z" />
    <glyph glyph-name="ring" unicode="&#x2da;" horiz-adv-x="722" 
d="M365 1307q-108 0 -178 66.5t-70 176.5q0 107 70.5 173.5t177.5 66.5t177 -66.5t70 -173.5q0 -111 -69.5 -177t-177.5 -66zM365 1450q43 0 69.5 28t26.5 72q0 45 -26.5 71t-69.5 26q-44 0 -69.5 -25.5t-25.5 -71.5q0 -44 26 -72t69 -28z" />
    <glyph glyph-name="ogonek" unicode="&#x2db;" horiz-adv-x="692" 
d="M444 -479q-118 0 -186 64t-68 163q0 70 43.5 149.5t133.5 135.5l149 -33q-73 -32 -112 -88.5t-39 -112.5q0 -66 47 -96t120 -18v-154q-52 -10 -88 -10z" />
    <glyph glyph-name="tilde" unicode="&#x2dc;" horiz-adv-x="1067" 
d="M240 1303l-95 127q48 52 102.5 76t105.5 24t103 -9.5t101.5 -22t95.5 -17.5t91.5 9t82.5 52l95 -129q-51 -53 -107 -79t-107.5 -26.5t-104 9t-102 22.5t-94.5 19t-88.5 -6.5t-78.5 -48.5z" />
    <glyph glyph-name="hungarumlaut" unicode="&#x2dd;" horiz-adv-x="1406" 
d="M319 1311l179 352h213l-215 -352h-177zM700 1311l177 352h213l-218 -352h-172z" />
    <glyph glyph-name="gravecomb" unicode="&#x300;" 
d="M-426 1311l-207 352h217l166 -352h-176z" />
    <glyph glyph-name="acutecomb" unicode="&#x301;" 
d="M-596 1311l166 352h215l-205 -352h-176z" />
    <glyph glyph-name="uni0302" unicode="&#x302;" 
d="M-948 1327l278 348h246l281 -348h-189l-215 223l-215 -223h-186z" />
    <glyph glyph-name="tildecomb" unicode="&#x303;" 
d="M-831 1303l-97 127q57 59 123 83t124 17t122 -20t118 -25t109.5 0.5t98.5 56.5l96 -129q-52 -53 -109 -79t-109.5 -26.5t-105.5 9t-103.5 22.5t-96 19t-90.5 -6.5t-80 -48.5z" />
    <glyph glyph-name="uni0304" unicode="&#x304;" 
d="M-852 1333v158h670v-158h-670z" />
    <glyph glyph-name="uni0306" unicode="&#x306;" 
d="M-561 1313q-171 0 -271 86.5t-100 251.5h172q0 -86 44.5 -134.5t154.5 -48.5t154.5 48t44.5 135h172q0 -165 -100 -251.5t-271 -86.5z" />
    <glyph glyph-name="uni0307" unicode="&#x307;" 
d="M-332 1327q-45 0 -77.5 33.5t-32.5 79.5t32 78t78 32t78.5 -32t32.5 -78t-32.5 -79.5t-78.5 -33.5z" />
    <glyph glyph-name="uni0308" unicode="&#x308;" 
d="M-770 1327q-46 0 -78.5 33.5t-32.5 79.5t32.5 78t78.5 32t78.5 -32t32.5 -78t-32.5 -79.5t-78.5 -33.5zM-399 1327q-47 0 -80 33.5t-33 79.5t33 78t80 32q44 0 76 -32t32 -78t-32 -79.5t-76 -33.5z" />
    <glyph glyph-name="uni030A" unicode="&#x30a;" 
d="M-360 1307q-110 0 -181 66.5t-71 176.5q0 107 71.5 173.5t180.5 66.5q110 0 180.5 -66t70.5 -174q0 -111 -70 -177t-181 -66zM-360 1450q44 0 71 28t27 72q0 45 -26.5 71t-71.5 26t-71 -26t-26 -71q0 -44 27 -72t70 -28z" />
    <glyph glyph-name="uni030B" unicode="&#x30b;" 
d="M-1133 1311l181 352h217l-219 -352h-179zM-745 1311l180 352h217l-221 -352h-176z" />
    <glyph glyph-name="uni030C" unicode="&#x30c;" 
d="M-715 1284l-278 348h186l215 -221l215 221h189l-281 -348h-246z" />
    <glyph glyph-name="uni0312" unicode="&#x312;" 
d="M-649 1311l248 458h182l-191 -458h-239z" />
    <glyph glyph-name="uni0326" unicode="&#x326;" 
d="M-645 -471l129 362h240l-187 -362h-182z" />
    <glyph glyph-name="uni0327" unicode="&#x327;" 
d="M-616 -279l202 312h170l-143 -312h-229z" />
    <glyph glyph-name="uni0328" unicode="&#x328;" 
d="M-246 -479q-120 0 -189 64.5t-69 162.5q0 70 43.5 149.5t134.5 135.5l154 -33q-74 -32 -115 -88.5t-41 -112.5q0 -66 49 -96t123 -18v-154q-55 -10 -90 -10z" />
    <glyph glyph-name="uni0335" unicode="&#x335;" 
d="M-915 672v159h778v-159h-778z" />
    <glyph glyph-name="uni0336" unicode="&#x336;" 
d="M-1366 672v159h1231v-159h-1231z" />
    <glyph glyph-name="uni0337" unicode="&#x337;" 
d="M-885 543v192l748 205v-192z" />
    <glyph glyph-name="uni0338" unicode="&#x338;" 
d="M-1143 -145l877 1763h221l-875 -1763h-223z" />
    <glyph glyph-name="pi" unicode="&#x3c0;" horiz-adv-x="1654" 
d="M825 -23q-114 0 -217 27t-195 86.5t-159 147t-106 216t-39 285.5q0 154 39.5 281.5t107 215t160 147.5t196 88t217.5 28q112 0 215 -28t195 -88t160 -147.5t107.5 -215t39.5 -281.5q0 -157 -39.5 -285.5t-107 -216t-160.5 -147t-196.5 -86.5t-217.5 -27zM825 164
q239 0 381 151t142 424q0 267 -143 420.5t-378 153.5q-240 0 -383 -152.5t-143 -421.5q0 -274 140.5 -424.5t383.5 -150.5zM547 367v757h252q188 0 273 -68t85 -208t-84.5 -209.5t-267.5 -69.5h-74v-202h-184zM731 731h74q100 0 134 24.5t34 90.5t-33.5 89t-134.5 23h-74
v-227z" />
    <glyph glyph-name="Wgrave" unicode="&#x1e80;" horiz-adv-x="2084" 
d="M956 1610l-206 352h217l166 -352h-177zM479 0l-499 1481h256l366 -1145l338 1145h201l340 -1145l368 1145h256l-501 -1481h-226l-338 1141l-335 -1141h-226z" />
    <glyph glyph-name="wgrave" unicode="&#x1e81;" horiz-adv-x="1945" 
d="M889 1311l-207 352h217l166 -352h-176zM457 0l-451 1171h248l326 -903l303 903h180l303 -903l326 903h250l-455 -1171h-232l-282 856l-283 -856h-233z" />
    <glyph glyph-name="Wacute" unicode="&#x1e82;" horiz-adv-x="2084" 
d="M954 1610l166 352h215l-205 -352h-176zM479 0l-499 1481h256l366 -1145l338 1145h201l340 -1145l368 1145h256l-501 -1481h-226l-338 1141l-335 -1141h-226z" />
    <glyph glyph-name="wacute" unicode="&#x1e83;" horiz-adv-x="1945" 
d="M887 1311l166 352h215l-205 -352h-176zM457 0l-451 1171h248l326 -903l303 903h180l303 -903l326 903h250l-455 -1171h-232l-282 856l-283 -856h-233z" />
    <glyph glyph-name="Wdieresis" unicode="&#x1e84;" horiz-adv-x="2084" 
d="M858 1626q-45 0 -77.5 33.5t-32.5 79.5t32 78t78 32t78.5 -32t32.5 -78t-32.5 -79.5t-78.5 -33.5zM1229 1626q-47 0 -80 33.5t-33 79.5t33 78t80 32q44 0 76 -32t32 -78t-32 -79.5t-76 -33.5zM479 0l-499 1481h256l366 -1145l338 1145h201l340 -1145l368 1145h256
l-501 -1481h-226l-338 1141l-335 -1141h-226z" />
    <glyph glyph-name="wdieresis" unicode="&#x1e85;" horiz-adv-x="1945" 
d="M791 1327q-46 0 -78.5 33.5t-32.5 79.5t32.5 78t78.5 32t78 -32t32 -78t-32.5 -79.5t-77.5 -33.5zM1161 1327q-47 0 -79.5 33.5t-32.5 79.5t32.5 78t79.5 32q45 0 77 -32t32 -78t-32.5 -79.5t-76.5 -33.5zM457 0l-451 1171h248l326 -903l303 903h180l303 -903l326 903
h250l-455 -1171h-232l-282 856l-283 -856h-233z" />
    <glyph glyph-name="Ygrave" unicode="&#x1ef2;" horiz-adv-x="1402" 
d="M616 1610l-206 352h217l166 -352h-177zM580 0v416l-600 1067h268l450 -821l455 821h270l-606 -1067v-416h-237z" />
    <glyph glyph-name="ygrave" unicode="&#x1ef3;" horiz-adv-x="1267" 
d="M565 1311l-207 352h217l166 -352h-176zM340 -379l172 387l-506 1163h252l377 -915l377 915h252l-672 -1550h-252z" />
    <glyph glyph-name="endash" unicode="&#x2013;" horiz-adv-x="1075" 
d="M90 520v205h903v-205h-903z" />
    <glyph glyph-name="emdash" unicode="&#x2014;" horiz-adv-x="1591" 
d="M90 520v205h1413v-205h-1413z" />
    <glyph glyph-name="quoteleft" unicode="&#x2018;" horiz-adv-x="618" 
d="M53 817l332 666h180l-274 -666h-238z" />
    <glyph glyph-name="quoteright" unicode="&#x2019;" horiz-adv-x="618" 
d="M53 817l277 666h235l-329 -666h-183z" />
    <glyph glyph-name="quotesinglbase" unicode="&#x201a;" horiz-adv-x="516" 
d="M-51 -248l276 666h236l-328 -666h-184z" />
    <glyph glyph-name="quotedblleft" unicode="&#x201c;" horiz-adv-x="1030" 
d="M53 817l332 666h180l-274 -666h-238zM463 817l332 666h182l-275 -666h-239z" />
    <glyph glyph-name="quotedblright" unicode="&#x201d;" horiz-adv-x="1030" 
d="M53 817l277 666h235l-329 -666h-183zM463 817l276 666h238l-330 -666h-184z" />
    <glyph glyph-name="quotedblbase" unicode="&#x201e;" horiz-adv-x="925" 
d="M-51 -246l276 666h236l-328 -666h-184zM358 -246l277 666h237l-329 -666h-185z" />
    <glyph glyph-name="dagger" unicode="&#x2020;" horiz-adv-x="770" 
d="M283 -379v1378h-209v172h209v312h198v-312h211v-172h-211v-1378h-198z" />
    <glyph glyph-name="daggerdbl" unicode="&#x2021;" horiz-adv-x="770" 
d="M287 -379v983h-203v172h203v223h-209v172h209v312h194v-312h211v-172h-211v-223h211v-172h-211v-983h-194z" />
    <glyph glyph-name="bullet" unicode="&#x2022;" horiz-adv-x="751" 
d="M391 432q-141 0 -225 77.5t-84 227.5q0 146 84.5 224.5t224.5 78.5q133 0 222 -79.5t89 -223.5q0 -148 -88.5 -226.5t-222.5 -78.5z" />
    <glyph glyph-name="ellipsis" unicode="&#x2026;" horiz-adv-x="1343" 
d="M244 -16q-60 0 -97.5 32.5t-37.5 89.5t37.5 90t97.5 33q56 0 95.5 -33.5t39.5 -89.5t-39 -89t-96 -33zM672 -16q-60 0 -97.5 32.5t-37.5 89.5t37.5 90t97.5 33q58 0 96.5 -33t38.5 -90t-38.5 -89.5t-96.5 -32.5zM1100 -16q-60 0 -97.5 32.5t-37.5 89.5t37.5 90t97.5 33
q58 0 96.5 -33t38.5 -90t-38.5 -89.5t-96.5 -32.5z" />
    <glyph glyph-name="perthousand" unicode="&#x2030;" horiz-adv-x="3307" 
d="M545 668q-93 0 -172.5 24t-143 72.5t-99.5 130t-36 188.5q0 105 36.5 186.5t100.5 130.5t144 74t172 25q89 0 167 -25t141 -74t99.5 -130.5t36.5 -186.5q0 -107 -36 -188.5t-99 -130t-141.5 -72.5t-169.5 -24zM621 0l813 1483h223l-811 -1481zM545 848q116 0 181 61
t65 174q0 110 -66 173t-180 63q-118 0 -185 -62t-67 -174q0 -113 66.5 -174t185.5 -61zM1737 -23q-93 0 -172.5 24t-142.5 72.5t-99.5 130.5t-36.5 189q0 105 36.5 186.5t100.5 130.5t144 74t172 25q89 0 167 -25t141 -74t99.5 -130.5t36.5 -186.5q0 -107 -36 -189
t-99 -130.5t-141.5 -72.5t-169.5 -24zM2767 -23q-93 0 -172.5 24t-142.5 72.5t-99.5 130.5t-36.5 189q0 105 36.5 186.5t100.5 130.5t144 74t172 25q89 0 167 -25t141 -74t99.5 -130.5t36.5 -186.5q0 -107 -36 -189t-99 -130.5t-141.5 -72.5t-169.5 -24zM1737 158
q116 0 180.5 61t64.5 174q0 110 -65.5 173t-179.5 63q-118 0 -185 -62t-67 -174q0 -113 66.5 -174t185.5 -61zM2767 158q116 0 181 61t65 174q0 110 -66 173t-180 63q-118 0 -185 -62t-67 -174q0 -113 66.5 -174t185.5 -61z" />
    <glyph glyph-name="guilsinglleft" unicode="&#x2039;" horiz-adv-x="794" 
d="M520 92l-446 483l446 482h199l-389 -482l391 -483h-201z" />
    <glyph glyph-name="guilsinglright" unicode="&#x203a;" horiz-adv-x="794" 
d="M74 92l393 483l-391 482h198l447 -482l-447 -483h-200z" />
    <glyph glyph-name="fraction" unicode="&#x2044;" horiz-adv-x="1208" 
d="M25 0l962 1483h199l-963 -1483h-198z" />
    <glyph glyph-name="Euro" unicode="&#x20ac;" horiz-adv-x="1505" 
d="M1192 539l225 -43q-24 -111 -71.5 -200.5t-107 -148.5t-132 -98.5t-146 -56.5t-151.5 -17q-96 0 -183.5 24t-168 76.5t-142 129.5t-101.5 191t-50 253h-105v199h107q12 132 53.5 241.5t102.5 184.5t140.5 127t166.5 76t180 24q98 0 188.5 -27.5t174 -85t147.5 -158
t96 -235.5l-225 -45q-39 162 -140 247t-241 85q-166 0 -274.5 -114.5t-133.5 -319.5h408v-199h-410q18 -218 127 -335t283 -117q143 0 244.5 87.5t138.5 254.5z" />
    <glyph glyph-name="trademark" unicode="&#x2122;" horiz-adv-x="2142" 
d="M330 653v666h-269v164h711v-164h-264v-666h-178zM838 651l172 832h209l243 -621l248 621h207l170 -832h-178l-127 604l-236 -604h-166l-235 604l-125 -604h-182z" />
    <glyph glyph-name="minus" unicode="&#x2212;" horiz-adv-x="1228" 
d="M86 649v205h1094v-205h-1094z" />
    <glyph glyph-name="fi" unicode="&#xfb01;" horiz-adv-x="1298" 
d="M754 1409q-33 6 -99 6q-112 0 -166.5 -50t-54.5 -153v-41h330v-178h-330v-993h-231v993h-162v178h162v48q0 378 407 378q68 0 166 -12zM1047 1321q-60 0 -98 33.5t-38 89.5q0 57 38 90t98 33q58 0 97.5 -33t39.5 -90q0 -55 -40 -89t-97 -34zM932 0v1171h229v-1171h-229z
" />
    <glyph glyph-name="fl" unicode="&#xfb02;" horiz-adv-x="1290" 
d="M203 0v993h-162v178h162v48q0 192 113.5 285t361.5 93q246 0 361.5 -94.5t115.5 -296.5v-1206h-229v1206q0 104 -60.5 156.5t-187.5 52.5q-124 0 -184 -50t-60 -153v-41h330v-178h-330v-993h-231z" />
    <glyph glyph-name="R.salt" horiz-adv-x="1327" 
d="M156 0v1483h438q349 0 502 -112.5t153 -377.5q0 -205 -80.5 -313.5t-248.5 -147.5l333 -532h-295l-401 694h31q112 0 185.5 12t129.5 43t81.5 88.5t25.5 145.5t-25.5 146t-81 90.5t-130 45.5t-185.5 13h-193v-1278h-239z" />
    <glyph glyph-name="Racute.salt" horiz-adv-x="1327" 
d="M598 1622l166 352h215l-205 -352h-176zM156 0v1483h438q349 0 502 -112.5t153 -377.5q0 -205 -80.5 -313.5t-248.5 -147.5l333 -532h-295l-401 694h31q112 0 185.5 12t129.5 43t81.5 88.5t25.5 145.5t-25.5 146t-81 90.5t-130 45.5t-185.5 13h-193v-1278h-239z" />
    <glyph glyph-name="Rcaron.salt" horiz-adv-x="1327" 
d="M555 1614l-279 348h187l215 -221l215 221h188l-280 -348h-246zM156 0v1483h438q349 0 502 -112.5t153 -377.5q0 -205 -80.5 -313.5t-248.5 -147.5l333 -532h-295l-401 694h31q112 0 185.5 12t129.5 43t81.5 88.5t25.5 145.5t-25.5 146t-81 90.5t-130 45.5t-185.5 13h-193
v-1278h-239z" />
    <glyph glyph-name="uni0156.salt" horiz-adv-x="1327" 
d="M156 0v1483h438q349 0 502 -112.5t153 -377.5q0 -205 -80.5 -313.5t-248.5 -147.5l333 -532h-295l-401 694h31q112 0 185.5 12t129.5 43t81.5 88.5t25.5 145.5t-25.5 146t-81 90.5t-130 45.5t-185.5 13h-193v-1278h-239zM487 -471l129 362h240l-186 -362h-183z" />
    <glyph glyph-name="i.loclTRK" horiz-adv-x="501" 
d="M252 1327q-46 0 -78.5 33.5t-32.5 79.5t32.5 78t78.5 32t78 -32t32 -78t-32.5 -79.5t-77.5 -33.5zM135 0v1171h232v-1171h-232z" />
    <glyph glyph-name="j.salt" horiz-adv-x="501" 
d="M250 1341q-59 0 -97 33.5t-38 89.5q0 57 37.5 90t97.5 33q58 0 97.5 -33t39.5 -90q0 -55 -40 -89t-97 -34zM135 -379v1550h232v-1550h-232z" />
    <glyph glyph-name="uni0237.salt" horiz-adv-x="501" 
d="M135 -379v1550h232v-1550h-232z" />
    <glyph glyph-name="r.salt" horiz-adv-x="802" 
d="M627 942q-60 0 -97.5 33t-37.5 90t37.5 90t97.5 33q56 0 95.5 -33.5t39.5 -89.5t-39.5 -89.5t-95.5 -33.5zM135 0v1174h232v-1174h-232z" />
    <glyph glyph-name="racute.salt" horiz-adv-x="802" 
d="M338 1311l166 352h215l-205 -352h-176zM627 942q-60 0 -97.5 33t-37.5 90t37.5 90t97.5 33q56 0 95.5 -33.5t39.5 -89.5t-39.5 -89.5t-95.5 -33.5zM135 0v1174h232v-1174h-232z" />
    <glyph glyph-name="rcaron.salt" horiz-adv-x="811" 
d="M305 1303l-278 348h186l215 -221l215 221h188l-280 -348h-246zM627 942q-60 0 -97.5 33t-37.5 90t37.5 90t97.5 33q56 0 95.5 -33.5t39.5 -89.5t-39.5 -89.5t-95.5 -33.5zM135 0v1174h232v-1174h-232z" />
    <glyph glyph-name="uni0157.salt" horiz-adv-x="802" 
d="M627 942q-60 0 -97.5 33t-37.5 90t37.5 90t97.5 33q56 0 95.5 -33.5t39.5 -89.5t-39.5 -89.5t-95.5 -33.5zM135 0v1174h232v-1174h-232zM8 -471l129 362h240l-187 -362h-182z" />
    <glyph glyph-name="t.salt" horiz-adv-x="704" 
d="M33 993v178h170v215l231 50v-265h240v-178h-240v-993h-231v993h-170z" />
    <glyph glyph-name="tbar.salt" horiz-adv-x="714" 
d="M674 993h-240v-268h221v-158h-221v-567h-231v567h-158v158h158v268h-170v178h170v215l231 50v-265h240v-178z" />
    <glyph glyph-name="tcaron.salt" horiz-adv-x="739" 
d="M561 1311l68 358h235l-119 -358h-184zM33 993v178h170v215l231 50v-265h240v-178h-240v-993h-231v993h-170z" />
    <glyph glyph-name="uni0163.salt" horiz-adv-x="714" 
d="M434 1171h240v-178h-240v-993h-37l-127 -274h-229l178 274h-16v993h-170v178h170v215l231 50v-265z" />
    <glyph glyph-name="uni021B.salt" horiz-adv-x="714" 
d="M33 993v178h170v215l231 50v-265h240v-178h-240v-993h-231v993h-170zM78 -459l129 363h239l-186 -363h-182z" />
    <glyph glyph-name="f_i" horiz-adv-x="1298" 
d="M754 1409q-33 6 -99 6q-112 0 -166.5 -50t-54.5 -153v-41h330v-178h-330v-993h-231v993h-162v178h162v48q0 378 407 378q68 0 166 -12zM1047 1321q-60 0 -98 33.5t-38 89.5q0 57 38 90t98 33q58 0 97.5 -33t39.5 -90q0 -55 -40 -89t-97 -34zM932 0v1171h229v-1171h-229z
" />
    <glyph glyph-name="f_l" horiz-adv-x="1290" 
d="M203 0v993h-162v178h162v48q0 192 113.5 285t361.5 93q246 0 361.5 -94.5t115.5 -296.5v-1206h-229v1206q0 104 -60.5 156.5t-187.5 52.5q-124 0 -184 -50t-60 -153v-41h330v-178h-330v-993h-231z" />
    <glyph glyph-name="zero.osf" horiz-adv-x="1433" 
d="M717 -25q-123 0 -231.5 39t-193 113.5t-134 193.5t-49.5 267t49.5 265.5t134 191.5t193 112.5t231.5 38.5q122 0 230 -38.5t193 -112t135 -192t50 -265.5q0 -148 -49.5 -267t-134 -193.5t-193 -113.5t-231.5 -39zM719 174q173 0 276 115t103 301q0 183 -103.5 297
t-279.5 114q-175 0 -277 -113.5t-102 -297.5q0 -187 102.5 -301.5t280.5 -114.5z" />
    <glyph glyph-name="one.osf" horiz-adv-x="673" 
d="M279 0v956h-238v215h475v-1171h-237z" />
    <glyph glyph-name="two.osf" horiz-adv-x="1327" 
d="M96 0v188q215 89 361.5 156.5t254.5 127.5t168 112t87.5 101.5t27.5 105.5q0 92 -90.5 147t-242.5 55q-144 0 -237.5 -58t-119.5 -163l-223 31q36 178 189 283.5t391 105.5q262 0 420.5 -106.5t158.5 -274.5q0 -124 -64 -218.5t-222.5 -189.5t-446.5 -208h725v-195h-1137
z" />
    <glyph glyph-name="three.osf" horiz-adv-x="1359" 
d="M674 -330q-241 0 -397.5 106.5t-206.5 301.5l223 39q84 -234 377 -234q167 0 261.5 65.5t94.5 182.5q0 121 -81.5 172t-276.5 51h-123v189h102q344 0 344 215q0 115 -83 174t-244 59q-247 0 -336 -207l-219 35q51 182 196 280.5t363 98.5q264 0 414.5 -110.5
t150.5 -303.5q0 -132 -74.5 -218t-214.5 -115q156 -20 239 -110t83 -239q0 -195 -162.5 -313.5t-429.5 -118.5z" />
    <glyph glyph-name="four.osf" horiz-adv-x="1378" 
d="M889 -328v338h-828v193l811 968h254v-962h203v-199h-203v-338h-237zM322 209h567v670z" />
    <glyph glyph-name="five.osf" horiz-adv-x="1363" 
d="M682 -334q-233 0 -386 105t-194 301l213 24q35 -108 127 -164.5t232 -56.5q170 0 272.5 93.5t102.5 250.5q0 152 -102.5 241t-276.5 85q-220 -6 -336 -183l-207 37l133 772h928v-213h-744l-73 -368q138 115 346 121q252 6 406.5 -132.5t154.5 -369.5q0 -243 -164.5 -393
t-431.5 -150z" />
    <glyph glyph-name="six.osf" horiz-adv-x="1398" 
d="M702 -25q-121 0 -228 34.5t-193 102t-136.5 179.5t-50.5 256q0 112 33.5 218t108.5 221.5t172.5 229.5t248.5 267h301q-129 -104 -248.5 -234.5t-195.5 -247.5q110 68 242 68q110 0 208 -33.5t174.5 -97t121.5 -166t45 -231.5q0 -116 -33.5 -211t-90.5 -160
t-134.5 -109.5t-164 -65t-180.5 -20.5zM700 184q171 0 271 95t100 260q0 161 -100.5 254.5t-272.5 93.5t-271 -93.5t-99 -254.5q0 -166 99.5 -260.5t272.5 -94.5z" />
    <glyph glyph-name="seven.osf" horiz-adv-x="1210" 
d="M197 -311l702 1267h-842v215h1092v-202l-688 -1280h-264z" />
    <glyph glyph-name="eight.osf" horiz-adv-x="1402" 
d="M700 -25q-172 0 -308 47.5t-217 143.5t-81 227q0 135 81 224t235 126q-143 37 -218 126.5t-75 222.5q0 129 79 222.5t210.5 139t300.5 45.5q167 0 298 -45.5t209 -139t78 -222.5q0 -135 -75 -224t-220 -127q152 -35 232 -124t80 -224q0 -132 -81.5 -228t-217.5 -143
t-310 -47zM702 829q161 0 259 65t98 175q0 109 -96.5 172.5t-257.5 63.5q-163 0 -260 -63.5t-97 -172.5t97 -174.5t257 -65.5zM700 168q171 0 273 66t102 178q0 111 -102 176t-271 65q-170 0 -273 -65t-103 -176q0 -112 102 -178t272 -66z" />
    <glyph glyph-name="nine.osf" horiz-adv-x="1398" 
d="M440 -309q131 105 251 235t194 246q-107 -68 -242 -68q-110 0 -208 33.5t-174.5 97.5t-121.5 167.5t-45 232.5q0 115 33.5 210t90.5 159.5t135 109t164.5 64.5t180.5 20q96 0 183.5 -21t165.5 -66t135 -111t90 -161.5t33 -211.5q0 -112 -33.5 -218.5t-108 -221.5
t-172 -229t-248.5 -267h-303zM700 287q172 0 272.5 93.5t100.5 254.5q0 165 -100.5 259.5t-274.5 94.5q-171 0 -270.5 -94.5t-99.5 -259.5q0 -161 100.5 -254.5t271.5 -93.5z" />
    <glyph glyph-name="zero.tf" horiz-adv-x="1404" 
d="M739 -23q-104 0 -196.5 27t-173.5 86.5t-140 147t-93 216t-34 285.5q0 154 34.5 281t94 215t141 148t175 88t196.5 28q129 0 241 -45.5t202 -135.5t142 -239t52 -340q0 -157 -34 -285.5t-93.5 -216t-141.5 -147t-175 -86.5t-197 -27zM739 193q189 0 297.5 143t108.5 403
q0 255 -109 400t-295 145q-187 0 -296 -145t-109 -400q0 -260 107 -403t296 -143z" />
    <glyph glyph-name="one.tf" horiz-adv-x="1404" 
d="M854 215h248v-215h-785v215h299v1053h-299v215h537v-1268z" />
    <glyph glyph-name="two.tf" horiz-adv-x="1404" 
d="M166 0v209q207 128 350 221t245.5 170t161 130.5t91.5 106.5t43 94t10 97q0 123 -91 191.5t-241 68.5q-144 0 -238 -66t-120 -188l-221 33q35 206 186.5 319t392.5 113q266 0 422 -117t156 -333q0 -107 -37 -194t-135 -186t-248 -202.5t-397 -251.5h802v-215h-1132z" />
    <glyph glyph-name="three.tf" horiz-adv-x="1404" 
d="M748 -27q-241 0 -398 106.5t-207 301.5l224 39q84 -234 376 -234q168 0 262.5 65.5t94.5 182.5q0 121 -82 172t-277 51h-123v189h103q344 0 344 215q0 115 -83 174t-245 59q-247 0 -336 -207l-219 35q51 182 196 280.5t363 98.5q264 0 415 -110.5t151 -303.5
q0 -132 -74.5 -218t-214.5 -115q156 -20 238.5 -109.5t82.5 -238.5q0 -195 -162 -314t-429 -119z" />
    <glyph glyph-name="four.tf" horiz-adv-x="1404" 
d="M936 0v322h-827v192l811 969h254v-963h202v-198h-202v-322h-238zM369 520h567v670z" />
    <glyph glyph-name="five.tf" horiz-adv-x="1404" 
d="M733 -23q-233 0 -385.5 105t-193.5 301l213 25q35 -109 126.5 -165.5t231.5 -56.5q170 0 272.5 93.5t102.5 250.5q0 152 -102.5 241t-276.5 85q-221 -6 -336 -182l-207 37l133 772h928v-213h-743l-74 -369q138 115 346 121q252 6 406.5 -132.5t154.5 -369.5
q0 -243 -164.5 -393t-431.5 -150z" />
    <glyph glyph-name="six.tf" horiz-adv-x="1404" 
d="M743 -25q-121 0 -228 34.5t-193 102t-136.5 179.5t-50.5 256q0 112 33.5 218t108.5 221.5t172.5 229.5t248.5 267h301q-129 -104 -248.5 -234.5t-195.5 -247.5q110 68 242 68q110 0 208 -33.5t174.5 -97t121.5 -166t45 -231.5q0 -116 -33.5 -211t-90.5 -160
t-134.5 -109.5t-164 -65t-180.5 -20.5zM741 184q171 0 271 95t100 260q0 161 -100.5 254.5t-272.5 93.5t-271 -93.5t-99 -254.5q0 -166 99.5 -260.5t272.5 -94.5z" />
    <glyph glyph-name="seven.tf" horiz-adv-x="1404" 
d="M336 0l702 1268h-841v215h1091v-203l-688 -1280h-264z" />
    <glyph glyph-name="eight.tf" horiz-adv-x="1404" 
d="M739 -25q-172 0 -308 47.5t-217 143.5t-81 227q0 135 81 224t235 126q-143 37 -218 126.5t-75 222.5q0 129 78.5 222.5t210 139t300.5 45.5q168 0 298.5 -45.5t209 -139t78.5 -222.5q0 -135 -75 -224t-220 -127q152 -35 232 -124t80 -224q0 -132 -81.5 -228t-217.5 -143
t-310 -47zM741 829q161 0 259 65t98 175q0 109 -97 172.5t-258 63.5q-162 0 -259 -63.5t-97 -172.5t97 -174.5t257 -65.5zM739 168q171 0 273 66t102 178q0 111 -102 176t-271 65q-170 0 -273 -65t-103 -176q0 -112 102 -178t272 -66z" />
    <glyph glyph-name="nine.tf" horiz-adv-x="1404" 
d="M481 0q131 105 251 235t194 246q-105 -67 -242 -67q-110 0 -208 33.5t-174.5 97.5t-121.5 167t-45 232q0 115 33.5 210t90.5 159.5t135 109t164.5 64.5t180.5 20q96 0 183.5 -21t165.5 -66t135 -111t90 -161.5t33 -211.5q0 -112 -33.5 -218.5t-108 -221.5t-172 -229
t-248.5 -267h-303zM741 596q172 0 272.5 93.5t100.5 254.5q0 165 -100.5 259.5t-274.5 94.5q-171 0 -270.5 -94.5t-99.5 -259.5q0 -161 100.5 -254.5t271.5 -93.5z" />
    </font>
</defs>
</svg>
